<svg xmlns="http://www.w3.org/2000/svg" style="fill:#000" version="1.0" viewBox="0 0 398 341.8"><path d="M397 14v252c0 7.2-5.8 13-13 13H260.7v43H274c5.2 0 9.4 4.2 9.4 9.4s-4.2 9.4-9.4 9.4H122.8c-5.2 0-9.4-4.2-9.4-9.4s4.2-9.4 9.4-9.4h13.3v-43.1H14c-7.2 0-13-5.8-13-13V14C1 6.8 6.8 1 14 1h370c7.2 0 13 5.8 13 13z" style="fill:#4f8147"/><path d="M29 15.9h339.9c7.2 0 13 5.8 13 13v199.4c0 7.2-5.8 13-13 13H29c-7.2 0-13-5.8-13-13V28.9c.1-7.2 5.9-13 13-13z" style="fill:#f0f8ec"/><path d="M285.2 159.5c0 14.3-7.5 19.1-16.7 19.1s-16.7-4.8-16.7-19.1 16.7-32.7 16.7-32.7 16.7 18.4 16.7 32.7zm-174.6 0c0 14.3 7.5 19.1 16.7 19.1s16.7-4.8 16.7-19.1-16.7-32.7-16.7-32.7-16.7 18.4-16.7 32.7z" style="fill:#fafafa"/><path d="M384 0H14C6.3 0 0 6.3 0 14v252c0 7.7 6.3 14 14 14h121.2v41h-12.3c-5.8 0-10.4 4.7-10.4 10.4 0 5.8 4.7 10.4 10.4 10.4H274c5.8 0 10.4-4.7 10.4-10.4 0-5.8-4.7-10.4-10.4-10.4h-12.3v-41.1H384c7.7 0 14-6.3 14-14V14c0-7.7-6.3-14-14-14zM282.4 331.5c0 4.7-3.8 8.4-8.4 8.4H122.8c-4.7 0-8.4-3.8-8.4-8.4 0-4.7 3.8-8.4 8.4-8.4H274c4.6-.1 8.4 3.7 8.4 8.4zM259.7 321H137.1v-41.1h122.5V321zM396 266c0 6.6-5.4 12-12 12H14c-6.6 0-12-5.4-12-12V14C2 7.4 7.4 2 14 2h370c6.6 0 12 5.4 12 12v252zM228.5 163.6c0 .6-.4 1-1 1h-13.3c-.6 0-1-.4-1-1 0-8.1-6.6-14.7-14.7-14.7s-14.7 6.6-14.7 14.7c0 .6-.4 1-1 1h-13.3c-.6 0-1-.4-1-1 0-16.6 13.5-30.1 30.1-30.1 16.4.1 29.9 13.5 29.9 30.1zM154.9 112c0 7.1-5.8 12.9-12.9 12.9s-12.9-5.8-12.9-12.9 5.8-12.9 12.9-12.9 12.9 5.8 12.9 12.9zm99.8 12.9c-7.1 0-12.9-5.8-12.9-12.9s5.8-12.9 12.9-12.9 12.9 5.8 12.9 12.9-5.8 12.9-12.9 12.9zm13.8.9c-.3 0-.5.1-.7.3-.7.8-17 18.8-17 33.4 0 13 6.3 20.1 17.7 20.1s17.7-7.2 17.7-20.1c0-14.5-16.3-32.6-17-33.4-.2-.1-.4-.3-.7-.3zm0 51.9c-10.4 0-15.7-6.1-15.7-18.1 0-12.1 12.5-27.4 15.7-31.2 3.2 3.7 15.7 19.1 15.7 31.2 0 12-5.3 18.1-15.7 18.1zM368.9 14.9H29c-7.7 0-14 6.3-14 14v199.4c0 7.7 6.3 14 14 14h339.9c7.7 0 14-6.3 14-14V28.9c0-7.7-6.3-14-14-14zm12 213.4c0 6.6-5.4 12-12 12H29c-6.6 0-12-5.4-12-12V28.9c0-6.6 5.4-12 12-12h339.9c6.6 0 12 5.4 12 12v199.4zM126.6 126.2c-.7.8-17 18.8-17 33.4 0 13 6.3 20.1 17.7 20.1 11.4 0 17.7-7.2 17.7-20.1 0-14.5-16.3-32.6-17-33.4-.3-.5-1-.5-1.4 0zm.7 51.5c-10.4 0-15.7-6.1-15.7-18.1 0-12.1 12.5-27.4 15.7-31.2 3.2 3.7 15.7 19.1 15.7 31.2.1 12-5.2 18.1-15.7 18.1z" style="fill:inherit"/></svg>