<svg width="220" height="220" viewBox="0 0 220 220" fill="none" xmlns="http://www.w3.org/2000/svg">
<path d="M73.7002 211.2C69.1627 211.2 65.2797 209.586 62.0512 206.357C58.8172 203.123 57.2002 199.238 57.2002 194.7C57.2002 190.163 58.8172 186.277 62.0512 183.043C65.2797 179.814 69.1627 178.2 73.7002 178.2C78.2377 178.2 82.1207 179.814 85.3492 183.043C88.5832 186.277 90.2002 190.163 90.2002 194.7C90.2002 199.238 88.5832 203.123 85.3492 206.357C82.1207 209.586 78.2377 211.2 73.7002 211.2ZM156.2 211.2C151.663 211.2 147.78 209.586 144.551 206.357C141.317 203.123 139.7 199.238 139.7 194.7C139.7 190.163 141.317 186.277 144.551 183.043C147.78 179.814 151.663 178.2 156.2 178.2C160.738 178.2 164.623 179.814 167.857 183.043C171.086 186.277 172.7 190.163 172.7 194.7C172.7 199.238 171.086 203.123 167.857 206.357C164.623 209.586 160.738 211.2 156.2 211.2ZM66.6877 79.2L86.4877 120.45H144.238L166.925 79.2H66.6877ZM73.7002 169.95C67.5127 169.95 62.8377 167.233 59.6752 161.799C56.5127 156.371 56.3752 150.975 59.2627 145.613L70.4002 125.4L40.7002 62.7H32.2439C29.9064 62.7 27.9814 61.908 26.4689 60.324C24.9564 58.7455 24.2002 56.7875 24.2002 54.45C24.2002 52.1125 24.9922 50.1518 26.5762 48.5678C28.1547 46.9893 30.1127 46.2 32.4502 46.2H45.8564C47.3689 46.2 48.8127 46.6125 50.1877 47.4375C51.5627 48.2625 52.5939 49.4313 53.2814 50.9438L58.8502 62.7H180.538C184.25 62.7 186.794 64.075 188.169 66.825C189.544 69.575 189.475 72.4625 187.963 75.4875L158.675 128.288C157.163 131.038 155.169 133.169 152.694 134.681C150.219 136.194 147.4 136.95 144.238 136.95H82.7752L73.7002 153.45H164.656C166.994 153.45 168.919 154.239 170.431 155.818C171.944 157.402 172.7 159.363 172.7 161.7C172.7 164.038 171.908 165.996 170.324 167.574C168.746 169.158 166.788 169.95 164.45 169.95H73.7002Z" fill="#A8CF45"/>
<path d="M76.1309 37.5229L69.2143 27.0759" stroke="#A8CF45" stroke-width="17" stroke-linecap="round"/>
<line x1="162.009" y1="37.4647" x2="168.539" y2="28.3559" stroke="#A8CF45" stroke-width="17" stroke-linecap="round"/>
<line x1="117.577" y1="32.6731" x2="118.473" y2="21.023" stroke="#A8CF45" stroke-width="17" stroke-linecap="round"/>
</svg>
