<svg width="734" height="530" viewBox="0 0 734 530" fill="none" xmlns="http://www.w3.org/2000/svg">
<path fill-rule="evenodd" clip-rule="evenodd" d="M712.761 0.358609C709.248 2.13586 707.382 4.9059 705.751 8.33807C703.598 12.8728 701.018 17.1842 698.958 21.7687C694.554 31.5604 690.408 41.6262 687.497 51.9296C686.101 56.8727 684.946 61.8938 684.238 66.9663C683.521 72.0971 683.57 77.2665 682.569 82.3691C680.636 92.2235 676.211 101.49 672.214 110.695C670.141 115.472 668.787 120.527 666.496 125.216C664.172 129.972 660.983 134.262 658.66 139.035C656.503 143.467 651.9 145.947 649.389 150.191C646.985 154.251 644.369 158.117 642.774 162.555C641.929 164.905 640.94 166.953 639.326 168.911C637.669 170.92 635.96 172.795 634.83 175.156C633.741 177.426 633.175 179.886 632.141 182.179C630.86 185.023 629.214 187.714 627.485 190.32C624.695 194.521 621.759 198.899 617.844 202.183C615.788 203.908 613.607 205.548 611.352 207.012C608.632 208.779 605.607 209.944 602.819 211.59C600.481 212.971 598.264 214.544 595.925 215.923C593.501 217.353 590.941 218.327 588.373 219.448C583.818 221.436 581.258 225.434 577.208 228.099C572.485 231.206 567.477 233.792 562.782 236.965C557.981 240.21 552.468 242.142 547.358 244.819C542.483 247.373 537.838 250.334 533.289 253.414C531.041 254.935 528.765 256.433 526.663 258.149C524.473 259.938 522.427 261.938 519.968 263.376C510.147 269.107 498.549 271.567 489.042 277.913C484.686 280.821 480 283.004 475.658 285.947C473.621 287.327 471.314 288.278 469.393 289.824C467.482 291.362 465.889 293.296 464.543 295.319C461.956 299.208 460.675 304.305 456.356 306.729C452.022 309.161 447.243 310.75 442.902 313.219C433.435 318.605 424.166 325.618 416.477 333.28C413.056 336.69 409.898 340.414 406.655 343.995C403.159 347.858 400.675 352.394 397.442 356.446C390.581 365.045 381.606 372.109 374.06 380.129C370.422 383.995 367.009 388.036 363.945 392.354C361.052 396.43 358.833 400.955 355.824 404.935C354.535 406.644 353.134 408.274 352.118 410.16C350.781 412.639 349.903 415.31 348.525 417.773C345.914 422.438 342.824 426.863 339.519 431.084C336.202 435.317 332.627 439.347 328.949 443.282C325.182 447.315 321.543 452.296 316.877 455.336C315.227 456.409 313.475 457.373 312.322 459.005C311.122 460.702 311.142 463.144 309.687 464.646C308.433 465.94 310.188 468.103 311.466 466.787C312.691 465.525 313.172 464.213 313.746 462.588C314.714 459.845 316.692 458.819 319.009 457.263C323.156 454.476 326.485 449.99 329.87 446.38C337.364 438.386 344.55 430.114 350.111 420.688C352.614 416.449 354.097 411.844 357.133 407.909C360.157 403.991 362.412 399.633 365.208 395.56C371.486 386.415 379.359 378.642 387.322 370.915C391.158 367.193 395.122 363.515 398.657 359.509C402.086 355.624 404.485 351.002 407.823 347.047C414.779 338.807 422.404 331.22 431.101 324.754C435.684 321.346 440.331 317.932 445.395 315.252C449.654 312.997 454.414 311.556 458.534 309.078C462.432 306.735 463.797 302.887 466.005 299.189C467.343 296.947 468.869 294.741 470.851 292.992C472.814 291.258 475.289 290.271 477.479 288.846C481.994 285.904 486.784 283.581 491.276 280.6C495.987 277.474 501.474 275.511 506.626 273.216C511.729 270.941 517.252 269.152 522.048 266.266C526.692 263.473 530.654 259.519 535.158 256.471C540.017 253.185 544.975 250.045 550.229 247.412C555.087 244.978 560.145 243.051 564.709 240.058C567.088 238.498 569.32 236.84 571.825 235.463C574.161 234.177 576.541 232.963 578.81 231.559C583.179 228.854 585.997 224.67 590.854 222.731C596.079 220.645 600.481 217.555 605.443 214.987C607.897 213.715 610.491 212.779 612.895 211.399C615.427 209.944 617.85 208.288 620.184 206.54C624.18 203.548 627.116 199.749 629.964 195.73C633.136 191.253 636.195 186.512 638.048 181.359C638.951 178.848 639.757 176.541 641.46 174.411C643.083 172.377 644.853 170.57 646.075 168.258C647.122 166.281 647.744 164.163 648.581 162.103C649.521 159.784 651.154 157.925 652.37 155.75C653.594 153.561 654.695 151.463 656.49 149.651C658.068 148.06 659.824 146.655 661.226 144.9C662.757 142.987 663.537 140.762 664.609 138.605C665.849 136.106 667.434 133.792 668.851 131.389C671.606 126.716 673.276 121.793 675.077 116.734C676.712 112.142 678.802 107.707 680.613 103.177C684.321 93.9032 687.183 84.3044 687.433 74.3486C687.702 63.625 690.158 53.0568 693.59 42.851C697.032 32.6159 700.963 22.3662 705.945 12.735C708.053 8.6581 709.065 4.31594 713.485 1.98899C714.519 1.44487 713.82 -0.174266 712.761 0.358609Z" fill="#94B38B"/>
<mask id="mask0_2228_1420" style="mask-type:alpha" maskUnits="userSpaceOnUse" x="400" y="348" width="334" height="182">
<path d="M400.207 348.312H733.383V529.206H400.207V348.312Z" fill="white"/>
</mask>
<g mask="url(#mask0_2228_1420)">
<path fill-rule="evenodd" clip-rule="evenodd" d="M407.792 396.703C408.235 396.247 408.463 395.944 408.755 395.724C409.693 395.018 410.63 394.304 411.612 393.659C418.096 389.394 425.159 386.217 432.364 383.331C435.496 382.076 438.726 381.055 441.867 379.819C446.974 377.809 452.302 376.688 457.743 376.196C462.639 375.753 467.567 375.647 472.481 375.403C472.628 375.396 472.781 375.496 473.121 375.61C472.618 375.816 472.313 375.962 471.992 376.068C467.816 377.444 463.829 379.253 459.857 381.1C456.598 382.614 453.28 383.995 449.781 384.921C440.675 387.329 432.094 390.907 424.17 395.919C423.193 396.538 422.231 396.759 421.079 396.732C417.388 396.644 413.694 396.651 410 396.632C409.359 396.628 408.718 396.672 407.792 396.703ZM426.243 396.78C426.492 396.539 426.586 396.394 426.721 396.325C429.294 395.023 431.823 393.63 434.457 392.458C439.468 390.225 444.692 388.564 450.02 387.186C452.269 386.605 454.501 385.887 456.641 385.001C460.563 383.375 464.403 381.56 468.292 379.857C472.475 378.028 476.777 376.512 481.234 375.458C482.419 375.178 483.666 375.011 484.882 375.023C498.265 375.145 511.591 375.992 524.807 378.142C525.23 378.21 525.648 378.306 526.068 378.387C526.077 378.5 526.086 378.613 526.097 378.726C525.476 378.899 524.855 379.074 524.232 379.244C523.089 379.553 521.942 379.852 520.8 380.168C516.553 381.344 512.612 383.288 508.506 384.816C505.429 385.961 502.294 386.972 499.142 387.903C495.902 388.86 492.595 389.599 489.342 390.517C482.058 392.576 475.018 395.225 468.322 398.738C463.867 401.073 459.466 403.476 455.43 406.468C454.495 407.161 453.536 407.82 452.562 408.514C452.144 408.222 451.783 407.984 451.438 407.725C450.109 406.736 448.783 405.745 447.461 404.748C441.532 400.279 434.865 397.626 427.374 397C427.051 396.973 426.735 396.878 426.243 396.78ZM453.874 409.435C454.164 409.182 454.278 409.051 454.421 408.965C456.815 407.526 459.142 405.965 461.623 404.687C466.207 402.326 470.851 400.069 475.525 397.881C481.582 395.045 488.006 393.186 494.487 391.553C500.765 389.971 506.945 388.127 512.883 385.588C517.939 383.427 523.12 381.669 528.516 380.525C531.363 379.92 534.211 379.423 537.112 380.3C538.031 380.578 539.009 380.673 539.959 380.858C549.028 382.621 558.04 384.614 566.811 387.522C567.25 387.668 567.679 387.845 568.365 388.104C567.833 388.31 567.576 388.445 567.3 388.509C564.095 389.268 560.875 389.969 557.683 390.775C551.439 392.349 545.425 394.555 539.715 397.467C535.511 399.61 531.437 401.995 527.289 404.242C522.64 406.758 517.994 409.282 513.304 411.723C509.413 413.748 505.621 415.897 502.405 418.883C501.163 420.035 499.962 421.23 498.72 422.383C496.941 424.04 494.942 425.425 492.938 426.862C492.655 426.659 492.434 426.526 492.242 426.36C488.72 423.289 484.667 421.077 480.307 419.362C475.438 417.447 470.369 416.145 465.345 414.703C463.74 414.243 462.133 413.785 460.555 413.249C458.122 412.425 456.003 411.064 453.874 409.435ZM494.265 428.258C494.854 427.821 495.29 427.474 495.752 427.16C498.027 425.617 500.24 423.998 502.183 422.057C505.444 418.8 509.336 416.42 513.415 414.267C519.751 410.923 526.09 407.578 532.338 404.079C539.455 400.093 546.79 396.615 554.648 394.248C557.086 393.512 559.52 392.75 561.993 392.141C565.274 391.331 568.586 390.637 571.896 389.948C572.516 389.819 573.301 389.742 573.816 390.003C574.646 390.424 575.54 390.568 576.378 390.899C581.23 392.819 586.072 394.766 590.914 396.713C591.18 396.821 591.412 397.008 591.747 397.212C591.322 397.488 591.01 397.716 590.674 397.905C587.138 399.904 583.559 401.831 580.07 403.904C571.535 408.973 563.318 414.472 556 421.156C549.744 426.867 543.457 432.547 537.254 438.313C533.334 441.955 529.706 445.868 526.656 450.255C526.392 450.635 526.088 450.989 525.814 451.339C525.532 451.264 525.358 451.235 525.197 451.172C520.632 449.351 516.126 447.406 511.805 445.076C509.48 443.823 507.292 442.366 505.497 440.455C501.759 436.472 498.094 432.424 494.265 428.258ZM527.375 451.983C527.55 451.675 527.652 451.441 527.801 451.241C530.512 447.589 533.438 444.109 536.724 440.934C544.003 433.903 551.616 427.219 559.534 420.888C570.141 412.409 582.031 405.798 593.809 399.038C594.82 398.459 595.712 398.528 596.658 399.421C596.29 399.838 595.943 400.168 595.673 400.551C594.902 401.641 593.975 402.674 593.446 403.872C591.933 407.294 590.351 410.716 589.222 414.266C586.383 423.193 583.797 432.194 581.071 441.155C580.108 444.32 579.144 447.491 577.982 450.588C576.275 455.138 573.589 459.148 570.548 462.973C568.148 465.99 565.214 468.256 561.774 470.01C560.893 470.459 560.235 470.435 559.474 469.931C557.254 468.462 554.981 467.068 552.808 465.537C545.321 460.263 537.495 455.601 528.748 452.552C528.302 452.397 527.874 452.192 527.375 451.983ZM562.862 471.464C563.55 471.085 564.001 470.829 564.459 470.583C566.784 469.338 568.957 467.876 570.775 465.99C575.173 461.432 578.606 456.24 580.659 450.317C583.32 442.64 585.727 434.879 588.213 427.145C590.515 419.987 592.43 412.701 595.66 405.849C596.308 404.474 597.022 403.156 598.074 402.035C598.266 401.831 598.525 401.687 598.809 401.474C598.961 401.747 599.083 401.921 599.161 402.112C600.304 404.899 601.475 407.676 602.574 410.479C605.585 418.159 607.681 426.076 608.975 434.198C609.996 440.607 611.512 446.908 613.512 453.092C615.844 460.309 618.987 467.202 622.404 473.986C623.921 476.998 625.541 479.94 627.835 482.467C630.224 485.1 632.666 487.688 635.086 490.294C635.403 490.635 635.727 490.97 636.221 491.488C635.64 491.679 635.321 491.812 634.989 491.888C629.967 493.049 624.957 492.932 619.963 491.729C616.253 490.834 612.842 489.252 609.549 487.402C606.192 485.517 602.835 483.631 599.481 481.741C595.481 479.486 591.222 477.906 586.686 477.042C582.41 476.228 578.128 475.446 573.855 474.62C570.613 473.994 567.408 473.229 564.31 472.085C563.885 471.929 563.477 471.729 562.862 471.464ZM628.786 479.935C628.051 479.099 627.459 478.113 626.952 477.122C624.322 471.983 621.668 466.855 619.465 461.518C616.45 454.212 614.133 446.714 612.772 438.946C612.143 435.356 611.561 431.758 610.932 428.169C609.781 421.59 607.759 415.249 605.341 409.021C604.626 407.178 603.8 405.374 603.034 403.549C602.878 403.177 602.767 402.786 602.606 402.323C605.708 402.999 630.817 418.047 632.407 420.098C631.998 420.765 631.467 421.379 631.214 422.087C630.265 424.746 629.759 427.505 630.159 430.311C630.627 433.591 631.608 436.764 632.915 439.822C635.235 445.251 638.245 450.35 640.974 455.582C642.288 458.104 643.744 460.551 644.601 463.282C645.439 465.947 646.408 468.573 647.265 471.232C647.646 472.415 648.062 473.624 648.171 474.846C648.829 482.199 645.664 487.293 638.353 490.598C635.143 487.032 631.93 483.511 628.786 479.935ZM612.022 402.457C611.686 402.267 611.368 402.049 611.04 401.845C611.056 401.755 611.073 401.665 611.09 401.576C611.512 401.587 611.936 401.582 612.358 401.614C613.892 401.724 615.424 401.919 616.96 401.954C627.661 402.197 638.264 403.505 648.866 404.772C660.33 406.143 671.525 408.825 682.664 411.728C684.317 412.159 685.93 412.752 687.537 413.336C690.628 414.46 693.703 415.63 696.785 416.779C697.309 416.974 697.836 417.159 698.445 417.381C698.056 418.697 697.38 419.762 696.355 420.506C695.095 421.419 693.759 422.273 692.354 422.948C689.706 424.223 686.844 424.269 683.961 424.024C678.238 423.537 672.674 422.34 667.186 420.692C662.648 419.33 658.069 418.085 653.469 416.941C651.221 416.382 648.893 416.025 646.58 415.837C643.196 415.563 639.801 415.559 636.695 417.286C636.486 417.402 636.107 417.322 635.845 417.23C635.565 417.129 635.331 416.908 635.077 416.737C627.572 411.701 619.912 406.902 612.022 402.457ZM697.482 414.477C692.265 412.186 687.114 409.736 681.571 408.231C674.019 406.182 666.415 404.321 658.688 403.043C646.401 401.008 634 399.926 621.561 399.24C616.16 398.942 610.756 398.7 605.352 398.438C604.424 398.393 603.555 398.236 602.881 397.504C603.016 397.358 603.091 397.247 603.193 397.172C603.367 397.043 603.556 396.934 603.743 396.822C607.81 394.381 612.189 392.595 616.648 390.983C621.714 389.153 626.439 386.715 630.754 383.547C632.193 382.491 633.62 381.404 634.938 380.212C637.81 377.613 640.023 374.564 641.168 370.853C641.35 370.866 641.491 370.845 641.603 370.89C642.255 371.148 642.907 371.411 643.548 371.695C649.054 374.134 654.266 377.081 659.307 380.326C663.327 382.915 667.587 385.042 672.099 386.702C673.91 387.368 675.709 388.078 677.473 388.855C682.866 391.231 687.696 394.402 691.686 398.702C695.087 402.367 697.382 406.618 698.567 411.423C698.843 412.54 699.048 413.68 698.822 415.046C698.272 414.813 697.875 414.65 697.482 414.477ZM638.372 371.689C638.252 371.966 638.116 372.236 637.963 372.497C636.587 374.862 634.953 377.036 632.842 378.833C628.944 382.153 624.622 384.867 619.928 386.973C616.614 388.46 613.198 389.728 609.841 391.127C606.807 392.393 603.824 393.758 601.134 395.659C599.982 396.472 599.959 396.453 598.602 395.468C599.481 393.072 600.268 390.573 601.304 388.177C602.971 384.322 604.387 380.436 604.572 376.195C604.768 371.736 605.01 367.287 603.797 362.681C604.267 362.731 604.572 362.726 604.856 362.799C611.468 364.475 618.199 365.539 624.948 366.517C629.129 367.123 633.268 367.947 637.285 369.275C638.916 369.813 639.057 370.113 638.372 371.689ZM602.702 363.669C603.021 367.915 602.876 372.149 602.396 376.376C602.163 378.435 601.637 380.408 600.899 382.355C599.424 386.25 597.328 389.92 596.403 394.018C596.363 394.195 596.168 394.339 596.062 394.475C595.318 394.327 595.119 393.777 594.895 393.271C593.58 390.322 592.326 387.346 590.957 384.421C589.388 381.07 587.892 377.666 585.722 374.628C583.763 371.887 581.74 369.179 579.607 366.566C576.122 362.3 572.382 358.261 567.851 354.995C567.615 354.825 567.422 354.599 567.209 354.399C567.254 354.301 567.298 354.204 567.343 354.108C567.943 354.162 568.544 354.204 569.142 354.27C574.228 354.82 579.225 355.841 584.153 357.152C589.842 358.664 595.5 360.287 601.174 361.858C602.582 362.248 602.595 362.239 602.702 363.669ZM565.186 354.932C567.375 357.153 569.817 359.136 572.06 361.31C575.495 364.64 578.699 368.174 581.338 372.153C582.625 374.095 583.963 376.025 585.016 378.089C586.818 381.616 588.413 385.245 590.099 388.83C590.662 390.029 591.238 391.223 591.817 392.437C591.661 392.489 591.566 392.555 591.5 392.536C591.125 392.421 590.753 392.293 590.386 392.154C583.65 389.624 576.91 387.105 570.188 384.544C569.389 384.239 568.554 383.827 567.954 383.251C566.174 381.537 564.51 379.706 562.785 377.937C560.726 375.825 558.789 373.574 556.55 371.658C552.221 367.953 547.813 364.32 543.258 360.882C538.761 357.491 533.898 354.619 528.625 352.471C528.225 352.308 527.834 352.126 527.439 351.953C527.463 351.86 527.487 351.765 527.511 351.672C528.503 351.816 529.501 351.925 530.485 352.11C537.208 353.37 544.003 353.784 550.833 353.807C554.613 353.82 558.395 353.838 562.175 353.822C563.344 353.816 564.272 354.006 565.186 354.932ZM524.226 352.996C530.67 355.32 536.505 358.745 542.119 362.542C543.343 363.37 544.424 364.394 545.562 365.339C546.264 365.922 546.928 366.552 547.646 367.115C553.154 371.426 558.034 376.35 562.584 381.599C562.689 381.719 562.764 381.864 562.851 381.998C562.803 382.071 562.753 382.145 562.704 382.219C561.14 381.809 559.579 381.383 558.01 380.99C548.843 378.694 539.555 376.946 530.209 375.553C527.118 375.092 524.546 374.02 522.184 372.091C516.264 367.261 509.649 363.553 502.446 360.845C499.123 359.597 495.793 358.361 492.454 357.154C491.646 356.863 490.784 356.71 489.659 356.419C490.134 356.263 490.317 356.167 490.509 356.146C495.506 355.577 500.365 354.444 505.151 352.936C509.232 351.651 513.447 351.046 517.745 351.079C518.205 351.083 518.678 351.208 519.12 351.354C519.737 351.555 520.316 351.87 520.935 352.063C522.024 352.399 523.158 352.61 524.226 352.996ZM492.984 359.087C497.84 360.655 502.403 362.921 506.906 365.277C511.268 367.559 515.154 370.532 519.181 373.3C519.343 373.411 519.471 373.57 519.63 373.721C519.483 373.812 519.413 373.894 519.346 373.891C518.995 373.877 518.645 373.849 518.296 373.813C503.259 372.295 488.2 371.66 473.127 373.098C469.605 373.433 466.365 373.044 463.093 371.815C459.123 370.324 454.975 369.576 450.687 369.764C450.568 369.768 450.446 369.705 450.327 369.674C450.303 369.579 450.28 369.484 450.256 369.389C451.826 368.655 453.395 367.916 454.968 367.185C458.062 365.744 461.19 364.369 464.245 362.853C469.169 360.413 474.185 358.25 479.703 357.449C481.176 357.235 482.718 356.822 484.137 357.047C487.123 357.521 490.116 358.161 492.984 359.087ZM450.197 371.469C453.493 371.977 456.757 372.688 460.031 373.333C460.401 373.405 460.751 373.57 461.111 373.692C461.102 373.806 461.093 373.921 461.084 374.035C448.459 374.866 436.843 379.099 425.39 383.967C425.573 383.637 425.796 383.39 426.062 383.203C431.948 379.077 437.841 374.963 444.573 372.183C445.057 371.984 445.511 371.593 446.001 371.553C447.396 371.439 448.835 371.258 450.197 371.469ZM400.321 399.698C400.59 400.356 401.161 400.563 401.81 400.543C402.378 400.524 402.951 400.441 403.508 400.327C407.062 399.595 410.647 399.441 414.268 399.612C417.957 399.788 421.652 399.841 425.343 399.999C432.775 400.316 439.46 402.66 445.368 407.088C447.846 408.945 450.359 410.755 452.834 412.614C455.734 414.792 458.963 416.29 462.485 417.251C465.875 418.177 469.264 419.119 472.609 420.187C475.492 421.107 478.351 422.124 481.15 423.262C485.597 425.069 489.467 427.725 492.698 431.231C495.373 434.133 498.076 437.013 500.699 439.959C504.069 443.745 508.073 446.67 512.691 448.863C517.565 451.175 522.474 453.414 527.58 455.181C536.008 458.097 543.574 462.503 550.791 467.549C552.151 468.499 553.505 469.457 554.863 470.408C558.26 472.785 561.974 474.571 566.006 475.604C569.745 476.563 573.548 477.296 577.338 478.061C580.439 478.688 583.565 479.198 586.673 479.793C590.774 480.578 594.608 482.063 598.209 484.114C601.592 486.04 604.946 488.014 608.318 489.958C610.9 491.447 613.572 492.753 616.413 493.719C622.232 495.699 628.203 496.215 634.234 495.085C639.375 494.121 643.933 491.809 647.336 487.886C651.022 483.636 652.224 478.535 650.892 473.159C649.778 468.666 648.189 464.277 646.608 459.911C645.853 457.825 644.631 455.899 643.619 453.9C641.013 448.751 638.042 443.761 635.985 438.368C634.949 435.648 634.189 432.801 633.603 429.952C633.158 427.79 633.673 425.596 634.465 423.519C634.659 423.008 634.995 422.549 635.364 421.893C635.991 422.313 636.464 422.615 636.922 422.939C643.812 427.798 650.409 433.017 656.68 438.607C659.366 441 661.729 443.742 664.189 446.37C669.111 451.628 674.115 456.82 678.878 462.213C688.842 473.496 698.316 485.163 706.748 497.592C711.603 504.748 715.905 512.231 719.958 519.846C723.222 525.979 726.232 532.233 728.835 538.654C730.969 543.916 732.825 549.287 734.746 554.63C735.32 556.226 735.922 557.771 737.186 558.985C737.307 559.103 737.401 559.253 737.496 559.396C738.499 560.911 739.979 561.249 741.551 560.315C743.141 559.37 744.003 557.938 744.074 556.174C744.13 554.819 744.015 553.426 743.747 552.093C742.94 548.087 741.733 544.183 740.219 540.377C738.882 537.02 737.441 533.701 736.064 530.358C733.268 523.573 729.671 517.195 725.869 510.906C716.143 494.815 704.517 480.07 692.182 465.847C685.474 458.112 678.022 451.047 670.315 444.251C670.119 444.078 669.921 443.907 669.718 443.743C662.578 437.959 655.46 432.148 648.286 426.404C645.533 424.2 642.649 422.149 639.828 420.026C639.491 419.772 639.172 419.498 638.612 419.047C639.31 418.884 639.748 418.749 640.195 418.68C643.77 418.128 647.325 418.374 650.8 419.238C655.66 420.446 660.497 421.752 665.302 423.152C669.735 424.444 674.157 425.741 678.749 426.38C681.928 426.821 685.11 427.251 688.339 426.978C692.115 426.659 695.384 425.18 698.2 422.772C700.593 420.728 701.613 418.042 701.672 414.985C701.734 411.74 700.778 408.724 699.446 405.797C695.706 397.581 689.243 391.949 681.276 387.812C678.874 386.565 676.34 385.534 673.798 384.575C668.889 382.725 664.253 380.393 659.84 377.599C657.185 375.918 654.459 374.332 651.7 372.816C643.212 368.152 634.165 365.049 624.489 363.774C613.947 362.384 603.648 359.991 593.495 356.919C589.21 355.622 584.84 354.588 580.493 353.499C572.162 351.41 563.665 350.87 555.098 350.984C546.86 351.094 538.657 350.73 530.518 349.323C527.754 348.845 524.932 348.636 522.126 348.443C517.41 348.12 512.711 348.375 508.094 349.404C505.952 349.882 503.847 350.535 501.753 351.193C497.33 352.584 492.762 353.207 488.178 353.779C485.039 354.171 481.889 354.504 478.767 355.005C474.886 355.63 471.141 356.778 467.601 358.452C462.182 361.015 456.784 363.621 451.425 366.299C446.615 368.702 441.821 371.142 437.115 373.73C434.095 375.391 431.18 377.253 428.343 379.199C423.881 382.258 419.288 385.107 414.599 387.817C411.374 389.681 408.377 391.836 405.573 394.264C404.163 395.486 402.648 396.595 401.182 397.755C401.045 397.864 400.909 397.971 400.777 398.085C400.273 398.527 400.056 399.049 400.321 399.698Z" fill="#4C544F"/>
</g>
</svg>
