<svg width="64" height="64" viewBox="0 0 64 64" fill="none" xmlns="http://www.w3.org/2000/svg">
<path d="M5.3335 24C5.3335 31.0724 8.14301 37.8552 13.144 42.8562C18.145 47.8571 24.9277 50.6667 32.0002 50.6667C39.0726 50.6667 45.8554 47.8571 50.8563 42.8562C55.8573 37.8552 58.6668 31.0724 58.6668 24" stroke="#A8CF45" stroke-width="4" stroke-linecap="round" stroke-linejoin="round"/>
<path d="M58.6668 24C51.5944 24 44.8116 26.8095 39.8106 31.8105C34.8097 36.8115 32.0002 43.5942 32.0002 50.6667C32.0002 47.1647 31.3104 43.6971 29.9703 40.4618C28.6302 37.2264 26.6659 34.2867 24.1897 31.8105C21.7134 29.3343 18.7737 27.37 15.5384 26.0299C12.303 24.6898 8.83541 24 5.3335 24" stroke="#A8CF45" stroke-width="4" stroke-linecap="round" stroke-linejoin="round"/>
<path d="M39.9735 30.6666C40.1588 26.9559 39.5425 23.2488 38.1666 19.7976C36.7908 16.3464 34.6876 13.2321 32.0002 10.6666C29.3127 13.2321 27.2095 16.3464 25.8337 19.7976C24.4578 23.2488 23.8415 26.9559 24.0268 30.6666" stroke="#A8CF45" stroke-width="4" stroke-linecap="round" stroke-linejoin="round"/>
</svg>
