<svg width="64" height="64" viewBox="0 0 64 64" fill="none" xmlns="http://www.w3.org/2000/svg">
<path d="M14.667 54.6667C20.223 52.28 25.4563 50.9907 30.367 50.8027C35.2763 50.6133 41.599 51.456 49.3337 53.3333" stroke="#A8CF45" stroke-width="4" stroke-linecap="round"/>
<path d="M30.7267 58.6667C29.704 46.08 30.128 36.3027 32 29.3334" stroke="#A8CF45" stroke-width="4" stroke-linecap="round"/>
<path d="M32.0001 30.9013C34.1201 22.8773 37.8535 18.092 43.2001 16.5467C48.5455 15 53.7015 15.708 58.6668 18.672C58.6921 25.1947 55.8601 29.9733 50.1735 33.0067C44.4855 36.0413 38.4268 35.34 32.0001 30.9013ZM31.7228 29.4853C32.8335 19.9027 30.6068 13.1547 25.0428 9.23868C19.4801 5.32268 13.0348 4.44802 5.71212 6.61335C4.43346 15.4533 6.38945 22.1373 11.5775 26.6653C16.7668 31.1933 23.4815 32.1347 31.7228 29.4853Z" stroke="#A8CF45" stroke-width="4" stroke-linejoin="round"/>
</svg>
