<svg width="64" height="64" viewBox="0 0 64 64" fill="none" xmlns="http://www.w3.org/2000/svg">
<path d="M18.25 45.7501H10.75V53.25M53.2499 53.25H45.7499V45.7501M45.7499 18.2501H53.2499V10.7501M10.75 10.7501H18.25V18.2501" stroke="#A8CF45" stroke-width="4" stroke-linecap="round" stroke-linejoin="round"/>
<path d="M18.25 11.1175C11.4725 15.5887 7 23.2725 7 32C7 33.275 7.095 34.5262 7.27875 35.75M35.7499 56.7199C34.5087 56.9065 33.2552 57.0001 32 56.9999C23.2725 56.9999 15.5887 52.5274 11.1175 45.7499M56.7199 28.25C56.9049 29.4737 56.9999 30.725 56.9999 32C56.9999 40.7274 52.5274 48.4112 45.7499 52.8824M28.25 7.27875C29.4913 7.09257 30.7448 6.9994 32 7C40.7274 7 48.4112 11.4725 52.8824 18.25" stroke="#A8CF45" stroke-width="4" stroke-linecap="round" stroke-linejoin="round"/>
</svg>
