<svg width="64" height="64" viewBox="0 0 64 64" fill="none" xmlns="http://www.w3.org/2000/svg">
<path d="M54.9377 51.5563L43.5189 22V11.125H48.0002V6.875H16.0002V11.125H20.4814V22L9.0627 51.5563C8.8877 52.0188 8.79395 52.5062 8.79395 53C8.79395 55.2062 10.5877 57 12.7939 57H51.2064C51.7002 57 52.1877 56.9062 52.6502 56.7313C54.7127 55.9375 55.7377 53.6188 54.9377 51.5563ZM24.7314 22.7938V11.25H39.2689V22.7938L44.9502 37.5C43.6564 37.1688 42.3189 37 40.9564 37C37.1314 37 33.5064 38.3438 30.6252 40.75C28.4987 42.5264 25.8148 43.4977 23.0439 43.4938C21.0002 43.4938 19.0377 42.975 17.3064 42.0125L24.7314 22.7938ZM13.1564 52.75L15.7627 46.0125C17.9939 47.1437 20.4752 47.75 23.0502 47.75C26.8752 47.75 30.5002 46.4062 33.3814 44C35.5002 42.2375 38.1502 41.2562 40.9627 41.2562C43.1502 41.2562 45.2377 41.85 47.0627 42.95L50.8439 52.75H13.1564Z" fill="#A8CF45"/>
<path d="M38 26.1825L35.8175 24L32 27.8175L28.1825 24L26 26.1825L29.8175 30L26 33.8175L28.1825 36L32 32.1825L35.8175 36L38 33.8175L34.1825 30L38 26.1825Z" fill="#A8CF45"/>
</svg>
