<svg width="1921" height="111" viewBox="0 0 1921 111" fill="none" xmlns="http://www.w3.org/2000/svg">
<mask id="mask0_2011_4772" style="mask-type:alpha" maskUnits="userSpaceOnUse" x="-1" y="-1" width="1922" height="113">
<path d="M0 111V44.4781C16.7918 47.2633 63.3836 53.4763 115.417 56.0472C167.45 58.6181 531.597 28.8386 707.167 13.6274C895.915 5.27203 1071.65 39.7863 1221.12 21.0187C1370.59 2.2512 1749.32 -0.726747 1920 0.130218V104.573L0 111Z" fill="#E7E8D1" stroke="#E7E8D1"/>
</mask>
<g mask="url(#mask0_2011_4772)">
<mask id="mask1_2011_4772" style="mask-type:alpha" maskUnits="userSpaceOnUse" x="0" y="8" width="1921" height="3">
<path d="M0 8.35547H1920.3V10.5264H0V8.35547Z" fill="white"/>
</mask>
<g mask="url(#mask1_2011_4772)">
<path fill-rule="evenodd" clip-rule="evenodd" d="M1000.71 9.96833C1000.43 9.96768 1000.23 9.96768 1000.03 9.96704C998.957 9.96768 997.677 9.96833 996.71 9.96897L1000.71 9.96833Z" fill="#829577"/>
<path fill-rule="evenodd" clip-rule="evenodd" d="M1946.77 9.41333C1945.47 9.41668 1944.06 9.42058 1942.62 9.42559L1946.77 9.39941V9.38214L1915.81 9.52363C1899.76 9.54647 1879.08 9.60664 1860.77 9.64563C1842.49 9.68518 1826.58 9.70357 1819.93 9.68184C1819.93 9.68184 1802.68 9.69799 1783.44 9.71638C1765.51 9.73588 1745.86 9.75983 1736.88 9.79381C1745.04 9.75259 1711.5 9.75983 1721.75 9.70858C1703.89 9.76874 1651.11 9.82333 1629.99 9.77041L1633.97 9.7654C1594.91 9.74646 1561.55 9.72919 1529.14 9.71359C1496.67 9.69465 1465.22 9.6746 1430.14 9.60719C1433.3 9.66011 1396.23 9.59327 1405.35 9.6668C1332.68 9.65232 1272.97 9.39551 1246.63 9.5643C1213.57 9.53923 1207.48 9.47517 1190.41 9.44732L1198.29 9.44564C1136.36 9.39495 1118.39 9.37768 1072.39 9.32365C1049.43 9.31808 1045.76 9.40498 1004.64 9.33925C1017.96 9.31696 1001.14 9.30582 985.751 9.28911C995.589 9.29412 998.638 9.2841 978.447 9.23842C975.597 9.24622 971.198 9.24844 967.08 9.24956C966.911 9.24622 966.106 9.24343 966.521 9.24009C940.826 9.22505 945.291 9.2412 957.217 9.25958C956.614 9.26404 957.615 9.2724 961.295 9.28632C934.664 9.21112 886.979 9.20945 883.793 9.14316C806.56 9.08132 751.334 9.03787 687.066 8.98718C679.865 8.94484 694.908 8.9376 713.573 8.95097L667.969 8.89972C668.391 8.85404 694.181 8.90919 708.23 8.91922C653.995 8.76992 596.263 8.83733 532.625 8.69751L519.399 8.71923L515.607 8.70865C515.792 8.7287 501.493 8.7404 492.049 8.73706C483.061 8.68859 492.724 8.64291 461.183 8.6184C436.264 8.55601 390.307 8.58387 357.638 8.59668C375.25 8.60949 369.561 8.62954 361.983 8.64124C346.223 8.6379 337.136 8.59055 324.853 8.61785L323.687 8.57774C322.373 8.59612 313.787 8.61395 304.244 8.64069C292.413 8.673 279.125 8.71366 276.228 8.73204C267.199 8.71366 300.643 8.63679 304.597 8.60336C272.884 8.67132 265.059 8.70252 257.169 8.71979C249.306 8.73483 241.409 8.77382 210.043 8.80836C176.578 8.85738 216.136 8.86073 200.122 8.91142C170.529 8.92702 141.584 8.83677 107.691 8.63901L118.331 8.73873C90.4868 8.62397 68.2182 8.52092 48.1511 8.46465C28.0771 8.40783 10.28 8.38054 -8.59379 8.35547C-14.7216 8.36048 -20.6711 8.36828 -26.4731 8.37719V8.92925C-12.3589 8.92535 1.24432 8.92813 14.5081 8.9415C31.4136 8.95766 47.5715 8.98718 63.7295 9.04734C79.9012 9.10528 96.0111 9.17937 112.491 9.25179C128.965 9.3242 145.805 9.39439 163.417 9.43673C181.015 9.48241 199.46 9.48575 218.615 9.45344C237.805 9.42336 257.831 9.3593 279.064 9.29802C300.341 9.23786 322.668 9.18104 346.905 9.19218C432.64 9.23006 486.878 9.32198 541.894 9.40275C596.918 9.48742 652.716 9.57934 741.657 9.68407C784.075 9.74646 827.93 9.80217 871.565 9.84729C915.177 9.88851 958.555 9.92862 1000.03 9.96706C1039.43 9.93642 1108.94 10.0835 1155.54 10.0723L1173.58 10.1331C1189.65 10.1292 1208.49 10.1353 1224.61 10.1748L1223.59 10.186C1247.58 10.1804 1274.62 10.2283 1286.54 10.2255L1285.53 10.2367L1314.66 10.2623L1309.65 10.274C1351.48 10.2857 1394.58 10.3303 1432.54 10.386L1429.42 10.3325C1469.99 10.4038 1497.73 10.4222 1524.44 10.44C1551.19 10.4578 1577.01 10.4723 1613.74 10.5147L1612.71 10.5264C1659.14 10.4706 1695.76 10.4757 1732.8 10.4734C1751.31 10.4712 1769.9 10.4673 1789.82 10.4472C1809.78 10.425 1831.04 10.3977 1855.01 10.3202C1843.08 10.3581 1860.15 10.3358 1859.19 10.3503C1881.24 10.2974 1903.98 10.2278 1921.22 10.1637C1932.82 10.1202 1941.94 10.0796 1946.77 10.0428V9.41333Z" fill="#829577"/>
</g>
<mask id="mask2_2011_4772" style="mask-type:alpha" maskUnits="userSpaceOnUse" x="0" y="15" width="1921" height="3">
<path d="M0 15.668H1920.3V17.8389H0V15.668Z" fill="white"/>
</mask>
<g mask="url(#mask2_2011_4772)">
<path fill-rule="evenodd" clip-rule="evenodd" d="M1000.71 17.2808C1000.43 17.2802 1000.23 17.2802 1000.03 17.2795C998.957 17.2802 997.677 17.2808 996.71 17.2815L1000.71 17.2808Z" fill="#829577"/>
<path fill-rule="evenodd" clip-rule="evenodd" d="M1946.77 16.7258C1945.47 16.7292 1944.06 16.7331 1942.62 16.7381L1946.77 16.7119V16.6946L1915.81 16.8361C1899.76 16.859 1879.08 16.9191 1860.77 16.9581C1842.49 16.9977 1826.58 17.0161 1819.93 16.9943C1819.93 16.9943 1802.68 17.0105 1783.44 17.0289C1765.51 17.0484 1745.86 17.0723 1736.88 17.1063C1745.04 17.0651 1711.5 17.0723 1721.75 17.0211C1703.89 17.0812 1651.11 17.1358 1629.99 17.0829L1633.97 17.0779C1594.91 17.059 1561.55 17.0417 1529.14 17.0261C1496.67 17.0072 1465.22 16.9871 1430.14 16.9197C1433.3 16.9726 1396.23 16.9058 1405.35 16.9793C1332.68 16.9648 1272.97 16.708 1246.63 16.8768C1213.57 16.8517 1207.48 16.7877 1190.41 16.7598L1198.29 16.7581C1136.36 16.7075 1118.39 16.6902 1072.39 16.6361C1049.43 16.6306 1045.76 16.7175 1004.64 16.6517C1017.96 16.6295 1001.14 16.6183 985.751 16.6016C995.589 16.6066 998.638 16.5966 978.447 16.5509C975.597 16.5587 971.198 16.5609 967.08 16.5621C966.911 16.5587 966.106 16.5559 966.521 16.5526C940.826 16.5375 945.291 16.5537 957.217 16.5721C956.614 16.5765 957.615 16.5849 961.295 16.5988C934.664 16.5236 886.979 16.5219 883.793 16.4557C806.56 16.3938 751.334 16.3504 687.066 16.2997C679.865 16.2573 694.908 16.2501 713.573 16.2635L667.969 16.2122C668.391 16.1665 694.181 16.2217 708.23 16.2317C653.995 16.0824 596.263 16.1498 532.625 16.01L519.399 16.0317L515.607 16.0211C515.792 16.0412 501.493 16.0529 492.049 16.0496C483.061 16.0011 492.724 15.9554 461.183 15.9309C436.264 15.8685 390.307 15.8964 357.638 15.9092C375.25 15.922 369.561 15.942 361.983 15.9537C346.223 15.9504 337.136 15.9031 324.853 15.9303L323.687 15.8902C322.373 15.9086 313.787 15.9264 304.244 15.9532C292.413 15.9855 279.125 16.0262 276.228 16.0445C267.199 16.0262 300.643 15.9493 304.597 15.9159C272.884 15.9838 265.059 16.015 257.169 16.0323C249.306 16.0473 241.409 16.0863 210.043 16.1209C176.578 16.1699 216.136 16.1732 200.122 16.2239C170.529 16.2395 141.584 16.1493 107.691 15.9515L118.331 16.0512C90.4868 15.9365 68.2182 15.8334 48.1511 15.7772C28.0771 15.7203 10.28 15.693 -8.59379 15.668C-14.7216 15.673 -20.6711 15.6808 -26.4731 15.6897V16.2417C-12.3589 16.2378 1.24432 16.2406 14.5081 16.254C31.4136 16.2702 47.5715 16.2997 63.7295 16.3598C79.9012 16.4178 96.0111 16.4919 112.491 16.5643C128.965 16.6367 145.805 16.7069 163.417 16.7492C181.015 16.7949 199.46 16.7983 218.615 16.7659C237.805 16.7359 257.831 16.6718 279.064 16.6105C300.341 16.5504 322.668 16.4935 346.905 16.5047C432.64 16.5426 486.878 16.6345 541.894 16.7153C596.918 16.7999 652.716 16.8918 741.657 16.9966C784.075 17.059 827.93 17.1147 871.565 17.1598C915.177 17.201 958.555 17.2411 1000.03 17.2796C1039.43 17.2489 1108.94 17.396 1155.54 17.3848L1173.58 17.4456C1189.65 17.4417 1208.49 17.4478 1224.61 17.4873L1223.59 17.4985C1247.58 17.4929 1274.62 17.5408 1286.54 17.538L1285.53 17.5492L1314.66 17.5748L1309.65 17.5865C1351.48 17.5982 1394.58 17.6428 1432.54 17.6985L1429.42 17.645C1469.99 17.7163 1497.73 17.7347 1524.44 17.7525C1551.19 17.7703 1577.01 17.7848 1613.74 17.8272L1612.71 17.8389C1659.14 17.7831 1695.76 17.7882 1732.8 17.7859C1751.31 17.7837 1769.9 17.7798 1789.82 17.7597C1809.78 17.7375 1831.04 17.7102 1855.01 17.6327C1843.08 17.6706 1860.15 17.6483 1859.19 17.6628C1881.24 17.6099 1903.98 17.5403 1921.22 17.4762C1932.82 17.4327 1941.94 17.3921 1946.77 17.3553V16.7258Z" fill="#829577"/>
</g>
<mask id="mask3_2011_4772" style="mask-type:alpha" maskUnits="userSpaceOnUse" x="0" y="23" width="920" height="2">
<path d="M0 23.5464H919.508V24.5859H0V23.5464Z" fill="white"/>
</mask>
<g mask="url(#mask3_2011_4772)">
<path fill-rule="evenodd" clip-rule="evenodd" d="M479.177 24.3187C479.044 24.3184 478.945 24.3184 478.852 24.3181C478.336 24.3184 477.724 24.3187 477.261 24.319L479.177 24.3187Z" fill="#829577"/>
<path fill-rule="evenodd" clip-rule="evenodd" d="M932.184 24.0529C931.56 24.0545 930.887 24.0564 930.198 24.0588L932.184 24.0463V24.038L917.357 24.1057C909.673 24.1167 899.772 24.1455 891.004 24.1642C882.252 24.1831 874.633 24.1919 871.448 24.1815C871.448 24.1815 863.188 24.1892 853.977 24.198C845.389 24.2074 835.981 24.2188 831.679 24.2351C835.587 24.2154 819.528 24.2188 824.438 24.1943C815.883 24.2231 790.613 24.2493 780.498 24.2239L782.403 24.2215C763.701 24.2124 747.724 24.2042 732.208 24.1967C716.658 24.1876 701.601 24.178 684.804 24.1458C686.314 24.1711 668.565 24.1391 672.932 24.1743C638.135 24.1674 609.544 24.0444 596.932 24.1252C581.103 24.1132 578.187 24.0825 570.011 24.0692L573.786 24.0684C544.132 24.0441 535.525 24.0359 513.498 24.01C502.503 24.0073 500.749 24.0489 481.055 24.0175C487.435 24.0068 479.382 24.0014 472.013 23.9934C476.724 23.9958 478.184 23.991 468.516 23.9692C467.151 23.9729 465.045 23.974 463.073 23.9745C462.992 23.9729 462.606 23.9716 462.805 23.97C450.501 23.9628 452.639 23.9705 458.35 23.9793C458.061 23.9814 458.541 23.9854 460.303 23.9921C447.551 23.9561 424.717 23.9553 423.192 23.9236C386.21 23.894 359.766 23.8731 328.992 23.8489C325.544 23.8286 332.747 23.8251 341.684 23.8315L319.848 23.807C320.05 23.7851 332.399 23.8115 339.126 23.8163C313.156 23.7448 285.512 23.7771 255.04 23.7102L248.707 23.7206L246.891 23.7155C246.98 23.7251 240.133 23.7307 235.611 23.7291C231.307 23.7059 235.934 23.684 220.831 23.6723C208.899 23.6424 186.893 23.6558 171.25 23.6619C179.683 23.668 176.959 23.6776 173.33 23.6832C165.784 23.6816 161.433 23.659 155.551 23.672L154.993 23.6528C154.364 23.6616 150.252 23.6702 145.683 23.683C140.018 23.6984 133.655 23.7179 132.268 23.7267C127.945 23.7179 143.959 23.6811 145.852 23.6651C130.667 23.6976 126.92 23.7126 123.142 23.7208C119.377 23.728 115.595 23.7467 100.576 23.7632C84.5519 23.7867 103.494 23.7883 95.8257 23.8126C81.6555 23.8201 67.7955 23.7769 51.5662 23.6822L56.6612 23.7299C43.3284 23.675 32.6654 23.6256 23.0565 23.5987C13.4443 23.5715 4.92247 23.5584 -4.11499 23.5464C-7.04921 23.5488 -9.89804 23.5525 -12.6763 23.5568V23.8211C-5.91788 23.8193 0.595851 23.8206 6.94703 23.827C15.042 23.8347 22.779 23.8489 30.516 23.8777C38.2596 23.9054 45.9736 23.9409 53.865 23.9756C61.753 24.0103 69.8168 24.0439 78.25 24.0641C86.6766 24.086 95.5088 24.0876 104.681 24.0721C113.869 24.0577 123.459 24.0271 133.626 23.9977C143.814 23.9689 154.505 23.9417 166.111 23.947C207.163 23.9652 233.135 24.0092 259.479 24.0479C285.826 24.0884 312.544 24.1324 355.132 24.1826C375.443 24.2124 396.443 24.2391 417.337 24.2607C438.219 24.2805 458.991 24.2997 478.852 24.3181C497.718 24.3034 531 24.3738 553.316 24.3685L561.953 24.3976C569.645 24.3957 578.668 24.3986 586.387 24.4176L585.898 24.4229C597.386 24.4202 610.333 24.4432 616.041 24.4418L615.558 24.4472L629.508 24.4594L627.106 24.465C647.137 24.4706 667.776 24.492 685.953 24.5187L684.459 24.4931C703.884 24.5272 717.167 24.536 729.958 24.5445C742.766 24.5531 755.13 24.56 772.715 24.5803L772.223 24.5859C794.455 24.5592 811.991 24.5616 829.725 24.5605C838.592 24.5595 847.491 24.5576 857.031 24.548C866.587 24.5373 876.768 24.5243 888.245 24.4872C882.531 24.5053 890.708 24.4947 890.248 24.5016C900.806 24.4763 911.692 24.4429 919.952 24.4122C925.502 24.3914 929.869 24.372 932.184 24.3543V24.0529Z" fill="#829577"/>
</g>
<mask id="mask4_2011_4772" style="mask-type:alpha" maskUnits="userSpaceOnUse" x="1175" y="30" width="746" height="2">
<path d="M1175.85 30.958H1920.3V31.7996H1175.85V30.958Z" fill="white"/>
</mask>
<g mask="url(#mask4_2011_4772)">
<path fill-rule="evenodd" clip-rule="evenodd" d="M1563.8 31.5833C1563.69 31.583 1563.61 31.583 1563.54 31.5828C1563.12 31.583 1562.62 31.5833 1562.25 31.5835L1563.8 31.5833Z" fill="#829577"/>
<path fill-rule="evenodd" clip-rule="evenodd" d="M1930.56 31.3681C1930.06 31.3694 1929.51 31.3709 1928.95 31.3729L1930.56 31.3627V31.356L1918.56 31.4109C1912.34 31.4197 1904.32 31.4431 1897.22 31.4582C1890.14 31.4735 1883.97 31.4806 1881.39 31.4722C1881.39 31.4722 1874.7 31.4785 1867.24 31.4856C1860.29 31.4932 1852.67 31.5024 1849.19 31.5156C1852.36 31.4996 1839.35 31.5024 1843.33 31.4826C1836.4 31.5059 1815.94 31.5271 1807.75 31.5065L1809.3 31.5046C1794.16 31.4973 1781.22 31.4906 1768.66 31.4845C1756.07 31.4772 1743.88 31.4694 1730.28 31.4433C1731.5 31.4638 1717.13 31.4379 1720.67 31.4664C1692.49 31.4608 1669.35 31.3612 1659.14 31.4266C1646.32 31.4169 1643.96 31.3921 1637.34 31.3813L1640.4 31.3806C1616.39 31.361 1609.42 31.3543 1591.59 31.3333C1582.68 31.3312 1581.26 31.3649 1565.32 31.3394C1570.48 31.3308 1563.97 31.3264 1558 31.32C1561.81 31.3219 1563 31.318 1555.17 31.3003C1554.06 31.3033 1552.36 31.3042 1550.76 31.3046C1550.7 31.3033 1550.38 31.3022 1550.54 31.301C1540.58 31.2951 1542.31 31.3014 1546.94 31.3085C1546.7 31.3102 1547.09 31.3135 1548.52 31.3189C1538.19 31.2897 1519.71 31.2891 1518.47 31.2634C1488.53 31.2394 1467.12 31.2226 1442.21 31.2029C1439.41 31.1865 1445.25 31.1837 1452.48 31.1889L1434.8 31.169C1434.97 31.1513 1444.97 31.1727 1450.41 31.1766C1429.39 31.1187 1407 31.1448 1382.33 31.0906L1377.21 31.099L1375.74 31.0949C1375.81 31.1027 1370.26 31.1072 1366.6 31.1059C1363.12 31.0872 1366.87 31.0694 1354.64 31.0599C1344.98 31.0358 1327.16 31.0466 1314.5 31.0515C1321.32 31.0565 1319.12 31.0643 1316.18 31.0688C1310.07 31.0675 1306.55 31.0491 1301.79 31.0597L1301.33 31.0442C1300.82 31.0513 1297.5 31.0582 1293.8 31.0686C1289.21 31.0811 1284.06 31.0969 1282.94 31.104C1279.44 31.0969 1292.4 31.0671 1293.93 31.0541C1281.64 31.0805 1278.61 31.0926 1275.55 31.0992C1272.5 31.1051 1269.44 31.1202 1257.28 31.1336C1244.3 31.1526 1259.64 31.1539 1253.43 31.1735C1241.96 31.1796 1230.74 31.1446 1217.6 31.0679L1221.72 31.1066C1210.93 31.0621 1202.3 31.0221 1194.52 31.0003C1186.73 30.9783 1179.83 30.9677 1172.52 30.958C1170.14 30.96 1167.84 30.963 1165.59 30.9664V31.1804C1171.06 31.1789 1176.33 31.18 1181.47 31.1852C1188.03 31.1915 1194.29 31.2029 1200.56 31.2262C1206.82 31.2487 1213.07 31.2774 1219.46 31.3055C1225.85 31.3336 1232.37 31.3608 1239.2 31.3772C1246.02 31.3949 1253.17 31.3962 1260.6 31.3837C1268.04 31.372 1275.8 31.3472 1284.03 31.3234C1292.28 31.3001 1300.94 31.2781 1310.34 31.2824C1343.57 31.2971 1364.6 31.3327 1385.93 31.364C1407.26 31.3968 1428.89 31.4325 1463.37 31.4731C1479.81 31.4973 1496.82 31.5189 1513.73 31.5363C1530.64 31.5523 1547.46 31.5679 1563.54 31.5828C1578.81 31.5709 1605.76 31.6279 1623.82 31.6236L1630.82 31.6471C1637.04 31.6456 1644.35 31.648 1650.6 31.6633L1650.2 31.6677C1659.5 31.6655 1669.99 31.6841 1674.61 31.683L1674.22 31.6873L1685.51 31.6972L1683.57 31.7018C1699.78 31.7063 1716.49 31.7236 1731.21 31.7452L1730 31.7244C1745.73 31.7521 1756.48 31.7592 1766.84 31.7661C1777.21 31.773 1787.22 31.7787 1801.45 31.7951L1801.05 31.7996C1819.05 31.778 1833.25 31.78 1847.61 31.7791C1854.79 31.7782 1861.99 31.7767 1869.72 31.7689C1877.45 31.7603 1885.7 31.7497 1894.99 31.7197C1890.36 31.7344 1896.98 31.7257 1896.61 31.7314C1905.16 31.7108 1913.97 31.6838 1920.66 31.659C1925.15 31.6422 1928.69 31.6264 1930.56 31.6121V31.3681Z" fill="#829577"/>
</g>
<mask id="mask5_2011_4772" style="mask-type:alpha" maskUnits="userSpaceOnUse" x="0" y="37" width="1921" height="3">
<path d="M0 37.6062H1920.3V39.7771H0V37.6062Z" fill="white"/>
</mask>
<g mask="url(#mask5_2011_4772)">
<path fill-rule="evenodd" clip-rule="evenodd" d="M1000.71 39.2191C1000.43 39.2184 1000.23 39.2184 1000.03 39.2178C998.957 39.2184 997.677 39.2191 996.71 39.2197L1000.71 39.2191Z" fill="#829577"/>
<path fill-rule="evenodd" clip-rule="evenodd" d="M1946.77 38.6641C1945.47 38.6674 1944.06 38.6713 1942.62 38.6763L1946.77 38.6501V38.6329L1915.81 38.7744C1899.76 38.7972 1879.08 38.8574 1860.77 38.8964C1842.49 38.9359 1826.58 38.9543 1819.93 38.9326C1819.93 38.9326 1802.68 38.9487 1783.44 38.9671C1765.51 38.9866 1745.86 39.0106 1736.88 39.0445C1745.04 39.0033 1711.5 39.0106 1721.75 38.9593C1703.89 39.0195 1651.11 39.0741 1629.99 39.0211L1633.97 39.0161C1594.91 38.9972 1561.55 38.9799 1529.14 38.9643C1496.67 38.9454 1465.22 38.9253 1430.14 38.8579C1433.3 38.9108 1396.23 38.844 1405.35 38.9175C1332.68 38.903 1272.97 38.6462 1246.63 38.815C1213.57 38.79 1207.48 38.7259 1190.41 38.698L1198.29 38.6964C1136.36 38.6457 1118.39 38.6284 1072.39 38.5744C1049.43 38.5688 1045.76 38.6557 1004.64 38.59C1017.96 38.5677 1001.14 38.5566 985.751 38.5398C995.589 38.5449 998.638 38.5348 978.447 38.4891C975.597 38.4969 971.198 38.4992 967.08 38.5003C966.911 38.4969 966.106 38.4942 966.521 38.4908C940.826 38.4758 945.291 38.4919 957.217 38.5103C956.614 38.5148 957.615 38.5231 961.295 38.5371C934.664 38.4619 886.979 38.4602 883.793 38.3939C806.56 38.3321 751.334 38.2886 687.066 38.2379C679.865 38.1956 694.908 38.1883 713.573 38.2017L667.969 38.1505C668.391 38.1048 694.181 38.1599 708.23 38.17C653.995 38.0207 596.263 38.0881 532.625 37.9482L519.399 37.97L515.607 37.9594C515.792 37.9794 501.493 37.9911 492.049 37.9878C483.061 37.9393 492.724 37.8936 461.183 37.8691C436.264 37.8067 390.307 37.8346 357.638 37.8474C375.25 37.8602 369.561 37.8803 361.983 37.892C346.223 37.8886 337.136 37.8413 324.853 37.8686L323.687 37.8285C322.373 37.8469 313.787 37.8647 304.244 37.8914C292.413 37.9237 279.125 37.9644 276.228 37.9828C267.199 37.9644 300.643 37.8875 304.597 37.8541C272.884 37.9221 265.059 37.9533 257.169 37.9705C249.306 37.9856 241.409 38.0246 210.043 38.0591C176.578 38.1081 216.136 38.1115 200.122 38.1622C170.529 38.1778 141.584 38.0875 107.691 37.8897L118.331 37.9895C90.4868 37.8747 68.2182 37.7716 48.1511 37.7154C28.0771 37.6586 10.28 37.6313 -8.59379 37.6062C-14.7216 37.6112 -20.6711 37.619 -26.4731 37.6279V38.18C-12.3589 38.1761 1.24432 38.1789 14.5081 38.1922C31.4136 38.2084 47.5715 38.2379 63.7295 38.2981C79.9012 38.356 96.0111 38.4301 112.491 38.5025C128.965 38.5749 145.805 38.6451 163.417 38.6875C181.015 38.7331 199.46 38.7365 218.615 38.7042C237.805 38.6741 257.831 38.61 279.064 38.5488C300.341 38.4886 322.668 38.4318 346.905 38.4429C432.64 38.4808 486.878 38.5727 541.894 38.6535C596.918 38.7382 652.716 38.8301 741.657 38.9348C784.075 38.9972 827.93 39.0529 871.565 39.098C915.177 39.1392 958.555 39.1794 1000.03 39.2178C1039.43 39.1872 1108.94 39.3342 1155.54 39.3231L1173.58 39.3838C1189.65 39.3799 1208.49 39.386 1224.61 39.4256L1223.59 39.4367C1247.58 39.4311 1274.62 39.4791 1286.54 39.4763L1285.53 39.4874L1314.66 39.513L1309.65 39.5247C1351.48 39.5364 1394.58 39.581 1432.54 39.6367L1429.42 39.5832C1469.99 39.6545 1497.73 39.6729 1524.44 39.6907C1551.19 39.7086 1577.01 39.723 1613.74 39.7654L1612.71 39.7771C1659.14 39.7214 1695.76 39.7264 1732.8 39.7242C1751.31 39.7219 1769.9 39.718 1789.82 39.698C1809.78 39.6757 1831.04 39.6484 1855.01 39.571C1843.08 39.6089 1860.15 39.5866 1859.19 39.6011C1881.24 39.5481 1903.98 39.4785 1921.22 39.4144C1932.82 39.371 1941.94 39.3303 1946.77 39.2936V38.6641Z" fill="#829577"/>
</g>
<mask id="mask6_2011_4772" style="mask-type:alpha" maskUnits="userSpaceOnUse" x="0" y="44" width="1921" height="4">
<path d="M0 44.9187H1920.3V47.4043H0V44.9187Z" fill="white"/>
</mask>
<g mask="url(#mask6_2011_4772)">
<path fill-rule="evenodd" clip-rule="evenodd" d="M967.502 45.2232C967.79 45.2232 967.999 45.2232 968.201 45.2232C969.309 45.2209 970.626 45.2187 971.624 45.217L967.502 45.2232Z" fill="#829577"/>
</g>
<mask id="mask7_2011_4772" style="mask-type:alpha" maskUnits="userSpaceOnUse" x="0" y="53" width="661" height="2">
<path d="M0 53.2578H660.618V54.0044H0V53.2578Z" fill="white"/>
</mask>
<g mask="url(#mask7_2011_4772)">
<path fill-rule="evenodd" clip-rule="evenodd" d="M316.354 53.8127C316.45 53.8125 316.521 53.8125 316.588 53.8123C316.959 53.8125 317.399 53.8127 317.731 53.8129L316.354 53.8127Z" fill="#829577"/>
<path fill-rule="evenodd" clip-rule="evenodd" d="M-9.10693 53.6215C-8.65512 53.6229 -8.17971 53.6242 -7.67363 53.6258L-9.10693 53.6169V53.611L1.53963 53.6597C7.06522 53.6675 14.1787 53.6882 20.4746 53.7017C26.7705 53.7153 32.2454 53.7216 34.528 53.7141C34.528 53.7141 40.4618 53.7197 47.0774 53.7258C53.2507 53.7327 60.0114 53.7409 63.0962 53.7526C60.298 53.7384 71.8258 53.7409 68.3045 53.7233C74.4435 53.744 92.6058 53.7628 99.8726 53.7446L98.4971 53.7429C111.937 53.7361 123.422 53.7306 134.568 53.725C145.734 53.7183 156.554 53.7116 168.625 53.6884C167.534 53.7066 180.289 53.6836 177.147 53.7089C202.152 53.7038 222.693 53.6156 231.754 53.6735C243.125 53.665 245.221 53.643 251.094 53.6334L248.383 53.6327C269.689 53.6154 275.872 53.6095 291.697 53.5907C299.596 53.5888 300.857 53.6189 315.006 53.5961C310.422 53.5886 316.206 53.5848 321.502 53.579C318.117 53.5807 317.068 53.5773 324.014 53.5614C324.995 53.5641 326.508 53.5648 327.925 53.5654C327.983 53.5642 328.26 53.5633 328.116 53.5621C336.956 53.557 335.419 53.5627 331.318 53.5687C331.525 53.5706 331.181 53.5731 329.915 53.578C339.076 53.5522 355.482 53.5516 356.577 53.5286C383.145 53.5075 402.146 53.4926 424.255 53.4751C426.732 53.4606 421.557 53.4581 415.136 53.4627L430.824 53.445C430.679 53.4293 421.807 53.4483 416.975 53.4518C435.632 53.4004 455.493 53.4236 477.379 53.3755L481.933 53.383L483.242 53.3793C483.171 53.3862 488.09 53.3902 491.346 53.3891C494.437 53.3722 491.11 53.3567 501.963 53.3481C510.54 53.3268 526.347 53.3364 537.578 53.3406C531.526 53.345 533.484 53.3521 536.091 53.3561C541.506 53.3552 544.632 53.3387 548.867 53.3481L549.268 53.3343C549.717 53.3404 552.666 53.3469 555.957 53.3559C560.027 53.367 564.592 53.381 565.595 53.3874C568.698 53.381 557.196 53.3546 555.827 53.3431C566.739 53.3663 569.429 53.3772 572.142 53.3831C574.856 53.3883 577.569 53.4017 588.363 53.4136C599.876 53.4305 586.263 53.4316 591.772 53.4489C601.953 53.4544 611.909 53.4234 623.564 53.3554L619.907 53.3897C629.486 53.35 637.154 53.3149 644.055 53.2954C650.956 53.2758 657.079 53.2664 663.579 53.2578C665.679 53.2595 667.731 53.2622 669.725 53.2653V53.4552C664.865 53.4539 660.193 53.4548 655.628 53.4594C649.812 53.465 644.256 53.4751 638.699 53.4958C633.131 53.5156 627.587 53.5412 621.925 53.5662C616.25 53.5911 610.458 53.6152 604.395 53.6298C598.343 53.6455 591.996 53.6467 585.414 53.6355C578.807 53.6252 571.918 53.603 564.616 53.5821C557.29 53.5614 549.61 53.5416 541.27 53.5455C511.778 53.5587 493.128 53.5903 474.194 53.6183C455.268 53.6472 436.07 53.6788 405.474 53.7147C390.882 53.7363 375.795 53.7553 360.785 53.771C345.779 53.7852 330.858 53.799 316.588 53.8122C303.034 53.8019 279.124 53.8521 263.09 53.8484L256.885 53.8693C251.358 53.868 244.876 53.8701 239.329 53.8837L239.681 53.8875C231.426 53.8856 222.126 53.9029 218.025 53.901L218.372 53.9048L208.35 53.9144L210.075 53.9182C195.683 53.922 180.86 53.9374 167.801 53.9565L168.875 53.9374C154.915 53.9623 145.377 53.968 136.179 53.9757C126.976 53.9814 118.093 53.9853 105.468 54.0006L105.813 54.0044C89.8489 53.9853 77.2417 53.9872 64.5059 53.9872C58.1392 53.9853 51.7407 53.9834 44.8821 53.9776C38.0246 53.9699 30.7118 53.9604 22.4647 53.9335C26.5711 53.947 20.6952 53.9393 21.0243 53.9431C13.4378 53.9259 5.62012 53.901 -0.321898 53.8799C-4.3033 53.8649 -7.43887 53.8509 -9.10693 53.8383V53.6215Z" fill="#829577"/>
</g>
<mask id="mask8_2011_4772" style="mask-type:alpha" maskUnits="userSpaceOnUse" x="0" y="59" width="1921" height="4">
<path d="M0 59.8584H1920.3V62.3429H0V59.8584Z" fill="white"/>
</mask>
<g mask="url(#mask8_2011_4772)">
<path fill-rule="evenodd" clip-rule="evenodd" d="M952.801 60.165C952.509 60.165 952.3 60.165 952.098 60.165C950.99 60.1594 949.674 60.1594 948.679 60.1538L952.801 60.165Z" fill="#829577"/>
<path fill-rule="evenodd" clip-rule="evenodd" d="M1946.77 62.2928C1944.54 62.2761 1942.21 62.2649 1939.54 62.2538C1948.62 62.3262 1944.2 62.3429 1921.67 62.2036L1936.66 62.3429L1894.27 62.0198C1877.88 61.9418 1856.69 61.836 1837.9 61.7413C1819.11 61.6521 1802.71 61.5853 1795.89 61.5909C1795.89 61.5909 1778.2 61.5352 1758.48 61.4683C1740.03 61.407 1719.83 61.3513 1710.64 61.3068C1719.11 61.3569 1684.55 61.3012 1695.08 61.368C1685.92 61.329 1667.75 61.2733 1649.16 61.2399C1630.57 61.2065 1611.54 61.1954 1600.67 61.2176L1604.79 61.2232C1584.66 61.2232 1566 61.2232 1548.21 61.2176C1530.41 61.2176 1513.13 61.2065 1496.36 61.1786C1462.72 61.1229 1430.28 61.0227 1394.1 60.9502C1397.46 60.9057 1359.26 60.8221 1368.8 60.7887C1331.47 60.6494 1297.42 60.5993 1269.4 60.5882C1255.38 60.577 1242.88 60.5826 1232.19 60.5714C1221.51 60.5659 1212.63 60.5436 1205.88 60.5046C1197.42 60.5213 1190.68 60.5324 1185.06 60.5492C1179.46 60.5714 1174.98 60.5882 1171.01 60.6104C1163.1 60.6439 1157.14 60.6829 1148.31 60.7218L1156.47 60.6996C1124.44 60.8054 1103.76 60.8333 1085.16 60.8555C1066.55 60.8778 1050.01 60.889 1026.24 60.9001C1002.53 60.8834 998.799 60.7943 956.36 60.7998C970.077 60.8388 952.736 60.8277 936.866 60.8165C947.005 60.8277 950.136 60.8444 929.301 60.8611C926.373 60.8444 921.843 60.8388 917.604 60.8277C917.429 60.8333 916.596 60.8333 917.025 60.8388C890.559 60.8165 895.168 60.8054 907.454 60.8054C906.837 60.7998 907.873 60.7943 911.676 60.7831C884.201 60.8165 835.117 60.7776 831.842 60.8444C792.147 60.8611 758.442 60.9447 726.425 61.1508C694.26 61.3458 663.755 61.5352 630.941 61.7357C623.682 61.8193 639.096 61.7413 658.155 61.6243C642.58 61.7246 627.293 61.8304 611.481 61.9251C611.711 61.9418 618.627 61.914 627.029 61.8583C635.451 61.8026 645.608 61.7357 652.768 61.6856C638.928 61.797 625.136 61.9028 610.449 61.9864C595.869 62.0644 580.979 62.1034 565.826 62.1201C535.506 62.1591 504.123 62.1034 471.282 62.0978L457.703 62.0421H453.787C453.893 62.031 450.272 62.0142 445.416 62.0031C440.557 61.9864 434.46 61.9697 429.608 61.9641C424.976 61.9808 425.116 62.0031 422.342 62.0142C419.571 62.031 413.838 62.0421 397.519 61.9975C384.591 61.9864 366.362 61.914 347.279 61.8527C328.206 61.7858 308.232 61.7691 291.302 61.758C309.466 61.7524 303.599 61.7301 295.794 61.719C279.527 61.7134 270.055 61.7468 257.378 61.6967L256.126 61.7357C255.612 61.7246 254.017 61.7134 251.682 61.7023C247.948 61.68 242.307 61.6577 236.265 61.6354C224.195 61.5853 210.55 61.5519 207.57 61.5352C202.948 61.5463 209.216 61.5686 217.134 61.5909C225.052 61.6187 234.612 61.6521 236.604 61.6744C204.23 61.5797 196.103 61.5853 188.011 61.5686C179.904 61.563 171.808 61.5407 139.372 61.5519C104.724 61.5352 145.647 61.4906 129.057 61.4572C113.75 61.4683 98.6241 61.485 82.9428 61.5129C67.2443 61.5463 51.0761 61.6076 33.4539 61.6744L44.5265 61.5909C16.3907 61.6689 -6.21399 61.6967 -26.4731 61.7524V61.2176C-4.39313 61.1675 17.1622 61.1341 38.9611 61.0728C72.8338 60.9614 108.394 60.889 147.749 60.8945C167.46 60.8945 188.196 60.9168 210.307 60.967C221.362 60.9948 232.764 61.0282 244.546 61.0672C247.488 61.0784 250.455 61.0895 253.445 61.1007C256.339 61.1118 259.271 61.1174 262.237 61.1285C268.169 61.1396 274.246 61.1508 280.466 61.1564C302.296 61.1619 322.723 61.1452 341.535 61.1898C360.289 61.2232 377.328 61.2789 393.28 61.3179C401.26 61.3346 408.962 61.3513 416.461 61.3625C424.036 61.368 431.426 61.3736 438.706 61.3736C453.331 61.3903 467.483 61.4015 481.69 61.4126C510 61.4349 538.421 61.4627 570.826 61.3848C587.056 61.3513 604.119 61.2845 622.742 61.1564C641.74 61.0282 662.331 60.8945 685.036 60.7441C695.858 60.6717 706.769 60.5993 717.749 60.5213C723.243 60.4879 728.753 60.4489 734.274 60.4155C739.898 60.3765 745.542 60.3486 751.2 60.3208C773.843 60.2093 796.691 60.1536 819.347 60.1369C864.632 60.1035 909.32 60.1369 952.098 60.1648C972.374 60.2093 1000.41 60.2205 1029.33 60.2149C1058.26 60.2093 1088.03 60.1704 1111.92 60.1536C1118.07 60.1258 1124.23 60.0979 1130.35 60.0645C1138.58 60.0589 1147.5 60.0367 1156.41 60.0088C1165.35 59.981 1174.54 59.9531 1182.88 59.9141L1181.81 59.9085C1206.79 59.8751 1234.89 59.8473 1247.26 59.8695L1246.22 59.8584C1256.31 59.8584 1266.37 59.8751 1276.44 59.8863L1271.26 59.864C1314.61 59.942 1359.02 60.0868 1398.08 60.1815L1394.79 60.2205C1436.56 60.3152 1464.98 60.3932 1492.42 60.4433C1499.24 60.4545 1506.03 60.46 1512.96 60.4712C1519.88 60.4767 1526.91 60.4767 1534.28 60.4823C1549.06 60.4823 1565.22 60.4712 1584.11 60.46L1583.08 60.4489C1630.95 60.5324 1668.74 60.5603 1706.97 60.6216C1745.14 60.6773 1783.75 60.772 1832.79 61.0505C1820.55 60.9781 1838.1 61.0505 1837.11 61.0338C1859.74 61.1396 1883.13 61.2789 1900.79 61.4015C1918.45 61.5185 1930.52 61.6187 1930.76 61.6689C1937.68 61.7079 1942.86 61.7301 1946.77 61.7524V62.2928Z" fill="#829577"/>
</g>
<mask id="mask9_2011_4772" style="mask-type:alpha" maskUnits="userSpaceOnUse" x="0" y="74" width="1921" height="4">
<path d="M0 74.7988H1920.3V77.2833H0V74.7988Z" fill="white"/>
</mask>
<g mask="url(#mask9_2011_4772)">
<path fill-rule="evenodd" clip-rule="evenodd" d="M952.801 76.9768C952.509 76.9768 952.3 76.9768 952.098 76.9768C950.99 76.9824 949.674 76.9824 948.679 76.988L952.801 76.9768Z" fill="#829577"/>
<path fill-rule="evenodd" clip-rule="evenodd" d="M1946.77 74.849C1944.54 74.8657 1942.21 74.8768 1939.54 74.888C1948.62 74.8155 1944.2 74.7988 1921.67 74.9381L1936.66 74.7988L1894.27 75.1219C1877.88 75.1999 1856.69 75.3058 1837.9 75.4005C1819.11 75.4896 1802.71 75.5564 1795.89 75.5509C1795.89 75.5509 1778.2 75.6066 1758.48 75.6734C1740.03 75.7347 1719.83 75.7904 1710.64 75.835C1719.11 75.7848 1684.55 75.8405 1695.08 75.7737C1685.92 75.8127 1667.75 75.8684 1649.16 75.9018C1630.57 75.9352 1611.54 75.9464 1600.67 75.9241L1604.79 75.9185C1584.66 75.9185 1566 75.9185 1548.21 75.9241C1530.41 75.9241 1513.13 75.9352 1496.36 75.9631C1462.72 76.0188 1430.28 76.1191 1394.1 76.1971C1397.46 76.2361 1359.26 76.3196 1368.8 76.353C1331.47 76.4923 1297.42 76.5424 1269.4 76.5536C1255.38 76.5647 1242.88 76.5592 1232.19 76.5703C1221.51 76.5759 1212.63 76.5981 1205.88 76.6371C1197.42 76.6204 1190.68 76.6093 1185.06 76.5926C1179.46 76.5703 1174.98 76.5536 1171.01 76.5313C1163.1 76.4979 1157.14 76.4589 1148.31 76.4199L1156.47 76.4422C1124.44 76.3363 1103.76 76.3085 1085.16 76.2862C1066.55 76.2639 1050.01 76.2528 1026.24 76.2416C1002.53 76.2583 998.799 76.3475 956.36 76.3419C970.077 76.3029 952.736 76.314 936.866 76.3252C947.005 76.314 950.136 76.2973 929.301 76.2806C926.373 76.2973 921.843 76.3029 917.604 76.314C917.429 76.3085 916.596 76.3085 917.025 76.3029C890.559 76.3252 895.168 76.3363 907.454 76.3363C906.837 76.3419 907.873 76.3475 911.676 76.3586C884.201 76.3252 835.117 76.3698 831.842 76.2973C792.147 76.2806 758.442 76.1971 726.425 75.9909C694.26 75.796 663.755 75.6066 630.941 75.406C623.682 75.3225 639.096 75.4005 658.155 75.5174C642.58 75.4172 627.293 75.3113 611.481 75.2166C611.711 75.1999 618.627 75.2278 627.029 75.2835C635.451 75.3392 645.608 75.406 652.768 75.4562C638.928 75.3448 625.136 75.2389 610.449 75.1554C595.869 75.0774 580.979 75.0384 565.826 75.0217C535.506 74.9827 504.123 75.0384 471.282 75.0439L457.703 75.0996H453.787C453.893 75.1108 450.272 75.1275 445.416 75.1386C440.557 75.1554 434.46 75.1721 429.608 75.1776C424.976 75.1609 425.116 75.1386 422.342 75.1275C419.571 75.1108 413.838 75.0996 397.519 75.1442C384.591 75.1554 366.362 75.2278 347.279 75.289C328.206 75.3559 308.232 75.3726 291.302 75.3837C309.466 75.3893 303.599 75.4116 295.794 75.4227C279.527 75.4283 270.055 75.3949 257.378 75.445L256.126 75.406C255.612 75.4172 254.017 75.4283 251.682 75.4395C247.948 75.4617 242.307 75.484 236.265 75.5063C224.195 75.5564 210.55 75.5899 207.57 75.6066C202.948 75.5954 209.216 75.5731 217.134 75.5509C225.052 75.523 234.612 75.4896 236.604 75.4673C204.23 75.562 196.103 75.5564 188.011 75.5731C179.904 75.5787 171.808 75.601 139.372 75.5899C104.724 75.6066 145.647 75.6511 129.057 75.6846C113.75 75.6734 98.6241 75.6567 82.9428 75.6289C67.2443 75.5954 51.0761 75.5342 33.4539 75.4673L44.5265 75.5509C16.3907 75.4729 -6.21399 75.445 -26.4731 75.3893V75.9241C-4.39313 75.9742 17.1622 76.0077 38.9611 76.0689C72.8338 76.1804 108.394 76.2528 147.749 76.2472C167.46 76.2472 188.196 76.2249 210.307 76.1748C221.362 76.1469 232.764 76.1135 244.546 76.0745C247.488 76.0634 250.455 76.0522 253.445 76.0411C256.339 76.0299 259.271 76.0244 262.237 76.0132C268.169 76.0021 274.246 75.9909 280.466 75.9854C302.296 75.9798 322.723 75.9965 341.535 75.9575C360.289 75.9185 377.328 75.8628 393.28 75.8238C401.26 75.8071 408.962 75.7904 416.461 75.7793C424.036 75.7737 431.426 75.7681 438.706 75.7681C453.331 75.7514 467.483 75.7403 481.69 75.7291C510 75.7068 538.421 75.679 570.826 75.757C587.056 75.7904 604.119 75.8573 622.742 75.9854C641.74 76.1135 662.331 76.2472 685.036 76.3976C695.858 76.47 706.769 76.5424 717.749 76.6204C723.243 76.6539 728.753 76.6929 734.274 76.7263C739.898 76.7653 745.542 76.7931 751.2 76.821C773.843 76.9324 796.691 76.9881 819.347 77.0048C864.632 77.0382 909.32 77.0048 952.098 76.977C972.374 76.9324 1000.41 76.9212 1029.33 76.9268C1058.26 76.9324 1088.03 76.9714 1111.92 76.9881C1118.07 77.0159 1124.23 77.0438 1130.35 77.0772C1138.58 77.0828 1147.5 77.1051 1156.41 77.1329C1165.35 77.1608 1174.54 77.1886 1182.88 77.2276L1181.81 77.2332C1206.79 77.2666 1234.89 77.2945 1247.26 77.2722L1246.22 77.2833C1256.31 77.2833 1266.37 77.2666 1276.44 77.2555L1271.26 77.2778C1314.61 77.1998 1359.02 77.0549 1398.08 76.9602L1394.79 76.9212C1436.56 76.8265 1464.98 76.7486 1492.42 76.6984C1499.24 76.6873 1506.03 76.6817 1512.96 76.6706C1519.88 76.665 1526.91 76.665 1534.28 76.6594C1549.06 76.6594 1565.22 76.6706 1584.11 76.6817L1583.08 76.6929C1630.95 76.6093 1668.74 76.5814 1706.97 76.5202C1745.14 76.4645 1783.75 76.3698 1832.79 76.0912C1820.55 76.1636 1838.1 76.0912 1837.11 76.1079C1859.74 76.0021 1883.13 75.8628 1900.79 75.7403C1918.45 75.6233 1930.52 75.523 1930.76 75.4729C1937.68 75.4395 1942.86 75.4116 1946.77 75.3893V74.849Z" fill="#829577"/>
</g>
<mask id="mask10_2011_4772" style="mask-type:alpha" maskUnits="userSpaceOnUse" x="0" y="82" width="1921" height="3">
<path d="M0 82.4253H1920.3V84.5978H0V82.4253Z" fill="white"/>
</mask>
<g mask="url(#mask10_2011_4772)">
<path fill-rule="evenodd" clip-rule="evenodd" d="M919.584 82.988C919.865 82.988 920.071 82.988 920.266 82.988C921.343 82.988 922.622 82.988 923.589 82.9824L919.584 82.988Z" fill="#829577"/>
<path fill-rule="evenodd" clip-rule="evenodd" d="M1193.7 83.5872C1194.2 83.5872 1194.73 83.5806 1195.29 83.574L1193.7 83.607V83.6268L1205.5 83.4554C1211.63 83.429 1219.51 83.3631 1226.49 83.3103C1233.47 83.2642 1239.54 83.2444 1242.07 83.2708C1242.07 83.2708 1248.65 83.251 1255.98 83.2312C1262.82 83.2049 1270.32 83.1785 1273.74 83.1389C1270.63 83.1851 1283.41 83.1785 1279.51 83.2378C1286.31 83.1653 1306.45 83.106 1314.5 83.1653L1312.98 83.1719C1327.87 83.1983 1340.6 83.2115 1352.96 83.2312C1365.33 83.2576 1377.33 83.2774 1390.71 83.3565C1389.5 83.2972 1403.64 83.3763 1400.15 83.2906C1427.87 83.3037 1450.64 83.607 1460.68 83.4092C1473.29 83.4422 1475.61 83.5147 1482.12 83.5477H1479.11C1502.73 83.6136 1509.58 83.6333 1527.12 83.6927C1535.88 83.6993 1537.28 83.6004 1552.96 83.6729C1547.88 83.6993 1554.29 83.719 1560.16 83.7322C1556.41 83.7322 1555.25 83.7388 1562.95 83.7982C1564.03 83.785 1565.71 83.785 1567.28 83.785C1567.35 83.785 1567.65 83.7916 1567.49 83.7916C1577.29 83.8113 1575.59 83.7916 1571.04 83.7718C1571.27 83.7652 1570.89 83.752 1569.49 83.7388C1579.64 83.8311 1597.83 83.8311 1599.04 83.9102C1628.49 83.9827 1649.55 84.0355 1674.06 84.0948C1676.8 84.1409 1671.07 84.1541 1663.95 84.1343L1681.34 84.1937C1681.18 84.253 1671.34 84.1871 1665.99 84.1739C1686.67 84.3519 1708.68 84.2728 1732.94 84.4376L1737.99 84.4112L1739.44 84.4244C1739.36 84.398 1744.81 84.3848 1748.42 84.3914C1751.85 84.4442 1748.16 84.4969 1760.19 84.5299C1769.7 84.6024 1787.22 84.5694 1799.67 84.5562C1792.96 84.543 1795.13 84.5167 1798.02 84.5035C1804.02 84.5035 1807.49 84.5628 1812.18 84.5299L1812.63 84.576C1813.12 84.5562 1816.39 84.5365 1820.04 84.5035C1824.55 84.4639 1829.61 84.4178 1830.72 84.3914C1834.16 84.4178 1821.41 84.5101 1819.9 84.5496C1831.99 84.4639 1834.97 84.431 1837.98 84.4112C1840.99 84.3914 1844 84.3453 1855.96 84.3057C1868.72 84.2464 1853.63 84.2398 1859.74 84.1805C1871.02 84.1673 1882.06 84.2728 1894.98 84.5035L1890.92 84.3848C1901.54 84.5233 1910.04 84.6419 1917.69 84.7144C1925.34 84.7804 1932.13 84.8133 1939.33 84.8397C1941.66 84.8331 1943.93 84.8265 1946.14 84.8133V84.1607C1940.76 84.1673 1935.58 84.1607 1930.52 84.1475C1924.07 84.1278 1917.91 84.0948 1911.75 84.0223C1905.58 83.9498 1899.44 83.8641 1893.16 83.7784C1886.87 83.6927 1880.45 83.6136 1873.73 83.5608C1867.02 83.5081 1859.99 83.5015 1852.69 83.5411C1845.37 83.574 1837.73 83.6531 1829.64 83.7256C1821.52 83.7982 1813.01 83.8641 1803.76 83.8509C1771.07 83.8047 1750.4 83.6993 1729.41 83.6004C1708.43 83.5015 1687.15 83.3894 1653.24 83.2708C1637.06 83.1917 1620.34 83.1258 1603.7 83.073C1587.07 83.0269 1570.53 82.9807 1554.72 82.9346C1539.69 82.9676 1513.19 82.7962 1495.42 82.8093L1488.54 82.7368C1482.41 82.7434 1475.23 82.7368 1469.08 82.6841L1469.47 82.6775C1460.32 82.6841 1450.01 82.6248 1445.46 82.6248L1445.85 82.6116L1434.74 82.5852L1436.65 82.572C1420.7 82.5588 1404.27 82.5061 1389.79 82.4402L1390.98 82.4995C1375.51 82.4138 1364.94 82.394 1354.74 82.3743C1344.54 82.3545 1334.7 82.3347 1320.7 82.2886L1321.08 82.2688C1303.39 82.3347 1289.41 82.3281 1275.3 82.3347C1268.24 82.3347 1261.15 82.3413 1253.55 82.3677C1245.95 82.394 1237.84 82.427 1228.7 82.5127C1233.25 82.4732 1226.74 82.4995 1227.1 82.4797C1218.69 82.5457 1210.03 82.6248 1203.44 82.7039C1199.03 82.75 1195.55 82.8028 1193.7 82.8423V83.5872Z" fill="#829577"/>
</g>
<mask id="mask11_2011_4772" style="mask-type:alpha" maskUnits="userSpaceOnUse" x="1073" y="90" width="848" height="2">
<path d="M1073.82 90.4358H1920.3V91.5334H1073.82V90.4358Z" fill="white"/>
</mask>
<g mask="url(#mask11_2011_4772)">
<path fill-rule="evenodd" clip-rule="evenodd" d="M1500.3 91.3984C1500.43 91.3984 1500.52 91.3984 1500.61 91.3984C1501.1 91.3984 1501.68 91.4009 1502.12 91.4009L1500.3 91.3984Z" fill="#829577"/>
<path fill-rule="evenodd" clip-rule="evenodd" d="M1062.15 90.4603C1063.14 90.4653 1064.16 90.4702 1065.34 90.4751C1061.33 90.4432 1063.29 90.4358 1073.22 90.4972L1066.62 90.4358L1085.29 90.5782C1092.53 90.615 1101.87 90.6617 1110.15 90.701C1118.43 90.7427 1125.66 90.7697 1128.66 90.7673C1128.66 90.7673 1136.46 90.7943 1145.15 90.8213C1153.28 90.8483 1162.19 90.8729 1166.24 90.895C1162.5 90.8704 1177.74 90.895 1173.11 90.8655C1177.14 90.8852 1185.14 90.9073 1193.34 90.922C1201.53 90.9367 1209.92 90.9416 1214.72 90.9343L1212.91 90.9294C1221.78 90.9318 1230 90.9318 1237.85 90.9318C1245.68 90.9318 1253.3 90.9367 1260.69 90.949C1275.52 90.9736 1289.83 91.0178 1305.78 91.0521C1304.3 91.0693 1321.13 91.1062 1316.94 91.1209C1333.38 91.1823 1348.39 91.2044 1360.74 91.2093C1366.92 91.2142 1372.43 91.2118 1377.15 91.2191C1381.85 91.2191 1385.77 91.2289 1388.74 91.2461C1392.47 91.2412 1395.44 91.2339 1397.92 91.2289C1400.39 91.2191 1402.36 91.2093 1404.11 91.2019C1407.6 91.1847 1410.23 91.1676 1414.12 91.1528L1410.52 91.1602C1424.64 91.1135 1433.76 91.1037 1441.96 91.0914C1450.16 91.0816 1457.45 91.0767 1467.93 91.0742C1478.38 91.0816 1480.02 91.1209 1498.73 91.1184C1492.69 91.0988 1500.33 91.1062 1507.32 91.1086C1502.85 91.1037 1501.47 91.0988 1510.66 91.0914C1511.95 91.0963 1513.95 91.1013 1515.82 91.1037C1515.89 91.1013 1516.26 91.1013 1516.07 91.0988C1527.74 91.1086 1525.7 91.1135 1520.29 91.1135C1520.56 91.116 1520.1 91.1184 1518.43 91.1234C1530.54 91.1086 1552.18 91.1283 1553.62 91.0963C1571.12 91.0914 1585.97 91.0546 1600.09 90.9613C1614.26 90.8753 1627.71 90.7918 1642.18 90.7034C1645.38 90.6691 1638.58 90.701 1630.18 90.7526C1637.05 90.7084 1643.79 90.6617 1650.76 90.6224C1650.65 90.6126 1647.61 90.6273 1643.9 90.6519C1640.19 90.6764 1635.71 90.7059 1632.56 90.7255C1638.66 90.6764 1644.73 90.6298 1651.21 90.5929C1657.64 90.5586 1664.19 90.5414 1670.88 90.534C1684.24 90.5168 1698.08 90.5414 1712.55 90.5463L1718.54 90.5708L1720.27 90.5684C1720.21 90.5733 1721.82 90.5807 1723.96 90.588C1726.09 90.5954 1728.78 90.6003 1730.93 90.6052C1732.97 90.5979 1732.91 90.588 1734.14 90.5807C1735.34 90.5733 1737.88 90.5708 1745.08 90.588C1750.78 90.5929 1758.8 90.6249 1767.22 90.6519C1775.63 90.6813 1784.42 90.6887 1791.89 90.6936C1783.88 90.6961 1786.47 90.7059 1789.91 90.7133C1797.08 90.7133 1801.26 90.6985 1806.84 90.7206L1807.4 90.7059C1807.63 90.7084 1808.32 90.7133 1809.35 90.7182C1811 90.728 1813.49 90.7403 1816.15 90.7501C1821.47 90.7697 1827.49 90.7845 1828.8 90.7918C1830.84 90.7869 1828.08 90.7796 1824.59 90.7673C1821.1 90.7575 1816.88 90.7403 1816 90.7329C1830.27 90.7722 1833.85 90.7722 1837.42 90.7796C1841 90.782 1844.57 90.7918 1858.87 90.7869C1874.14 90.7918 1856.1 90.8115 1863.4 90.8262C1870.16 90.8213 1876.83 90.8164 1883.73 90.8017C1890.66 90.7894 1897.79 90.7599 1905.55 90.7305L1900.66 90.7673C1913.07 90.7354 1923.04 90.7206 1931.97 90.6985V90.9318C1922.23 90.9564 1912.74 90.9711 1903.13 90.9957C1888.19 91.0448 1872.52 91.0792 1855.17 91.0767C1846.49 91.0742 1837.34 91.0644 1827.6 91.0423C1822.73 91.03 1817.69 91.0178 1812.49 90.9981C1811.21 90.9932 1809.89 90.9883 1808.58 90.9834C1807.31 90.9809 1806.01 90.976 1804.71 90.9736C1802.1 90.9662 1799.4 90.9613 1796.67 90.9588C1787.04 90.9564 1778.05 90.9662 1769.75 90.9466C1761.48 90.9294 1753.97 90.9048 1746.94 90.8876C1743.42 90.8802 1740.03 90.8729 1736.72 90.8704C1733.38 90.868 1730.13 90.8655 1726.91 90.8631C1720.47 90.8581 1714.23 90.8508 1707.97 90.8459C1695.48 90.836 1682.97 90.8262 1668.68 90.8581C1661.52 90.8753 1654 90.9023 1645.79 90.9613C1637.42 91.0153 1628.34 91.0742 1618.33 91.1405C1613.56 91.1725 1608.75 91.2068 1603.91 91.2388C1601.49 91.2535 1599.06 91.2707 1596.63 91.2879C1594.15 91.3026 1591.66 91.3173 1589.17 91.3296C1579.19 91.3787 1569.11 91.4008 1559.13 91.4082C1539.16 91.4229 1519.47 91.4082 1500.61 91.3984C1491.67 91.3787 1479.31 91.3714 1466.56 91.3763C1453.82 91.3787 1440.69 91.3935 1430.16 91.4033C1427.45 91.4156 1424.74 91.4254 1422.03 91.4401C1418.41 91.445 1414.48 91.4524 1410.55 91.4647C1406.61 91.477 1402.56 91.4892 1398.88 91.5064L1399.35 91.5113C1388.34 91.5236 1375.95 91.5383 1370.5 91.5261L1370.96 91.5334C1366.51 91.531 1362.08 91.5236 1357.64 91.5187L1359.92 91.5285C1340.81 91.4941 1321.24 91.4303 1304.02 91.3886L1305.48 91.3714C1287.05 91.3296 1274.53 91.2952 1262.44 91.2731C1259.42 91.2707 1256.43 91.2658 1253.38 91.2609C1250.33 91.2609 1247.23 91.2584 1243.99 91.2584C1237.47 91.2584 1230.35 91.2609 1222.01 91.2658L1222.46 91.2707C1201.37 91.2363 1184.71 91.2216 1167.86 91.197C1151.03 91.17 1134.01 91.1307 1112.4 91.0055C1117.79 91.0374 1110.06 91.0079 1110.49 91.0153C1100.51 90.9662 1090.21 90.9048 1082.43 90.8532C1074.64 90.7992 1069.31 90.7575 1069.22 90.7354C1066.17 90.7182 1063.88 90.7059 1062.15 90.6985V90.4603Z" fill="#829577"/>
</g>
<mask id="mask12_2011_4772" style="mask-type:alpha" maskUnits="userSpaceOnUse" x="0" y="97" width="1921" height="3">
<path d="M0 97.3713H1920.3V99.4715H0V97.3713Z" fill="white"/>
</mask>
<g mask="url(#mask12_2011_4772)">
<path fill-rule="evenodd" clip-rule="evenodd" d="M1000.71 97.9285C1000.43 97.9285 1000.23 97.934 1000.03 97.934C998.957 97.9285 997.677 97.9285 996.71 97.9285H1000.71Z" fill="#829577"/>
<path fill-rule="evenodd" clip-rule="evenodd" d="M1946.77 98.4855C1945.47 98.4799 1944.06 98.4799 1942.62 98.4743L1946.77 98.5022V98.5189L1915.81 98.3741C1899.76 98.3518 1879.08 98.2905 1860.77 98.2515C1842.49 98.2125 1826.58 98.1958 1819.93 98.2181C1819.93 98.2181 1802.68 98.2014 1783.44 98.1847C1765.51 98.1624 1745.86 98.1401 1736.88 98.1067C1745.04 98.1457 1711.5 98.1401 1721.75 98.1902C1703.89 98.1289 1651.11 98.0732 1629.99 98.1289L1633.97 98.1345C1594.91 98.1512 1561.55 98.1679 1529.14 98.1847C1496.67 98.2069 1465.22 98.2236 1430.14 98.2905C1433.3 98.2404 1396.23 98.3072 1405.35 98.2292C1332.68 98.2459 1272.97 98.5022 1246.63 98.3351C1213.57 98.3573 1207.48 98.4242 1190.41 98.452H1198.29C1136.36 98.5022 1118.39 98.5245 1072.39 98.5746C1049.43 98.5802 1045.76 98.491 1004.64 98.5579C1017.96 98.5802 1001.14 98.5913 985.751 98.608C995.589 98.6024 998.638 98.6136 978.447 98.6637C975.597 98.6526 971.198 98.6526 967.08 98.647C966.911 98.6526 966.106 98.6582 966.521 98.6582C940.826 98.6749 945.291 98.6582 957.217 98.6414C956.614 98.6359 957.615 98.6247 961.295 98.6136C934.664 98.686 886.979 98.6916 883.793 98.7584C806.56 98.8197 751.334 98.8587 687.066 98.9088C679.865 98.9534 694.908 98.959 713.573 98.9478L667.969 98.998C668.391 99.0425 694.181 98.9924 708.23 98.9813C653.995 99.1317 596.263 99.0592 532.625 99.2041L519.399 99.1818L515.607 99.1874C515.792 99.1707 501.493 99.1595 492.049 99.1595C483.061 99.2096 492.724 99.2542 461.183 99.2821C436.264 99.3433 390.307 99.3155 357.638 99.3043C375.25 99.2876 369.561 99.2709 361.983 99.2598C346.223 99.2598 337.136 99.3099 324.853 99.2821L323.687 99.3211C322.373 99.3043 313.787 99.2821 304.244 99.2598C292.413 99.2264 279.125 99.1874 276.228 99.1651C267.199 99.1874 300.643 99.2598 304.597 99.2932C272.884 99.2264 265.059 99.1985 257.169 99.1818C249.306 99.1651 241.409 99.1261 210.043 99.0927C176.578 99.0425 216.136 99.037 200.122 98.9868C170.529 98.9701 141.584 99.0648 107.691 99.2598L118.331 99.1595C90.4868 99.2765 68.2182 99.3768 48.1511 99.4325C28.0771 99.4882 10.28 99.516 -8.59379 99.5439C-14.7216 99.5383 -20.6711 99.5327 -26.4731 99.5216V98.9701C-12.3589 98.9757 1.24432 98.9701 14.5081 98.959C31.4136 98.9423 47.5715 98.9088 63.7295 98.8531C79.9012 98.7918 96.0111 98.7194 112.491 98.647C128.965 98.5746 145.805 98.5022 163.417 98.4632C181.015 98.4186 199.46 98.413 218.615 98.4465C237.805 98.4743 257.831 98.5412 279.064 98.6024C300.341 98.6637 322.668 98.7194 346.905 98.7083C432.64 98.6693 486.878 98.5746 541.894 98.4966C596.918 98.413 652.716 98.3183 741.657 98.2125C784.075 98.1512 827.93 98.0955 871.565 98.051C915.177 98.012 958.555 97.973 1000.03 97.934C1039.43 97.9618 1108.94 97.817 1155.54 97.8281L1173.58 97.7669C1189.65 97.7669 1208.49 97.7613 1224.61 97.7223L1223.59 97.7111C1247.58 97.7167 1274.62 97.6722 1286.54 97.6722L1285.53 97.661L1314.66 97.6387L1309.65 97.6276C1351.48 97.6109 1394.58 97.5663 1432.54 97.5106L1429.42 97.5663C1469.99 97.4939 1497.73 97.4772 1524.44 97.4605C1551.19 97.4382 1577.01 97.427 1613.74 97.3825L1612.71 97.3713C1659.14 97.427 1695.76 97.4215 1732.8 97.427C1751.31 97.427 1769.9 97.4326 1789.82 97.4493C1809.78 97.4716 1831.04 97.4995 1855.01 97.5775C1843.08 97.5385 1860.15 97.5607 1859.19 97.5496C1881.24 97.5997 1903.98 97.6722 1921.22 97.7334C1932.82 97.778 1941.94 97.817 1946.77 97.856V98.4855Z" fill="#829577"/>
<path fill-rule="evenodd" clip-rule="evenodd" d="M1946.77 98.4855C1945.47 98.4799 1944.06 98.4799 1942.62 98.4743L1946.77 98.5022V98.5189L1915.81 98.3741C1899.76 98.3518 1879.08 98.2905 1860.77 98.2515C1842.49 98.2125 1826.58 98.1958 1819.93 98.2181C1819.93 98.2181 1802.68 98.2014 1783.44 98.1847C1765.51 98.1624 1745.86 98.1401 1736.88 98.1067C1745.04 98.1457 1711.5 98.1401 1721.75 98.1902C1703.89 98.1289 1651.11 98.0732 1629.99 98.1289L1633.97 98.1345C1594.91 98.1512 1561.55 98.1679 1529.14 98.1847C1496.67 98.2069 1465.22 98.2236 1430.14 98.2905C1433.3 98.2404 1396.23 98.3072 1405.35 98.2292C1332.68 98.2459 1272.97 98.5022 1246.63 98.3351C1213.57 98.3573 1207.48 98.4242 1190.41 98.452H1198.29C1136.36 98.5022 1118.39 98.5245 1072.39 98.5746C1049.43 98.5802 1045.76 98.491 1004.64 98.5579C1017.96 98.5802 1001.14 98.5913 985.751 98.608C995.589 98.6024 998.638 98.6136 978.447 98.6637C975.597 98.6526 971.198 98.6526 967.08 98.647C966.911 98.6526 966.106 98.6582 966.521 98.6582C940.826 98.6749 945.291 98.6582 957.217 98.6414C956.614 98.6359 957.615 98.6247 961.295 98.6136C934.664 98.686 886.979 98.6916 883.793 98.7584C806.56 98.8197 751.334 98.8587 687.066 98.9088C679.865 98.9534 694.908 98.959 713.573 98.9478L667.969 98.998C668.391 99.0425 694.181 98.9924 708.23 98.9813C653.995 99.1317 596.263 99.0592 532.625 99.2041L519.399 99.1818L515.607 99.1874C515.792 99.1707 501.493 99.1595 492.049 99.1595C483.061 99.2096 492.724 99.2542 461.183 99.2821C436.264 99.3433 390.307 99.3155 357.638 99.3043C375.25 99.2876 369.561 99.2709 361.983 99.2598C346.223 99.2598 337.136 99.3099 324.853 99.2821L323.687 99.3211C322.373 99.3043 313.787 99.2821 304.244 99.2598C292.413 99.2264 279.125 99.1874 276.228 99.1651C267.199 99.1874 300.643 99.2598 304.597 99.2932C272.884 99.2264 265.059 99.1985 257.169 99.1818C249.306 99.1651 241.409 99.1261 210.043 99.0927C176.578 99.0425 216.136 99.037 200.122 98.9868C170.529 98.9701 141.584 99.0648 107.691 99.2598L118.331 99.1595C90.4868 99.2765 68.2182 99.3768 48.1511 99.4325C28.0771 99.4882 10.28 99.516 -8.59379 99.5439C-14.7216 99.5383 -20.6711 99.5327 -26.4731 99.5216V98.9701C-12.3589 98.9757 1.24432 98.9701 14.5081 98.959C31.4136 98.9423 47.5715 98.9088 63.7295 98.8531C79.9012 98.7918 96.0111 98.7194 112.491 98.647C128.965 98.5746 145.805 98.5022 163.417 98.4632C181.015 98.4186 199.46 98.413 218.615 98.4465C237.805 98.4743 257.831 98.5412 279.064 98.6024C300.341 98.6637 322.668 98.7194 346.905 98.7083C432.64 98.6693 486.878 98.5746 541.894 98.4966C596.918 98.413 652.716 98.3183 741.657 98.2125C784.075 98.1512 827.93 98.0955 871.565 98.051C915.177 98.012 958.555 97.973 1000.03 97.934C1039.43 97.9618 1108.94 97.817 1155.54 97.8281L1173.58 97.7669C1189.65 97.7669 1208.49 97.7613 1224.61 97.7223L1223.59 97.7111C1247.58 97.7167 1274.62 97.6722 1286.54 97.6722L1285.53 97.661L1314.66 97.6387L1309.65 97.6276C1351.48 97.6109 1394.58 97.5663 1432.54 97.5106L1429.42 97.5663C1469.99 97.4939 1497.73 97.4772 1524.44 97.4605C1551.19 97.4382 1577.01 97.427 1613.74 97.3825L1612.71 97.3713C1659.14 97.427 1695.76 97.4215 1732.8 97.427C1751.31 97.427 1769.9 97.4326 1789.82 97.4493C1809.78 97.4716 1831.04 97.4995 1855.01 97.5775C1843.08 97.5385 1860.15 97.5607 1859.19 97.5496C1881.24 97.5997 1903.98 97.6722 1921.22 97.7334C1932.82 97.778 1941.94 97.817 1946.77 97.856V98.4855Z" fill="#829577"/>
</g>
</g>
</svg>
