<svg width="24" height="24" viewBox="0 0 24 24" fill="none" xmlns="http://www.w3.org/2000/svg">
<path fill-rule="evenodd" clip-rule="evenodd" d="M4.59259 5.45455C3.97894 5.45455 3.48148 5.94296 3.48148 6.54545V17.4545C3.48148 18.057 3.97894 18.5455 4.59259 18.5455H19.4074C20.0211 18.5455 20.5185 18.057 20.5185 17.4545V6.54545C20.5185 5.94296 20.0211 5.45455 19.4074 5.45455H4.59259ZM2 6.54545C2 5.13964 3.16074 4 4.59259 4H19.4074C20.8393 4 22 5.13964 22 6.54545V17.4545C22 18.8604 20.8393 20 19.4074 20H4.59259C3.16074 20 2 18.8604 2 17.4545V6.54545Z" fill="#4F8147"/>
<path fill-rule="evenodd" clip-rule="evenodd" d="M2.11564 7.34192C2.33505 6.99828 2.79282 6.89672 3.1381 7.11509L11.4413 12.3663C11.6089 12.4704 11.8025 12.5256 12 12.5256C12.1975 12.5256 12.3911 12.4704 12.5587 12.3663C12.5593 12.366 12.5598 12.3656 12.5604 12.3653L20.8619 7.11509C21.2072 6.89672 21.665 6.99828 21.8844 7.34192C22.1038 7.68556 22.0017 8.14116 21.6564 8.35953L13.347 13.6147C12.9432 13.8665 12.4764 14 12 14C11.5236 14 11.0568 13.8665 10.653 13.6147L10.649 13.6122L2.34355 8.35953C1.99827 8.14116 1.89623 7.68556 2.11564 7.34192Z" fill="#4F8147"/>
</svg>
