<svg width="24" height="24" viewBox="0 0 24 24" fill="none" xmlns="http://www.w3.org/2000/svg">
<path d="M6.465 16.59C7.23 16.005 8.085 15.5436 9.03 15.2058C9.975 14.8686 10.965 14.7 12 14.7C13.035 14.7 14.025 14.8686 14.97 15.2058C15.915 15.5436 16.77 16.005 17.535 16.59C18.06 15.975 18.4689 15.2775 18.7617 14.4975C19.0539 13.7175 19.2 12.885 19.2 12C19.2 10.005 18.4989 8.3061 17.0967 6.9033C15.6939 5.5011 13.995 4.8 12 4.8C10.005 4.8 8.3064 5.5011 6.9042 6.9033C5.5014 8.3061 4.8 10.005 4.8 12C4.8 12.885 4.9464 13.7175 5.2392 14.4975C5.5314 15.2775 5.94 15.975 6.465 16.59ZM12 12.9C11.115 12.9 10.3686 12.5964 9.7608 11.9892C9.1536 11.3814 8.85 10.635 8.85 9.75C8.85 8.865 9.1536 8.1186 9.7608 7.5108C10.3686 6.9036 11.115 6.6 12 6.6C12.885 6.6 13.6314 6.9036 14.2392 7.5108C14.8464 8.1186 15.15 8.865 15.15 9.75C15.15 10.635 14.8464 11.3814 14.2392 11.9892C13.6314 12.5964 12.885 12.9 12 12.9ZM12 21C10.755 21 9.585 20.7636 8.49 20.2908C7.395 19.8186 6.4425 19.1775 5.6325 18.3675C4.8225 17.5575 4.1814 16.605 3.7092 15.51C3.2364 14.415 3 13.245 3 12C3 10.755 3.2364 9.585 3.7092 8.49C4.1814 7.395 4.8225 6.4425 5.6325 5.6325C6.4425 4.8225 7.395 4.1811 8.49 3.7083C9.585 3.2361 10.755 3 12 3C13.245 3 14.415 3.2361 15.51 3.7083C16.605 4.1811 17.5575 4.8225 18.3675 5.6325C19.1775 6.4425 19.8186 7.395 20.2908 8.49C20.7636 9.585 21 10.755 21 12C21 13.245 20.7636 14.415 20.2908 15.51C19.8186 16.605 19.1775 17.5575 18.3675 18.3675C17.5575 19.1775 16.605 19.8186 15.51 20.2908C14.415 20.7636 13.245 21 12 21ZM12 19.2C12.795 19.2 13.545 19.0839 14.25 18.8517C14.955 18.6189 15.6 18.285 16.185 17.85C15.6 17.415 14.955 17.0811 14.25 16.8483C13.545 16.6161 12.795 16.5 12 16.5C11.205 16.5 10.455 16.6161 9.75 16.8483C9.045 17.0811 8.4 17.415 7.815 17.85C8.4 18.285 9.045 18.6189 9.75 18.8517C10.455 19.0839 11.205 19.2 12 19.2ZM12 11.1C12.39 11.1 12.7125 10.9725 12.9675 10.7175C13.2225 10.4625 13.35 10.14 13.35 9.75C13.35 9.36 13.2225 9.0375 12.9675 8.7825C12.7125 8.5275 12.39 8.4 12 8.4C11.61 8.4 11.2875 8.5275 11.0325 8.7825C10.7775 9.0375 10.65 9.36 10.65 9.75C10.65 10.14 10.7775 10.4625 11.0325 10.7175C11.2875 10.9725 11.61 11.1 12 11.1Z" fill="#A8CF45"/>
</svg>
