<svg width="24" height="24" viewBox="0 0 24 24" fill="none" xmlns="http://www.w3.org/2000/svg">
<path d="M5 7.83333C5 7.3731 5.3731 7 5.83333 7H19.1667C19.6269 7 20 7.3731 20 7.83333V7.83333C20 8.29357 19.6269 8.66667 19.1667 8.66667H5.83333C5.3731 8.66667 5 8.29357 5 7.83333V7.83333ZM5 12C5 11.5398 5.3731 11.1667 5.83333 11.1667H19.1667C19.6269 11.1667 20 11.5398 20 12V12C20 12.4602 19.6269 12.8333 19.1667 12.8333H5.83333C5.3731 12.8333 5 12.4602 5 12V12ZM5 16.1667C5 15.7064 5.3731 15.3333 5.83333 15.3333H19.1667C19.6269 15.3333 20 15.7064 20 16.1667V16.1667C20 16.6269 19.6269 17 19.1667 17H5.83333C5.3731 17 5 16.6269 5 16.1667V16.1667Z" fill="#A8CF45"/>
</svg>
