<svg width="102" height="77" viewBox="0 0 102 77" fill="none" xmlns="http://www.w3.org/2000/svg">
<path d="M94.6614 27.821C96.4539 35.2436 93.2898 43.1968 86.5663 50.0718C79.8486 56.9409 69.6283 62.6711 57.4916 65.602C45.3549 68.5329 33.6459 68.0985 24.5336 65.0521C15.4137 62.0032 8.9687 56.3705 7.17621 48.9478C5.38371 41.5252 8.54779 33.572 15.2712 26.697C21.989 19.8279 32.2093 14.0977 44.346 11.1668C56.4827 8.23589 68.1917 8.67035 77.3039 11.7167C86.4239 14.7656 92.8689 20.3983 94.6614 27.821Z" stroke="#A8CF45"/>
<path d="M89.3078 42.7558C87.1175 59.3557 68.3413 70.7538 47.1489 67.9575C25.9565 65.1613 10.7792 49.2833 12.9694 32.6834C15.1597 16.0836 33.9359 4.68548 55.1283 7.48169C76.3207 10.2779 91.498 26.1559 89.3078 42.7558Z" stroke="#DFEBE3"/>
<path d="M92.9189 40.8844C92.9189 49.2487 88.3267 56.8621 80.8205 62.4024C73.3144 67.9426 62.9211 71.3844 51.4189 71.3844C39.9168 71.3844 29.5235 67.9426 22.0174 62.4024C14.5112 56.8621 9.91895 49.2487 9.91895 40.8844C9.91895 32.5201 14.5112 24.9067 22.0174 19.3664C29.5235 13.8262 39.9168 10.3844 51.4189 10.3844C62.9211 10.3844 73.3144 13.8262 80.8205 19.3664C88.3267 24.9067 92.9189 32.5201 92.9189 40.8844Z" stroke="#4F8147"/>
</svg>
