<svg width="24" height="24" viewBox="0 0 24 24" fill="none" xmlns="http://www.w3.org/2000/svg">
<path d="M18.7593 21H14.128C14.9084 20.3031 15.6442 19.5579 16.3312 18.7687C18.8999 15.8156 20.2593 12.6937 20.2593 9.75C20.2593 7.56196 19.3901 5.46354 17.8429 3.91637C16.2957 2.36919 14.1973 1.5 12.0093 1.5C9.82124 1.5 7.72282 2.36919 6.17565 3.91637C4.62847 5.46354 3.75928 7.56196 3.75928 9.75C3.75928 12.6937 5.11865 15.8156 7.69678 18.7687C8.38125 19.5602 9.11723 20.3055 9.8999 21H5.25928C5.06036 21 4.8696 21.079 4.72895 21.2197C4.5883 21.3603 4.50928 21.5511 4.50928 21.75C4.50928 21.9489 4.5883 22.1397 4.72895 22.2803C4.8696 22.421 5.06036 22.5 5.25928 22.5H18.7593C18.9582 22.5 19.149 22.421 19.2896 22.2803C19.4303 22.1397 19.5093 21.9489 19.5093 21.75C19.5093 21.5511 19.4303 21.3603 19.2896 21.2197C19.149 21.079 18.9582 21 18.7593 21ZM5.25928 9.75C5.25928 7.95979 5.97044 6.2429 7.23631 4.97703C8.50218 3.71116 10.2191 3 12.0093 3C13.7995 3 15.5164 3.71116 16.7822 4.97703C18.0481 6.2429 18.7593 7.95979 18.7593 9.75C18.7593 15.1125 13.5562 19.5938 12.0093 20.8125C10.4624 19.5938 5.25928 15.1125 5.25928 9.75ZM15.7593 9.75C15.7593 9.00832 15.5393 8.2833 15.1273 7.66661C14.7152 7.04993 14.1296 6.56928 13.4443 6.28545C12.7591 6.00162 12.0051 5.92736 11.2777 6.07205C10.5503 6.21675 9.88207 6.5739 9.35763 7.09835C8.83318 7.6228 8.47603 8.29098 8.33133 9.01841C8.18664 9.74584 8.2609 10.4998 8.54473 11.1851C8.82856 11.8703 9.3092 12.456 9.92589 12.868C10.5426 13.2801 11.2676 13.5 12.0093 13.5C13.0038 13.5 13.9577 13.1049 14.6609 12.4017C15.3642 11.6984 15.7593 10.7446 15.7593 9.75ZM9.75928 9.75C9.75928 9.30499 9.89124 8.86998 10.1385 8.49997C10.3857 8.12996 10.7371 7.84157 11.1482 7.67127C11.5594 7.50097 12.0118 7.45642 12.4482 7.54323C12.8847 7.63005 13.2856 7.84434 13.6003 8.15901C13.9149 8.47368 14.1292 8.87459 14.216 9.31105C14.3029 9.7475 14.2583 10.1999 14.088 10.611C13.9177 11.0222 13.6293 11.3736 13.2593 11.6208C12.8893 11.868 12.4543 12 12.0093 12C11.4133 11.9975 10.8424 11.7597 10.421 11.3383C9.99959 10.9168 9.76175 10.346 9.75928 9.75V9.75Z" fill="#4F8147"/>
</svg>
