<svg width="24" height="24" viewBox="0 0 24 24" fill="none" xmlns="http://www.w3.org/2000/svg">
<path d="M8.4 21C7.905 21 7.4814 20.8239 7.1292 20.4717C6.7764 20.1189 6.6 19.695 6.6 19.2C6.6 18.705 6.7764 18.2811 7.1292 17.9283C7.4814 17.5761 7.905 17.4 8.4 17.4C8.895 17.4 9.3186 17.5761 9.6708 17.9283C10.0236 18.2811 10.2 18.705 10.2 19.2C10.2 19.695 10.0236 20.1189 9.6708 20.4717C9.3186 20.8239 8.895 21 8.4 21ZM17.4 21C16.905 21 16.4814 20.8239 16.1292 20.4717C15.7764 20.1189 15.6 19.695 15.6 19.2C15.6 18.705 15.7764 18.2811 16.1292 17.9283C16.4814 17.5761 16.905 17.4 17.4 17.4C17.895 17.4 18.3189 17.5761 18.6717 17.9283C19.0239 18.2811 19.2 18.705 19.2 19.2C19.2 19.695 19.0239 20.1189 18.6717 20.4717C18.3189 20.8239 17.895 21 17.4 21ZM7.635 6.6L9.795 11.1H16.095L18.57 6.6H7.635ZM8.4 16.5C7.725 16.5 7.215 16.2036 6.87 15.6108C6.525 15.0186 6.51 14.43 6.825 13.845L8.04 11.64L4.8 4.8H3.8775C3.6225 4.8 3.4125 4.7136 3.2475 4.5408C3.0825 4.3686 3 4.155 3 3.9C3 3.645 3.0864 3.4311 3.2592 3.2583C3.4314 3.0861 3.645 3 3.9 3H5.3625C5.5275 3 5.685 3.045 5.835 3.135C5.985 3.225 6.0975 3.3525 6.1725 3.5175L6.78 4.8H20.055C20.46 4.8 20.7375 4.95 20.8875 5.25C21.0375 5.55 21.03 5.865 20.865 6.195L17.67 11.955C17.505 12.255 17.2875 12.4875 17.0175 12.6525C16.7475 12.8175 16.44 12.9 16.095 12.9H9.39L8.4 14.7H18.3225C18.5775 14.7 18.7875 14.7861 18.9525 14.9583C19.1175 15.1311 19.2 15.345 19.2 15.6C19.2 15.855 19.1136 16.0686 18.9408 16.2408C18.7686 16.4136 18.555 16.5 18.3 16.5H8.4Z" fill="#A8CF45"/>
</svg>
