<svg width="120" height="120" viewBox="0 0 120 120" fill="none" xmlns="http://www.w3.org/2000/svg">
<path d="M40.2002 115.2C37.7252 115.2 35.6072 114.32 33.8462 112.559C32.0822 110.795 31.2002 108.675 31.2002 106.2C31.2002 103.725 32.0822 101.606 33.8462 99.8415C35.6072 98.0805 37.7252 97.2 40.2002 97.2C42.6752 97.2 44.7932 98.0805 46.5542 99.8415C48.3182 101.606 49.2002 103.725 49.2002 106.2C49.2002 108.675 48.3182 110.795 46.5542 112.559C44.7932 114.32 42.6752 115.2 40.2002 115.2ZM85.2002 115.2C82.7252 115.2 80.6072 114.32 78.8462 112.559C77.0822 110.795 76.2002 108.675 76.2002 106.2C76.2002 103.725 77.0822 101.606 78.8462 99.8415C80.6072 98.0805 82.7252 97.2 85.2002 97.2C87.6752 97.2 89.7947 98.0805 91.5587 99.8415C93.3197 101.606 94.2002 103.725 94.2002 106.2C94.2002 108.675 93.3197 110.795 91.5587 112.559C89.7947 114.32 87.6752 115.2 85.2002 115.2ZM36.3752 43.2L47.1752 65.7H78.6752L91.0502 43.2H36.3752ZM40.2002 92.7C36.8252 92.7 34.2752 91.218 32.5502 88.254C30.8252 85.293 30.7502 82.35 32.3252 79.425L38.4002 68.4L22.2002 34.2H17.5877C16.3127 34.2 15.2627 33.768 14.4377 32.904C13.6127 32.043 13.2002 30.975 13.2002 29.7C13.2002 28.425 13.6322 27.3555 14.4962 26.4915C15.3572 25.6305 16.4252 25.2 17.7002 25.2H25.0127C25.8377 25.2 26.6252 25.425 27.3752 25.875C28.1252 26.325 28.6877 26.9625 29.0627 27.7875L32.1002 34.2H98.4752C100.5 34.2 101.888 34.95 102.638 36.45C103.388 37.95 103.35 39.525 102.525 41.175L86.5502 69.975C85.7252 71.475 84.6377 72.6375 83.2877 73.4625C81.9377 74.2875 80.4002 74.7 78.6752 74.7H45.1502L40.2002 83.7H89.8127C91.0877 83.7 92.1377 84.1305 92.9627 84.9915C93.7877 85.8555 94.2002 86.925 94.2002 88.2C94.2002 89.475 93.7682 90.543 92.9042 91.404C92.0432 92.268 90.9752 92.7 89.7002 92.7H40.2002Z" fill="#A8CF45"/>
<path d="M41.5259 20.467L37.7532 14.7687" stroke="#A8CF45" stroke-width="10" stroke-linecap="round"/>
<line x1="88.285" y1="19.9279" x2="91.423" y2="15.5506" stroke="#A8CF45" stroke-width="10" stroke-linecap="round"/>
<line x1="63.7981" y1="17.4312" x2="64.2311" y2="11.8018" stroke="#A8CF45" stroke-width="10" stroke-linecap="round"/>
</svg>
