<svg width="64" height="64" viewBox="0 0 64 64" fill="none" xmlns="http://www.w3.org/2000/svg">
<path d="M5.3335 58.6667L32.0002 32M42.6668 21.3334L39.5468 24.4534M42.6668 21.3334H48.0002C50.8291 21.3334 53.5422 20.2096 55.5426 18.2092C57.543 16.2088 58.6668 13.4957 58.6668 10.6667V5.33337H53.3335C50.5045 5.33337 47.7914 6.45718 45.791 8.45757C43.7906 10.458 42.6668 13.1711 42.6668 16V21.3334ZM21.3335 21.3334L19.9202 22.7467C18.1778 24.496 17.1995 26.8644 17.1995 29.3334C17.1995 31.8024 18.1778 34.1708 19.9202 35.92L24.0002 40L28.0802 35.92C29.5468 34.4534 30.4268 32.5867 30.6935 30.6667M29.0935 14.0267C29.4935 13.3334 30.0002 12.6667 30.5868 12.08L34.6668 8.00004L38.7468 12.08C40.3497 13.6907 41.3099 15.8308 41.4474 18.099C41.5848 20.3672 40.8901 22.6076 39.4935 24.4M9.2535 33.4134L13.3335 29.3334L17.4135 33.4134C19.1559 35.1626 20.1342 37.531 20.1342 40C20.1342 42.469 19.1559 44.8374 17.4135 46.5867L13.3335 50.6667L9.2535 46.5867C7.51109 44.8374 6.5328 42.469 6.5328 40C6.5328 37.531 7.51109 35.1626 9.2535 33.4134Z" stroke="#A8CF45" stroke-width="4" stroke-linecap="round" stroke-linejoin="round"/>
<path d="M42.6668 42.6667L41.2535 44.08C39.5042 45.8224 37.1358 46.8007 34.6668 46.8007C32.1978 46.8007 29.8294 45.8224 28.0802 44.08L24.0002 40L28.0802 35.92C29.5037 34.5053 31.3464 33.5886 33.3335 33.3067M49.9735 34.9067C50.6668 34.5067 51.3335 34 51.9202 33.4134L56.0002 29.3334L51.9202 25.2534C50.3095 23.6505 48.1694 22.6903 45.9012 22.5528C43.633 22.4154 41.3926 23.1101 39.6002 24.5067M5.3335 5.33337L58.6668 58.6667M30.5868 46.5867L34.6668 50.6667L30.5868 54.7467C28.8376 56.4891 26.4692 57.4674 24.0002 57.4674C21.5312 57.4674 19.1628 56.4891 17.4135 54.7467L13.3335 50.6667L17.4135 46.5867C19.1628 44.8443 21.5312 43.866 24.0002 43.866C26.4692 43.866 28.8376 44.8443 30.5868 46.5867Z" stroke="#A8CF45" stroke-width="4" stroke-linecap="round" stroke-linejoin="round"/>
</svg>
