<svg width="64" height="64" viewBox="0 0 64 64" fill="none" xmlns="http://www.w3.org/2000/svg">
<path d="M32 54.6933C35.2413 54.6933 36.5747 56.44 38.312 56.828C40.0493 57.2173 41.508 57.324 43.0013 56.6667C45.96 55.3627 47.7627 53.8107 49.9507 51.492C54.0067 47.1933 56 41.2853 56 33.372C56 25.4587 53.8667 21.368 50.5773 18.6933C47.2893 16.0187 45.3827 15.5067 41.4067 16.0187C37.4307 16.5307 35.2653 20.8027 32.0107 20.8027C28.7573 20.8027 24.7907 16.5907 21.3413 16.0187C17.8907 15.4453 16 16.0187 13.0133 18.6933C10.0267 21.368 8 25.5333 8 33.3733C8 41.2107 10.0693 47.0213 14.124 51.32C16.3107 53.6387 18.04 55.364 20.9973 56.6667C22.4907 57.3253 24.036 57.2187 25.712 56.8293C27.3893 56.4427 28.7227 54.696 32 54.696V54.6933Z" stroke="#A8CF45" stroke-width="4"/>
<path d="M32.0118 20.8027C33.0585 10.4907 37.5038 5.33337 45.3465 5.33337C46.0665 7.50404 46.2532 9.60404 45.9038 11.6347C45.7398 12.6 45.2265 13.976 44.3665 15.7627M18.9718 34.6667C18.6025 36.4614 18.6025 38.308 18.9718 40.2094C19.3398 42.1094 20.1252 43.576 21.3278 44.6094" stroke="#A8CF45" stroke-width="4" stroke-linecap="round"/>
</svg>
