<svg width="620" height="452" viewBox="0 0 620 452" fill="none" xmlns="http://www.w3.org/2000/svg">
<path fill-rule="evenodd" clip-rule="evenodd" d="M539.315 91.1093C546.506 90.066 547.521 96.7066 546.808 101.893C546.454 104.464 546.337 107.754 543.494 108.597C539.847 109.677 535.632 108.607 534.007 105.145C531.985 100.837 533.216 97.1498 535.856 93.5332C536.829 92.2011 537.539 91.367 539.315 91.1093Z" fill="#FFFFFE"/>
<path fill-rule="evenodd" clip-rule="evenodd" d="M500.028 85.0038C506.562 85.2018 507.144 94.7195 504.595 100.013C503.049 103.225 500.859 103.565 498.124 104.723C494.685 106.177 490.964 106.858 487.734 104.17C482.771 100.042 489.814 92.8984 492.056 89.7034C493.157 88.1365 494.185 86.649 495.825 85.8692C497.102 85.2617 498.663 84.9622 500.028 85.0038Z" fill="#FFFFFE"/>
<path fill-rule="evenodd" clip-rule="evenodd" d="M555.949 146.506C555.502 152.996 548.541 167.737 540.34 159.624C535.983 155.314 538.383 148.001 542.069 144.256C543.622 142.677 544.57 140.767 546.002 139.12C546.875 138.116 548.078 137.085 549.294 136.542C555.529 133.757 556.231 142.412 555.949 146.506Z" fill="#FFFFFE"/>
<path fill-rule="evenodd" clip-rule="evenodd" d="M516.328 117.373C522.468 119.016 523.167 124.936 520.594 129.818C519.615 131.676 518.23 134.944 516.402 136.17C513.991 137.787 509.821 136.764 507.523 135.457C503.33 133.073 503.471 128.909 504.917 124.89C506.036 121.784 507.967 118.408 511.418 117.331C513.024 116.83 514.72 116.942 516.328 117.373Z" fill="#FFFFFE"/>
<path fill-rule="evenodd" clip-rule="evenodd" d="M464.612 153.255C463.153 159.157 458.898 163.227 452.534 161.664C450.801 161.237 446.593 160.178 445.557 158.485C444.6 156.919 445.078 153.909 445.501 152.163C446.359 148.617 449.028 146.562 451.319 143.928C453.855 141.01 456.836 139.996 460.821 142.166C464.809 144.338 465.607 149.233 464.612 153.255Z" fill="#FFFFFE"/>
<path fill-rule="evenodd" clip-rule="evenodd" d="M591.581 82.5939C592.907 86.4428 590.829 90.9601 588.921 94.2477C586.872 97.7739 582.424 97.0884 578.73 96.5989C577.079 93.6572 578.516 87.4887 580.188 84.7162C581.03 83.3184 582.318 82.4368 583.682 81.5893C586.376 79.9163 590.239 78.6914 591.581 82.5939Z" fill="#FFFFFE"/>
<path fill-rule="evenodd" clip-rule="evenodd" d="M495.196 57.4265C498.686 56.3331 502.057 57.3042 503.379 60.7777C504.39 63.435 504.366 67.3167 501.794 69.1153C499.58 70.6642 495.222 71.6889 492.545 71.961C489.08 72.3155 487.785 70.2199 488.029 67.0359C488.241 64.285 488.733 61.2046 491.062 59.3536C492.235 58.4238 493.77 57.8733 495.196 57.4265Z" fill="#FFFFFE"/>
<path fill-rule="evenodd" clip-rule="evenodd" d="M447.345 78.005C453.193 77.7932 455.046 84.3206 454.999 88.9142C454.955 93.1914 451.216 99.9355 445.954 98.8918C437.992 97.311 437.665 88.386 440.99 82.6289C442.306 80.3459 444.486 78.1097 447.345 78.005Z" fill="#FFFFFE"/>
<path fill-rule="evenodd" clip-rule="evenodd" d="M242.213 20.2154C241.931 18.595 239.615 18.9112 239.156 20.2154C237.387 25.2536 236.722 30.5369 234.572 35.4961C232.487 40.3082 229.589 44.8406 226.033 48.7516C219.275 56.1849 210.296 61.1045 200.871 64.6299C182.156 71.63 161.025 74.0566 144.339 85.5653C126.354 97.9704 117.798 118.855 102.307 133.64C87.9118 147.379 69.5344 156.455 50.2192 161.637C40.3741 164.278 30.2596 165.96 20.0933 166.844C9.83767 167.737 -0.411459 167.57 -10.6914 167.372C-13.1953 167.323 -15.704 167.413 -18.2111 167.399C-19.6456 167.391 -20.0156 169.577 -18.5568 169.886C-8.19891 172.074 2.19788 172.459 12.7683 172.072C23.2495 171.688 33.6998 170.464 43.9457 168.256C64.0318 163.927 83.3812 155.759 99.3309 142.962C107.707 136.243 114.581 128.252 120.858 119.669C127.432 110.682 133.601 101.241 142.07 93.7858C157.848 79.8963 179.691 76.9101 199.052 70.204C208.741 66.8478 218.161 62.442 225.793 55.6031C233.884 48.3517 239.617 38.5171 241.957 28.0581C242.247 26.7618 242.603 25.3769 242.678 24.0506C242.749 22.7985 242.428 21.4532 242.213 20.2154Z" fill="#4C544F"/>
<path fill-rule="evenodd" clip-rule="evenodd" d="M8.53786 152.501C17.8653 151.82 27.1424 150.34 36.2167 148.131C53.8427 143.841 70.8148 136.276 84.5998 124.602C91.8631 118.449 97.7536 111.15 102.971 103.303C108.626 94.796 113.882 85.91 121.884 79.2387C137.03 66.6091 157.454 62.902 175.156 54.9692C184.386 50.8337 193.266 45.2516 200.136 37.8879C206.475 31.0949 212.475 21.4343 210.212 11.9238C209.924 10.7191 208.087 10.776 207.766 11.9238C206.643 15.9502 205.699 20.1253 203.951 23.9557C202.254 27.6755 199.868 31.0886 197.092 34.1176C191.073 40.6845 183.432 45.6816 175.375 49.5721C158.364 57.7832 139.088 61.1963 123.347 71.9604C115.013 77.6594 108.829 85.1859 103.247 93.3922C97.8494 101.327 92.7183 109.31 85.7682 116.075C73.3852 128.129 57.6496 135.968 41.0816 141.059C31.4183 144.027 21.5099 145.872 11.4993 147.306C1.31187 148.765 -9.02813 149.677 -19.3146 150.052C-20.7945 150.106 -20.7718 152.17 -19.3146 152.275C-10.0326 152.942 -0.748989 153.179 8.53786 152.501Z" fill="#4C544F"/>
<path fill-rule="evenodd" clip-rule="evenodd" d="M77.3384 89.9253C73.9761 96.0543 70.3233 102.144 65.3659 107.195C59.7853 112.883 52.7508 116.531 45.077 118.817C35.8356 121.57 26.1365 122.746 16.6095 124.157C6.11051 125.711 -4.18081 125.999 -14.6295 124.015C-15.5512 123.84 -16.2782 125.142 -15.3127 125.596C-6.92321 129.539 2.9251 129.681 12.027 128.954C21.0996 128.228 30.2664 126.861 39.1654 124.984C47.5533 123.214 55.9703 120.487 62.9253 115.447C68.8596 111.147 73.4795 105.513 77.3546 99.4216C85.2248 87.0497 90.2374 72.5231 101.226 62.2632C113.564 50.7435 130.76 46.4799 145.689 39.2047C153.567 35.3664 161.142 30.3677 167.007 23.9082C172.513 17.8424 177.303 9.78475 176.081 1.4267C175.854 -0.127289 173.379 0.0418639 173.024 1.4267C172.14 4.87616 171.331 8.4173 169.817 11.6723C168.326 14.8783 166.288 17.8361 163.909 20.4793C158.843 26.1072 152.485 30.491 145.743 34.0163C131.523 41.4543 115.456 45.3764 102.5 55.075C90.5035 64.0544 84.2933 77.2546 77.3384 89.9253Z" fill="#4C544F"/>
<path fill-rule="evenodd" clip-rule="evenodd" d="M-15.8221 100.566C-1.5584 102.043 12.8108 103.129 26.9707 100.229C38.2811 97.915 49.3335 93.046 57.7148 85.1669C61.9502 81.1863 65.3384 76.4848 67.7871 71.2743C70.4743 65.5563 72.4979 59.4826 76.8159 54.6672C84.5433 46.0468 95.8554 41.8496 105.908 36.462C111.408 33.5152 116.767 30.0753 121.202 25.7121C125.546 21.4358 129.266 16.1573 129.514 9.99665C129.585 8.23398 127.176 8.1992 126.588 9.61092C124.555 14.5005 122.028 19.0029 118.155 22.7432C114.223 26.542 109.548 29.5251 104.719 32.1241C95.0375 37.3378 84.4801 41.2362 76.2009 48.6109C71.7433 52.5805 68.6828 57.4006 66.2698 62.755C63.8455 68.1283 61.5915 73.5096 57.6808 78.0562C50.6657 86.2087 40.7087 91.6659 30.3135 94.611C15.4624 98.8177 -0.506873 98.6075 -15.8221 98.1585C-17.4432 98.1111 -17.3702 100.406 -15.8221 100.566Z" fill="#4C544F"/>
<path fill-rule="evenodd" clip-rule="evenodd" d="M-10.0231 77.8569C-2.99991 81.504 5.44799 82.7134 13.1933 80.7452C20.4809 78.8924 26.5174 74.5292 31.4051 69.0578C36.3219 63.5501 40.1921 57.2693 44.6011 51.3885C49.307 45.1108 54.8307 39.7074 62.0097 36.1568C66.2352 34.0669 70.6523 32.9492 75.2495 31.9454C79.4085 31.0379 84.0592 29.9535 86.331 26.0946C86.7903 25.3168 86.0227 24.1944 85.0783 24.5074C81.531 25.6867 78.0519 26.9056 74.3764 27.6754C70.4803 28.4928 66.6669 29.3116 62.9703 30.804C55.7914 33.7033 49.6331 38.359 44.6692 44.1592C35.8611 54.4506 30.0047 68.3781 17.3117 74.8912C9.35551 78.973 -0.63398 79.403 -8.90338 75.9899C-10.1772 75.4651 -11.318 77.1835 -10.0231 77.8569Z" fill="#4C544F"/>
<mask id="mask0_2230_1346" style="mask-type:alpha" maskUnits="userSpaceOnUse" x="-99" y="247" width="300" height="205">
<path d="M-99 247.979H200.639V451.361H-99V247.979Z" fill="white"/>
</mask>
<g mask="url(#mask0_2230_1346)">
<path fill-rule="evenodd" clip-rule="evenodd" d="M-74.9379 377.598C-70.7091 382.785 -66.0535 387.62 -61.5017 392.539C-67.3744 387.462 -73.8994 382.53 -80.7619 379.482C-88.0674 376.237 -94.1866 371.636 -101.883 369.011C-106.602 367.401 -111.441 367.774 -116.269 367.608C-113.168 364.303 -109.925 361.112 -106.699 358.017C-103.282 354.738 -99.5546 351.819 -96.0025 348.7C-90.4609 359.228 -82.5144 368.307 -74.9379 377.598ZM191.062 249.876C183.082 251.094 175.017 251.495 167.038 252.795C150.884 255.428 134.603 257.76 118.538 260.893C111.18 262.329 103.826 263.995 96.4299 265.228C87.8944 266.652 79.3101 266.637 70.8233 268.459C54.4192 271.982 38.4256 276.957 22.6446 282.547C10.4872 286.853 -1.78874 291.461 -13.6038 296.611C-26.498 302.233 -38.2481 309.73 -50.9589 315.704C-56.8559 318.473 -63.1164 320.312 -69.1204 322.821C-79.5886 327.195 -89.755 333.273 -99.0532 339.644C-113.095 349.265 -124.804 361.481 -136.266 373.821L-136.442 395.089C-134.825 391.506 -132.131 388.431 -129.877 385.216C-127.842 382.312 -125.982 379.292 -123.839 376.461C-122.872 375.185 -121.835 373.948 -120.794 372.711C-117.28 376.314 -112.934 379.062 -108.669 382.484C-100.669 388.904 -93.6576 396.355 -86.2661 403.396C-83.1846 406.333 -79.7493 408.882 -76.1631 411.204C-69.6413 415.425 -63.3127 420.292 -56.0672 423.241C-48.5248 426.311 -41.2745 429.959 -33.7824 433.123C-31.9714 433.889 -30.0923 434.724 -28.1824 435.543C-25.4578 438.128 -22.5645 440.537 -19.4067 442.698C-16.3933 444.759 -13.2452 446.712 -10.0549 448.503C-8.20661 449.542 -5.6703 451.342 -3.40335 451.361C0.885509 451.397 -0.69827 448.122 -2.13925 445.577C-5.01958 440.493 -7.28978 435.045 -10.3178 430.024C-15.0691 422.15 -20.8687 415.482 -26.7949 408.478C-33.2534 400.846 -38.6749 392.368 -44.5994 384.343C-48.3025 379.329 -52.924 374.929 -56.8559 370.052C-59.4928 366.781 -62.0616 363.365 -65.4612 360.814C-68.2036 358.755 -70.378 356.231 -73.028 354.063C-75.6292 351.937 -78.5777 351.395 -81.518 349.887C-84.5931 348.307 -87.9457 346.673 -90.7205 344.629C-90.826 344.551 -90.9104 344.488 -91.0126 344.412C-88.8836 342.933 -86.568 341.831 -84.2945 340.341C-81.6803 338.628 -79.0758 336.84 -76.4973 335.016C-76.3708 336.502 -76.1906 338.131 -75.4669 339.206C-74.0892 341.252 -70.1817 342.925 -68.2539 344.404C-59.389 351.208 -51.1488 358.814 -42.3633 365.733C-34.9118 371.603 -27.569 377.558 -19.7215 382.93C-12.7129 387.728 -4.95306 389.881 2.62182 393.587C8.37113 396.401 13.4697 399.913 19.4251 402.397C23.9038 404.267 28.3744 406.161 32.8304 408.082C37.2913 410.006 41.8138 411.726 46.351 413.466C48.3372 414.228 51.383 416.067 53.2524 416.116C53.2297 414.173 50.549 412.625 49.2946 411.455C43.9477 406.466 38.7355 401.48 32.7801 397.18C26.7712 392.842 21.2182 388.177 16.2559 382.698C12.4718 378.519 9.17438 374.163 4.55287 370.806C-2.19929 365.903 -7.67274 360.091 -13.706 354.517C-15.9194 352.473 -18.3129 350.677 -20.4306 348.538C-22.5028 346.445 -24.1012 346.05 -26.6797 344.875C-29.2323 343.71 -31.4213 342.31 -34.1978 341.554C-36.9353 340.809 -39.2023 339.32 -41.9641 338.71C-45.1852 337.999 -48.4729 338.022 -51.668 337.162C-54.7106 336.343 -57.4076 335.809 -60.5378 335.472C-64.8624 335.009 -68.6563 333.523 -72.6223 332.232C-70.9476 331.011 -69.2843 329.784 -67.647 328.55C-65.6575 327.05 -63.7038 326.322 -61.6024 325.175C-56.5248 322.402 -52.0672 319.518 -46.5889 317.432C-42.9556 316.047 -39.3191 314.671 -35.6875 313.282C-33.1057 319.746 -30.6505 326.276 -27.9406 332.687C-25.6671 338.062 -22.0079 341.925 -18.618 346.595C-15.1973 351.311 -11.822 356.237 -7.50722 360.271C-2.10679 365.318 4.12122 369.398 10.1853 373.6C18.2876 379.215 25.5038 385.912 34.6544 389.91C44.7867 394.336 54.6804 396.747 65.4991 398.946C68.4898 399.553 75.9235 402.926 78.4663 400.076C78.1223 399.017 77.2006 399.12 76.4493 398.419C74.8428 396.929 73.4359 395.201 71.9414 393.572C68.3616 389.676 64.4817 386.125 60.4265 382.699C50.6463 374.439 40.7915 366.295 31.1607 357.867C18.4839 346.776 8.01251 332.756 -6.506 323.899C-12.0801 320.497 -17.4643 316.515 -23.1844 313.394C-25.1057 312.346 -26.7365 311.48 -28.3868 311.064C-27.4748 311.067 -26.5304 311.266 -25.4156 311.759C-19.5608 314.346 -14.3503 317.341 -8.9839 320.62C-6.21229 322.313 -3.08043 322.236 -0.312063 324.168C1.46807 325.41 2.87984 327.345 4.63725 328.439C6.95288 329.881 9.43726 330.717 11.7091 332.368C13.7423 333.846 15.8568 335.948 17.9225 337.159C22.1448 339.632 25.9371 342.288 30.6333 343.772C34.0962 344.866 38.2211 346.967 41.3676 348.658C44.1717 350.165 47.4739 350.805 50.3624 352.264C52.9003 353.546 54.4549 354.584 57.2865 355.249C60.0598 355.9 62.4874 357.114 65.2054 357.91C67.534 358.589 70.033 358.846 72.4249 359.239C75.7694 359.792 78.5734 361.177 81.8189 361.818C92.3536 363.895 103.847 364.448 114.591 364.26C117.201 364.214 121.957 365.16 124.313 363.819C125.149 363.343 125.193 362.236 126.194 361.724C124.524 360.42 121.897 359.823 120.026 358.825C116.075 356.718 112.164 354.459 108.359 352.114C97.6356 345.506 86.2554 339.633 74.9125 334.099C66.773 330.126 58.0103 327.766 49.5331 324.596C40.2171 321.113 32.0304 315.936 23.1412 311.616C16.5691 308.421 9.6547 306.495 2.94149 303.687C2.07821 303.327 0.937433 302.614 -0.240665 302.146C3.46888 301.941 7.01616 301.092 10.9172 301.907C15.0275 302.769 18.3103 302.973 22.4677 303.023C27.3116 303.082 31.5761 305.219 35.9217 307.069C44.4394 310.695 52.691 313.718 61.637 316.173C67.25 317.713 72.5726 319.547 78.4533 319.762C83.9138 319.961 88.167 320.119 93.4635 321.365C103.06 323.624 112.099 321.58 121.835 321.943C133.415 322.376 144.159 323.235 155.645 321.074C162.175 319.846 168.943 318.986 175.414 317.58C176.685 317.303 182.113 316.167 182.562 314.698C179.036 311.211 173.31 310.4 168.641 309.546C161.54 308.25 154.687 306.546 147.697 304.838C141.887 303.419 136.477 301.741 130.88 299.712C124.219 297.298 116.983 296.608 110.124 294.887C100.604 292.498 92.2205 293.089 82.3933 293.723C73.2103 294.314 63.8878 292.998 54.6885 292.868C45.2508 292.735 35.9996 291.398 26.5894 290.754C23.7627 290.562 20.8564 290.108 18.1351 290.743C20.6373 289.992 23.2694 289.63 25.8268 289.05C32.4735 287.539 39.3295 287.4 45.9437 285.685C49.9437 284.646 53.9161 283.214 58.0589 282.847C60.7007 282.614 63.3555 282.893 65.9892 282.486C71.0229 281.707 74.6172 280.313 79.844 280.999C86.3625 281.857 93.1812 281.264 99.7987 281.595C106.4 281.924 112.584 280.787 119.07 280.058C123.541 279.557 127.635 279.26 132.021 278.077C134.768 277.336 137.459 277.755 140.278 277.619C146.212 277.331 151.312 273.186 156.407 270.858C158.569 269.87 160.972 269.4 163.137 268.426C165.629 267.307 167.499 265.32 169.644 263.699C173.642 260.68 178.321 259.76 182.76 257.611C185.089 256.486 187.174 254.992 189.579 253.993C191.291 253.281 193.24 252.891 194.908 252.074C196.13 251.476 200.735 249.157 200.639 247.979C197.477 248.218 194.21 249.397 191.062 249.876Z" fill="#94B38B"/>
</g>
<mask id="mask1_2230_1346" style="mask-type:alpha" maskUnits="userSpaceOnUse" x="0" y="41" width="439" height="244">
<path d="M0.00585938 41.9189H439V285H0.00585938V41.9189Z" fill="white"/>
</mask>
<g mask="url(#mask1_2230_1346)">
<path fill-rule="evenodd" clip-rule="evenodd" d="M436.097 33.2338C435.844 34.5095 433.979 35.183 432.929 35.7078C431.487 36.4287 430.018 37.0816 428.652 37.9368C424.615 40.4615 420.845 43.0478 416.496 45.0681C414.516 45.9882 412.522 46.8798 410.575 47.8615C408.42 48.9476 406.406 50.3008 404.175 51.2351C400.061 52.9583 395.863 54.0522 391.905 56.1658C383.571 60.6176 376.009 66.4478 367.449 70.468C363.378 72.3808 359.785 74.5798 356.134 77.1677C352.345 79.852 348.449 82.1427 344.379 84.3859C336.639 88.6495 329.958 94.4972 322.162 98.6738C314.201 102.939 306.152 106.98 298.897 112.363C296.056 114.471 293.216 116.732 291.118 119.579C289.325 122.011 289.013 125.16 287.025 127.446C280.708 134.71 272.382 140.328 266.375 147.858C265.081 149.478 263.994 151.23 262.798 152.915C261.521 154.712 259.953 156.227 258.42 157.811C255.35 160.985 252.693 164.462 249.813 167.793C243.66 174.91 236.893 181.53 231.173 189C228.687 192.245 226.396 196.42 222.933 198.785C220.302 200.584 216.795 200.158 214.196 202.254C212.724 203.441 211.723 204.638 209.787 205.153C208.099 205.604 206.319 205.798 204.61 206.193C199.953 207.272 195.247 207.6 190.683 209.112C186.441 210.517 182.379 212.378 178.193 213.922C174.181 215.402 170.222 216.257 165.985 216.823C162.038 217.35 158.949 219.261 155.409 220.889C151.173 222.837 146.52 223.793 142.089 225.232C137.722 226.647 133.787 228.482 129.683 230.471C127.539 231.511 125.324 232.295 122.924 232.502C120.586 232.701 118.233 232.527 115.896 232.761C111.518 233.199 107.406 234.591 102.968 234.613C98.3642 234.635 93.8027 235.266 89.2932 236.137C79.8749 237.953 70.7292 240.297 61.7621 243.652C53.3012 246.817 44.6504 249.55 36.2496 252.848C19.0195 259.612 3.22553 269.283 -12.0102 279.538C-15.7035 282.023 -19.3677 284.549 -23.0204 287.088C-24.0703 287.818 -23.0837 289.519 -21.9981 288.795C-6.52542 278.461 9.18418 268.427 26.1205 260.493C34.734 256.457 43.6622 253.675 52.6099 250.489C61.285 247.4 69.7962 243.805 78.8429 241.837C83.6169 240.799 88.3974 239.709 93.2283 238.947C97.9926 238.195 102.781 238.536 107.526 237.89C109.42 237.632 111.276 237.194 113.149 236.832C115.727 236.331 118.251 236.298 120.87 236.255C125.311 236.184 129.076 234.976 132.995 233.006C141.204 228.876 150.434 227.641 158.671 223.668C160.5 222.786 162.269 221.675 164.25 221.145C166.191 220.627 168.226 220.575 170.205 220.271C174.636 219.594 178.842 218.042 182.98 216.411C187.109 214.782 191.208 213.023 195.543 211.957C197.751 211.413 200.004 211.138 202.249 210.789C204.539 210.435 206.757 209.798 209.044 209.448C210.671 209.202 212.249 208.802 213.698 208C215.41 207.053 216.486 205.341 218.314 204.598C219.643 204.058 221.102 203.937 222.469 203.525C224.098 203.033 225.477 202.164 226.731 201.048C229.832 198.286 232.114 194.658 234.595 191.39C237.51 187.553 240.784 183.976 244.046 180.419C247.277 176.897 250.548 173.406 253.646 169.77C256.564 166.344 259.348 162.89 262.506 159.661C265.508 156.59 267.489 152.907 270.31 149.723C273.498 146.125 277.219 142.888 280.695 139.553C284.074 136.313 287.931 133.187 290.821 129.515C292.685 127.145 292.994 124.069 294.821 121.687C297.021 118.817 300.158 116.53 303.116 114.454C307.034 111.705 311.155 109.248 315.356 106.934C319.452 104.678 323.707 102.678 327.688 100.234C331.507 97.8881 335.108 95.2307 338.793 92.6981C342.54 90.1229 346.459 87.9887 350.406 85.736C354.44 83.4342 358.073 80.5855 361.896 77.9787C365.484 75.5299 369.58 74.0344 373.377 71.9445C377.541 69.6522 381.453 66.8857 385.502 64.4037C389.547 61.9218 393.693 59.2011 398.114 57.3942C400.137 56.569 402.25 55.973 404.288 55.1857C406.541 54.3162 408.541 53.1448 410.635 51.9718C414.58 49.7602 418.831 48.1145 422.774 45.9028C426.362 43.8888 429.473 41.1903 433.163 39.3438C435.459 38.1945 438.43 36.7196 438.969 34.0052C439.331 32.1809 436.46 31.3984 436.097 33.2338Z" fill="#94B38B"/>
</g>
</svg>
