<svg width="64" height="64" viewBox="0 0 64 64" fill="none" xmlns="http://www.w3.org/2000/svg">
<path d="M46.6665 24L41.4932 40.816C41.3865 41.1614 41.2865 41.5014 41.1625 41.84C40.4318 43.8374 37.1758 51.2267 28.0012 54.6667C17.3332 58.6667 6.66517 53.3334 6.6665 42.7694C6.6665 32.2054 17.3332 33.3334 22.6665 29.3334C27.9998 25.3334 33.3332 17.3334 33.3332 17.3334" stroke="#A8CF45" stroke-width="4"/>
<path d="M47.9999 10.6666L55.9999 7.99998M52.3399 32.6507C52.3399 32.6507 53.8279 25.568 53.3332 21.3333C52.6599 15.564 49.9999 11.3333 46.6666 9.33331C43.3306 7.33331 36.3359 5.99998 30.6666 9.33331C24.9959 12.6666 22.6226 17.1266 22.6226 17.1266L33.5639 16.104C33.8735 16.0748 34.1836 16.1548 34.4405 16.3301C34.6973 16.5054 34.8849 16.765 34.9706 17.064L36.9666 24.0506C37.0145 24.2191 37.0952 24.3765 37.2039 24.5138C37.3127 24.6511 37.4475 24.7656 37.6005 24.8508C37.7535 24.9359 37.9219 24.9901 38.0959 25.0103C38.2699 25.0304 38.4461 25.016 38.6146 24.968L45.6572 22.9546C45.9448 22.8723 46.2517 22.8891 46.5286 23.0023C46.8055 23.1155 47.0363 23.3185 47.1839 23.5786L52.3372 32.6507H52.3399Z" stroke="#A8CF45" stroke-width="4" stroke-linecap="round" stroke-linejoin="round"/>
</svg>
