<svg width="375" height="88" viewBox="0 0 375 88" fill="none" xmlns="http://www.w3.org/2000/svg">
<mask id="mask0_2011_4051" style="mask-type:alpha" maskUnits="userSpaceOnUse" x="-1" y="-1" width="377" height="90">
<path d="M0 88V35.2619C3.27964 37.47 12.3796 42.3956 22.5423 44.4338C32.7051 46.472 103.828 22.863 138.119 10.8037C174.983 4.17962 209.308 31.5423 238.5 16.6635C267.693 1.78474 341.664 -0.57616 375 0.103236V82.9045L0 88Z" fill="#E7E8D1" stroke="#E7E8D1" stroke-width="0.195312"/>
</mask>
<g mask="url(#mask0_2011_4051)">
<mask id="mask1_2011_4051" style="mask-type:alpha" maskUnits="userSpaceOnUse" x="0" y="6" width="376" height="3">
<path d="M0 6.62402H375.059V8.34508H0V6.62402Z" fill="white"/>
</mask>
<g mask="url(#mask1_2011_4051)">
<path fill-rule="evenodd" clip-rule="evenodd" d="M195.452 7.90263C195.397 7.90212 195.357 7.90212 195.319 7.90161C195.109 7.90212 194.859 7.90263 194.67 7.90314L195.452 7.90263Z" fill="#829577"/>
<path fill-rule="evenodd" clip-rule="evenodd" d="M380.229 7.46269C379.974 7.46534 379.7 7.46843 379.418 7.47241L380.229 7.45165V7.43796L374.181 7.55014C371.047 7.56824 367.008 7.61594 363.432 7.64685C359.862 7.67821 356.754 7.69278 355.455 7.67556C355.455 7.67556 352.086 7.68837 348.329 7.70294C344.826 7.7184 340.988 7.73739 339.234 7.76433C340.828 7.73165 334.277 7.73739 336.28 7.69676C332.791 7.74446 322.483 7.78774 318.358 7.74578L319.135 7.74181C311.506 7.72679 304.989 7.7131 298.66 7.70073C292.318 7.68572 286.176 7.66982 279.325 7.61638C279.941 7.65834 272.701 7.60534 274.482 7.66364C260.289 7.65215 248.627 7.44856 243.483 7.58238C237.026 7.5625 235.837 7.51171 232.502 7.48963L234.042 7.48831C221.946 7.44812 218.435 7.43443 209.451 7.39159C204.966 7.38717 204.251 7.45607 196.218 7.40395C198.82 7.38629 195.535 7.37746 192.529 7.36421C194.451 7.36818 195.046 7.36023 191.103 7.32402C190.546 7.3302 189.687 7.33197 188.883 7.33285C188.85 7.3302 188.693 7.32799 188.774 7.32534C183.755 7.31342 184.627 7.32623 186.957 7.3408C186.839 7.34433 187.034 7.35096 187.753 7.362C182.552 7.30238 173.238 7.30105 172.616 7.2485C157.531 7.19948 146.745 7.16503 134.192 7.12484C132.786 7.09128 135.724 7.08553 139.37 7.09613L130.463 7.0555C130.545 7.01929 135.582 7.06301 138.326 7.07096C127.733 6.9526 116.458 7.00604 104.028 6.89519L101.445 6.91241L100.704 6.90402C100.741 6.91992 97.9478 6.92919 96.1033 6.92654C94.3479 6.88812 96.2352 6.85191 90.0749 6.83248C85.2078 6.78301 76.2319 6.80509 69.8512 6.81525C73.291 6.82541 72.1799 6.84131 70.6998 6.85058C67.6216 6.84793 65.8468 6.81039 63.4478 6.83203L63.22 6.80024C62.9635 6.81481 61.2865 6.82894 59.4226 6.85014C57.1119 6.87576 54.5167 6.908 53.9507 6.92257C52.1873 6.908 58.7193 6.84705 59.4916 6.82055C53.2977 6.87443 51.7694 6.89916 50.2283 6.91285C48.6926 6.92478 47.1501 6.95569 41.0239 6.98307C34.4879 7.02194 42.2141 7.02459 39.0864 7.06478C33.3065 7.07714 27.6531 7.0056 21.0333 6.84882L23.1116 6.92787C17.6732 6.83689 13.3239 6.75519 9.40451 6.71058C5.48381 6.66554 2.00782 6.6439 -1.67847 6.62402C-2.87531 6.628 -4.03732 6.63418 -5.17053 6.64125V7.07891C-2.41385 7.07582 0.243035 7.07803 2.83362 7.08863C6.13547 7.10143 9.29132 7.12484 12.4472 7.17254C15.6057 7.21847 18.7522 7.2772 21.971 7.33462C25.1884 7.39203 28.4776 7.44768 31.9174 7.48124C35.3545 7.51745 38.9571 7.5201 42.6983 7.49449C46.4462 7.47064 50.3575 7.41985 54.5046 7.37127C58.6604 7.32358 63.0211 7.27853 67.7549 7.28736C84.4999 7.31739 95.0933 7.39026 105.839 7.4543C116.586 7.52143 127.484 7.5943 144.855 7.67733C153.14 7.72679 161.705 7.77095 170.228 7.80673C178.745 7.83941 187.218 7.87121 195.319 7.90168C203.014 7.87739 216.589 7.99398 225.692 7.98515L229.215 8.03329C232.353 8.0302 236.033 8.03505 239.181 8.06641L238.982 8.07524C243.668 8.07083 248.949 8.10881 251.277 8.1066L251.08 8.11543L256.77 8.13575L255.79 8.14502C263.961 8.1543 272.379 8.18963 279.794 8.23379L279.184 8.19139C287.107 8.24792 292.525 8.2625 297.743 8.27663C302.967 8.29076 308.01 8.30224 315.183 8.33581L314.982 8.34508C324.05 8.30092 331.203 8.30489 338.437 8.30313C342.053 8.30136 345.683 8.29827 349.575 8.28237C353.472 8.2647 357.625 8.24306 362.306 8.18168C359.976 8.21171 363.311 8.19404 363.123 8.20553C367.43 8.16357 371.87 8.10836 375.239 8.05758C377.503 8.02313 379.284 7.99089 380.229 7.96174V7.46269Z" fill="#829577"/>
</g>
<mask id="mask2_2011_4051" style="mask-type:alpha" maskUnits="userSpaceOnUse" x="0" y="12" width="376" height="3">
<path d="M0 12.4214H375.059V14.1424H0V12.4214Z" fill="white"/>
</mask>
<g mask="url(#mask2_2011_4051)">
<path fill-rule="evenodd" clip-rule="evenodd" d="M195.452 13.7C195.397 13.6995 195.357 13.6995 195.319 13.699C195.109 13.6995 194.859 13.7 194.67 13.7005L195.452 13.7Z" fill="#829577"/>
<path fill-rule="evenodd" clip-rule="evenodd" d="M380.229 13.2601C379.974 13.2627 379.7 13.2658 379.418 13.2698L380.229 13.249V13.2353L374.181 13.3475C371.047 13.3656 367.008 13.4133 363.432 13.4442C359.862 13.4756 356.754 13.4901 355.455 13.4729C355.455 13.4729 352.086 13.4857 348.329 13.5003C344.826 13.5158 340.988 13.5348 339.234 13.5617C340.828 13.529 334.277 13.5348 336.28 13.4941C332.791 13.5418 322.483 13.5851 318.358 13.5431L319.135 13.5392C311.506 13.5242 304.989 13.5105 298.66 13.4981C292.318 13.4831 286.176 13.4672 279.325 13.4137C279.941 13.4557 272.701 13.4027 274.482 13.461C260.289 13.4495 248.627 13.2459 243.483 13.3797C237.026 13.3599 235.837 13.3091 232.502 13.287L234.042 13.2857C221.946 13.2455 218.435 13.2318 209.451 13.189C204.966 13.1845 204.251 13.2534 196.218 13.2013C198.82 13.1837 195.535 13.1748 192.529 13.1616C194.451 13.1655 195.046 13.1576 191.103 13.1214C190.546 13.1276 189.687 13.1293 188.883 13.1302C188.85 13.1276 188.693 13.1254 188.774 13.1227C183.755 13.1108 184.627 13.1236 186.957 13.1382C186.839 13.1417 187.034 13.1483 187.753 13.1594C182.552 13.0997 173.238 13.0984 172.616 13.0459C157.531 12.9968 146.745 12.9624 134.192 12.9222C132.786 12.8886 135.724 12.8829 139.37 12.8935L130.463 12.8529C130.545 12.8167 135.582 12.8604 138.326 12.8683C127.733 12.75 116.458 12.8034 104.028 12.6926L101.445 12.7098L100.704 12.7014C100.741 12.7173 97.9478 12.7266 96.1033 12.7239C94.3479 12.6855 96.2352 12.6493 90.0749 12.6298C85.2078 12.5804 76.2319 12.6025 69.8512 12.6126C73.291 12.6228 72.1799 12.6387 70.6998 12.6479C67.6216 12.6453 65.8468 12.6078 63.4478 12.6294L63.22 12.5976C62.9635 12.6122 61.2865 12.6263 59.4226 12.6475C57.1119 12.6731 54.5167 12.7054 53.9507 12.7199C52.1873 12.7054 58.7193 12.6444 59.4916 12.6179C53.2977 12.6718 51.7694 12.6965 50.2283 12.7102C48.6926 12.7221 47.1501 12.7531 41.0239 12.7804C34.4879 12.8193 42.2141 12.822 39.0864 12.8621C33.3065 12.8745 27.6531 12.803 21.0333 12.6462L23.1116 12.7252C17.6732 12.6343 13.3239 12.5526 9.40451 12.5079C5.48381 12.4629 2.00782 12.4413 -1.67847 12.4214C-2.87531 12.4254 -4.03732 12.4315 -5.17053 12.4386V12.8763C-2.41385 12.8732 0.243035 12.8754 2.83362 12.886C6.13547 12.8988 9.29132 12.9222 12.4472 12.9699C15.6057 13.0158 18.7522 13.0746 21.971 13.132C25.1884 13.1894 28.4776 13.245 31.9174 13.2786C35.3545 13.3148 38.9571 13.3175 42.6983 13.2919C46.4462 13.268 50.3575 13.2172 54.5046 13.1686C58.6604 13.1209 63.0211 13.0759 67.7549 13.0847C84.4999 13.1148 95.0933 13.1876 105.839 13.2517C116.586 13.3188 127.484 13.3917 144.855 13.4747C153.14 13.5242 161.705 13.5683 170.228 13.6041C178.745 13.6368 187.218 13.6686 195.319 13.699C203.014 13.6748 216.589 13.7913 225.692 13.7825L229.215 13.8307C232.353 13.8276 236.033 13.8324 239.181 13.8638L238.982 13.8726C243.668 13.8682 248.949 13.9062 251.277 13.904L251.08 13.9128L256.77 13.9331L255.79 13.9424C263.961 13.9517 272.379 13.987 279.794 14.0312L279.184 13.9888C287.107 14.0453 292.525 14.0599 297.743 14.074C302.967 14.0881 308.01 14.0996 315.183 14.1332L314.982 14.1424C324.05 14.0983 331.203 14.1023 338.437 14.1005C342.053 14.0987 345.683 14.0956 349.575 14.0797C353.472 14.0621 357.625 14.0404 362.306 13.979C359.976 14.0091 363.311 13.9914 363.123 14.0029C367.43 13.9609 371.87 13.9057 375.239 13.8549C377.503 13.8205 379.284 13.7883 380.229 13.7591V13.2601Z" fill="#829577"/>
</g>
<mask id="mask3_2011_4051" style="mask-type:alpha" maskUnits="userSpaceOnUse" x="0" y="18" width="180" height="2">
<path d="M0 18.6675H179.592V19.4916H0V18.6675Z" fill="white"/>
</mask>
<g mask="url(#mask3_2011_4051)">
<path fill-rule="evenodd" clip-rule="evenodd" d="M93.5892 19.2798C93.5633 19.2795 93.544 19.2795 93.5257 19.2793C93.425 19.2795 93.3054 19.2798 93.215 19.28L93.5892 19.2798Z" fill="#829577"/>
<path fill-rule="evenodd" clip-rule="evenodd" d="M182.067 19.0691C181.945 19.0703 181.814 19.0718 181.679 19.0737L182.067 19.0638V19.0572L179.171 19.1109C177.67 19.1196 175.737 19.1424 174.024 19.1572C172.315 19.1723 170.827 19.1792 170.205 19.171C170.205 19.171 168.591 19.1771 166.792 19.1841C165.115 19.1915 163.277 19.2006 162.437 19.2135C163.201 19.1979 160.064 19.2006 161.023 19.1811C159.352 19.204 154.417 19.2247 152.441 19.2046L152.813 19.2027C149.16 19.1955 146.04 19.189 143.009 19.183C139.972 19.1759 137.031 19.1682 133.751 19.1427C134.046 19.1627 130.579 19.1374 131.432 19.1653C124.636 19.1598 119.051 19.0623 116.588 19.1264C113.497 19.1169 112.927 19.0925 111.33 19.082L112.068 19.0813C106.276 19.0621 104.595 19.0555 100.293 19.035C98.1451 19.0329 97.8026 19.0659 93.9561 19.0409C95.2021 19.0325 93.6294 19.0283 92.1901 19.0219C93.1101 19.0238 93.3952 19.02 91.507 19.0027C91.2405 19.0056 90.829 19.0065 90.4438 19.0069C90.4281 19.0056 90.3528 19.0046 90.3916 19.0033C87.9886 18.9976 88.4061 19.0037 89.5215 19.0107C89.4651 19.0124 89.5587 19.0156 89.9028 19.0208C87.4123 18.9923 82.9526 18.9917 82.6547 18.9665C75.4316 18.943 70.2667 18.9265 64.2562 18.9073C63.5827 18.8912 64.9896 18.8885 66.7352 18.8935L62.4702 18.8741C62.5097 18.8567 64.9217 18.8777 66.2356 18.8815C61.1634 18.8248 55.7641 18.8504 49.8126 18.7973L48.5756 18.8056L48.2209 18.8016C48.2382 18.8092 46.9009 18.8136 46.0177 18.8123C45.1772 18.7939 46.0809 18.7766 43.1311 18.7673C40.8006 18.7436 36.5026 18.7542 33.4473 18.759C35.0944 18.7639 34.5623 18.7715 33.8536 18.776C32.3797 18.7747 31.5298 18.7567 30.3811 18.7671L30.272 18.7519C30.1492 18.7588 29.3462 18.7656 28.4537 18.7758C27.3473 18.788 26.1046 18.8035 25.8336 18.8104C24.9892 18.8035 28.1169 18.7743 28.4867 18.7616C25.5209 18.7874 24.789 18.7992 24.0511 18.8058C23.3158 18.8115 22.5772 18.8263 19.6437 18.8394C16.514 18.858 20.2136 18.8593 18.716 18.8785C15.9483 18.8845 13.2413 18.8502 10.0715 18.7751L11.0667 18.813C8.46257 18.7694 6.37995 18.7303 4.50322 18.7089C2.62585 18.6874 0.961423 18.677 -0.803705 18.6675C-1.37679 18.6694 -1.93321 18.6723 -2.47583 18.6757V18.8853C-1.15583 18.8838 0.116381 18.8849 1.35684 18.8899C2.93789 18.8961 4.44903 18.9073 5.96016 18.9301C7.47258 18.9521 8.97922 18.9802 10.5205 19.0077C12.0611 19.0352 13.6361 19.0619 15.2832 19.0779C16.929 19.0953 18.6541 19.0966 20.4455 19.0843C22.2401 19.0729 24.113 19.0486 26.0988 19.0253C28.0887 19.0025 30.1768 18.9809 32.4435 18.9851C40.4616 18.9995 45.5341 19.0344 50.6794 19.065C55.8253 19.0972 61.0438 19.1321 69.3617 19.1718C73.3288 19.1955 77.4302 19.2167 81.5111 19.2338C85.5897 19.2494 89.6466 19.2647 93.5258 19.2793C97.2106 19.2676 103.711 19.3235 108.069 19.3192L109.756 19.3423C111.259 19.3408 113.021 19.3431 114.529 19.3581L114.433 19.3624C116.677 19.3603 119.206 19.3784 120.32 19.3774L120.226 19.3816L122.951 19.3913L122.482 19.3958C126.394 19.4002 130.425 19.4171 133.975 19.4383L133.683 19.418C137.477 19.4451 140.072 19.452 142.57 19.4588C145.071 19.4656 147.486 19.4711 150.921 19.4871L150.825 19.4916C155.167 19.4704 158.592 19.4723 162.056 19.4715C163.787 19.4706 165.526 19.4692 167.389 19.4616C169.255 19.4531 171.244 19.4427 173.485 19.4133C172.369 19.4277 173.966 19.4193 173.877 19.4248C175.939 19.4047 178.065 19.3782 179.678 19.3539C180.762 19.3374 181.615 19.322 182.067 19.308V19.0691Z" fill="#829577"/>
</g>
<mask id="mask4_2011_4051" style="mask-type:alpha" maskUnits="userSpaceOnUse" x="229" y="24" width="147" height="2">
<path d="M229.658 24.5432H375.059V25.2104H229.658V24.5432Z" fill="white"/>
</mask>
<g mask="url(#mask4_2011_4051)">
<path fill-rule="evenodd" clip-rule="evenodd" d="M305.43 25.039C305.409 25.0388 305.393 25.0388 305.378 25.0386C305.297 25.0388 305.2 25.039 305.127 25.0392L305.43 25.039Z" fill="#829577"/>
<path fill-rule="evenodd" clip-rule="evenodd" d="M377.063 24.8683C376.964 24.8694 376.858 24.8706 376.749 24.8721L377.063 24.8641V24.8588L374.718 24.9022C373.503 24.9093 371.938 24.9278 370.551 24.9397C369.167 24.9519 367.962 24.9575 367.459 24.9509C367.459 24.9509 366.153 24.9558 364.696 24.9615C363.338 24.9675 361.85 24.9748 361.17 24.9853C361.788 24.9726 359.249 24.9748 360.025 24.9591C358.672 24.9776 354.676 24.9944 353.077 24.9781L353.378 24.9765C350.421 24.9707 347.895 24.9654 345.441 24.9606C342.982 24.9548 340.601 24.9486 337.945 24.9279C338.184 24.9442 335.377 24.9236 336.068 24.9462C330.565 24.9418 326.044 24.8629 324.05 24.9147C321.547 24.907 321.086 24.8873 319.793 24.8788L320.39 24.8783C315.701 24.8627 314.34 24.8574 310.857 24.8408C309.118 24.8391 308.841 24.8658 305.727 24.8456C306.735 24.8387 305.462 24.8353 304.297 24.8302C305.042 24.8317 305.272 24.8286 303.744 24.8146C303.528 24.817 303.195 24.8177 302.883 24.818C302.87 24.817 302.809 24.8161 302.841 24.8151C300.895 24.8105 301.233 24.8154 302.136 24.8211C302.09 24.8225 302.166 24.825 302.445 24.8293C300.429 24.8062 296.818 24.8057 296.577 24.7853C290.729 24.7663 286.547 24.7529 281.681 24.7374C281.136 24.7244 282.275 24.7221 283.688 24.7262L280.235 24.7105C280.267 24.6964 282.22 24.7134 283.283 24.7165C279.177 24.6706 274.806 24.6913 269.987 24.6483L268.986 24.655L268.698 24.6518C268.712 24.6579 267.63 24.6615 266.915 24.6605C266.234 24.6456 266.966 24.6316 264.578 24.624C262.691 24.6048 259.211 24.6134 256.737 24.6173C258.071 24.6213 257.64 24.6274 257.066 24.631C255.873 24.63 255.185 24.6155 254.255 24.6239L254.167 24.6115C254.067 24.6172 253.417 24.6227 252.695 24.6309C251.799 24.6408 250.793 24.6533 250.573 24.659C249.89 24.6533 252.422 24.6297 252.721 24.6194C250.32 24.6403 249.728 24.6499 249.13 24.6552C248.535 24.6598 247.937 24.6718 245.562 24.6824C243.028 24.6975 246.023 24.6985 244.811 24.7141C242.57 24.7189 240.378 24.6911 237.812 24.6304L238.618 24.661C236.509 24.6257 234.823 24.5941 233.304 24.5768C231.784 24.5593 230.436 24.5509 229.007 24.5432C228.543 24.5448 228.093 24.5472 227.653 24.5499V24.7196C228.722 24.7184 229.752 24.7192 230.756 24.7233C232.036 24.7283 233.26 24.7374 234.483 24.7559C235.708 24.7737 236.928 24.7964 238.176 24.8187C239.423 24.8409 240.698 24.8625 242.031 24.8755C243.364 24.8896 244.761 24.8906 246.211 24.8807C247.664 24.8714 249.18 24.8517 250.788 24.8329C252.399 24.8144 254.09 24.7969 255.925 24.8004C262.416 24.812 266.523 24.8403 270.689 24.8651C274.855 24.8911 279.08 24.9194 285.814 24.9516C289.026 24.9707 292.347 24.9878 295.651 25.0017C298.953 25.0144 302.237 25.0267 305.378 25.0385C308.361 25.0291 313.624 25.0743 317.153 25.0709L318.519 25.0895C319.735 25.0883 321.162 25.0902 322.382 25.1024L322.305 25.1058C324.122 25.1041 326.169 25.1188 327.072 25.118L326.995 25.1214L329.201 25.1293L328.821 25.1329C331.989 25.1365 335.252 25.1502 338.127 25.1673L337.89 25.1508C340.962 25.1728 343.063 25.1784 345.085 25.1839C347.11 25.1894 349.066 25.1938 351.846 25.2068L351.768 25.2104C355.284 25.1933 358.057 25.1948 360.861 25.1942C362.263 25.1935 363.67 25.1923 365.179 25.1861C366.69 25.1793 368.3 25.1709 370.115 25.1471C369.211 25.1587 370.504 25.1519 370.432 25.1563C372.101 25.1401 373.823 25.1187 375.129 25.099C376.006 25.0856 376.697 25.0731 377.063 25.0618V24.8683Z" fill="#829577"/>
</g>
<mask id="mask5_2011_4051" style="mask-type:alpha" maskUnits="userSpaceOnUse" x="0" y="29" width="376" height="3">
<path d="M0 29.814H375.059V31.535H0V29.814Z" fill="white"/>
</mask>
<g mask="url(#mask5_2011_4051)">
<path fill-rule="evenodd" clip-rule="evenodd" d="M195.452 31.0926C195.397 31.0921 195.357 31.0921 195.319 31.0916C195.109 31.0921 194.859 31.0926 194.67 31.0931L195.452 31.0926Z" fill="#829577"/>
<path fill-rule="evenodd" clip-rule="evenodd" d="M380.229 30.6526C379.974 30.6553 379.7 30.6584 379.418 30.6623L380.229 30.6416V30.6279L374.181 30.7401C371.047 30.7582 367.008 30.8059 363.432 30.8368C359.862 30.8682 356.754 30.8827 355.455 30.8655C355.455 30.8655 352.086 30.8783 348.329 30.8929C344.826 30.9083 340.988 30.9273 339.234 30.9543C340.828 30.9216 334.277 30.9273 336.28 30.8867C332.791 30.9344 322.483 30.9777 318.358 30.9357L319.135 30.9317C311.506 30.9167 304.989 30.903 298.66 30.8907C292.318 30.8757 286.176 30.8598 279.325 30.8063C279.941 30.8483 272.701 30.7953 274.482 30.8536C260.289 30.8421 248.627 30.6385 243.483 30.7723C237.026 30.7524 235.837 30.7017 232.502 30.6796L234.042 30.6782C221.946 30.6381 218.435 30.6244 209.451 30.5815C204.966 30.5771 204.251 30.646 196.218 30.5939C198.82 30.5762 195.535 30.5674 192.529 30.5541C194.451 30.5581 195.046 30.5502 191.103 30.514C190.546 30.5201 189.687 30.5219 188.883 30.5228C188.85 30.5201 188.693 30.5179 188.774 30.5153C183.755 30.5034 184.627 30.5162 186.957 30.5307C186.839 30.5343 187.034 30.5409 187.753 30.5519C182.552 30.4923 173.238 30.491 172.616 30.4384C157.531 30.3894 146.745 30.355 134.192 30.3148C132.786 30.2812 135.724 30.2755 139.37 30.2861L130.463 30.2454C130.545 30.2092 135.582 30.253 138.326 30.2609C127.733 30.1425 116.458 30.196 104.028 30.0851L101.445 30.1024L100.704 30.094C100.741 30.1099 97.9478 30.1191 96.1033 30.1165C94.3479 30.0781 96.2352 30.0418 90.0749 30.0224C85.2078 29.973 76.2319 29.995 69.8512 30.0052C73.291 30.0154 72.1799 30.0312 70.6998 30.0405C67.6216 30.0379 65.8468 30.0003 63.4478 30.022L63.22 29.9902C62.9635 30.0048 61.2865 30.0189 59.4226 30.0401C57.1119 30.0657 54.5167 30.0979 53.9507 30.1125C52.1873 30.0979 58.7193 30.037 59.4916 30.0105C53.2977 30.0644 51.7694 30.0891 50.2283 30.1028C48.6926 30.1147 47.1501 30.1456 41.0239 30.173C34.4879 30.2119 42.2141 30.2145 39.0864 30.2547C33.3065 30.2671 27.6531 30.1955 21.0333 30.0388L23.1116 30.1178C17.6732 30.0268 13.3239 29.9451 9.40451 29.9005C5.48381 29.8555 2.00782 29.8338 -1.67847 29.814C-2.87531 29.8179 -4.03732 29.8241 -5.17053 29.8312V30.2689C-2.41385 30.2658 0.243035 30.268 2.83362 30.2786C6.13547 30.2914 9.29132 30.3148 12.4472 30.3625C15.6057 30.4084 18.7522 30.4671 21.971 30.5246C25.1884 30.582 28.4776 30.6376 31.9174 30.6712C35.3545 30.7074 38.9571 30.71 42.6983 30.6844C46.4462 30.6606 50.3575 30.6098 54.5046 30.5612C58.6604 30.5135 63.0211 30.4685 67.7549 30.4773C84.4999 30.5073 95.0933 30.5802 105.839 30.6442C116.586 30.7114 127.484 30.7842 144.855 30.8673C153.14 30.9167 161.705 30.9609 170.228 30.9967C178.745 31.0293 187.218 31.0611 195.319 31.0916C203.014 31.0673 216.589 31.1839 225.692 31.1751L229.215 31.2232C232.353 31.2201 236.033 31.225 239.181 31.2563L238.982 31.2652C243.668 31.2608 248.949 31.2987 251.277 31.2965L251.08 31.3054L256.77 31.3257L255.79 31.335C263.961 31.3442 272.379 31.3796 279.794 31.4237L279.184 31.3813C287.107 31.4379 292.525 31.4524 297.743 31.4666C302.967 31.4807 308.01 31.4922 315.183 31.5257L314.982 31.535C324.05 31.4909 331.203 31.4948 338.437 31.4931C342.053 31.4913 345.683 31.4882 349.575 31.4723C353.472 31.4546 357.625 31.433 362.306 31.3716C359.976 31.4016 363.311 31.384 363.123 31.3955C367.43 31.3535 371.87 31.2983 375.239 31.2475C377.503 31.2131 379.284 31.1808 380.229 31.1517V30.6526Z" fill="#829577"/>
</g>
<mask id="mask6_2011_4051" style="mask-type:alpha" maskUnits="userSpaceOnUse" x="0" y="35" width="376" height="3">
<path d="M0 35.6113H375.059V37.5819H0V35.6113Z" fill="white"/>
</mask>
<g mask="url(#mask6_2011_4051)">
<path fill-rule="evenodd" clip-rule="evenodd" d="M188.965 35.8528C189.021 35.8528 189.062 35.8528 189.102 35.8528C189.318 35.851 189.575 35.8492 189.77 35.8479L188.965 35.8528Z" fill="#829577"/>
</g>
<mask id="mask7_2011_4051" style="mask-type:alpha" maskUnits="userSpaceOnUse" x="0" y="42" width="130" height="1">
<path d="M0 42.2224H129.027V42.8143H0V42.2224Z" fill="white"/>
</mask>
<g mask="url(#mask7_2011_4051)">
<path fill-rule="evenodd" clip-rule="evenodd" d="M61.7878 42.6625C61.8067 42.6623 61.8206 42.6623 61.8337 42.6621C61.906 42.6623 61.992 42.6625 62.057 42.6626L61.7878 42.6625Z" fill="#829577"/>
<path fill-rule="evenodd" clip-rule="evenodd" d="M-1.77869 42.5108C-1.69044 42.5118 -1.59759 42.5129 -1.49874 42.5141L-1.77869 42.5071V42.5024L0.30072 42.541C1.37994 42.5472 2.76928 42.5637 3.99895 42.5743C5.22863 42.5851 6.29794 42.5901 6.74377 42.5842C6.74377 42.5842 7.90271 42.5886 9.19482 42.5934C10.4005 42.5989 11.721 42.6054 12.3235 42.6147C11.777 42.6035 14.0285 42.6054 13.3407 42.5915C14.5398 42.6079 18.0871 42.6228 19.5064 42.6083L19.2377 42.607C21.8627 42.6016 24.106 42.5972 26.2828 42.5928C28.4636 42.5875 30.5769 42.5822 32.9346 42.5638C32.7215 42.5782 35.2126 42.56 34.5991 42.5801C39.4827 42.576 43.4948 42.5061 45.2645 42.552C47.4854 42.5453 47.8948 42.5278 49.0418 42.5202L48.5123 42.5196C52.6737 42.5059 53.8812 42.5012 56.9721 42.4863C58.5149 42.4848 58.7612 42.5087 61.5247 42.4906C60.6293 42.4846 61.759 42.4816 62.7933 42.477C62.1323 42.4784 61.9274 42.4757 63.2841 42.4631C63.4755 42.4652 63.7711 42.4658 64.0478 42.4663C64.0591 42.4654 64.1133 42.4646 64.0852 42.4637C65.8118 42.4596 65.5116 42.4641 64.7105 42.4688C64.751 42.4704 64.6838 42.4723 64.4365 42.4763C66.2259 42.4558 69.4301 42.4553 69.6439 42.4371C74.8331 42.4204 78.5443 42.4085 82.8623 42.3947C83.3461 42.3832 82.3353 42.3812 81.0812 42.3848L84.1454 42.3708C84.1171 42.3584 82.3842 42.3734 81.4404 42.3762C85.0843 42.3354 88.9634 42.3538 93.2381 42.3157L94.1275 42.3216L94.3832 42.3187C94.3694 42.3242 95.3302 42.3274 95.9661 42.3265C96.5698 42.3131 95.92 42.3008 98.0398 42.294C99.7148 42.2771 102.802 42.2847 104.996 42.288C103.814 42.2915 104.196 42.2972 104.705 42.3004C105.763 42.2996 106.374 42.2865 107.201 42.294L107.279 42.283C107.367 42.2879 107.943 42.2931 108.585 42.3002C109.38 42.309 110.272 42.3201 110.468 42.3251C111.074 42.3201 108.827 42.2991 108.56 42.29C110.691 42.3084 111.217 42.3171 111.747 42.3218C112.276 42.3259 112.806 42.3365 114.915 42.3459C117.163 42.3593 114.505 42.3602 115.581 42.3739C117.569 42.3783 119.514 42.3537 121.79 42.2997L121.076 42.3269C122.947 42.2955 124.444 42.2677 125.792 42.2522C127.14 42.2367 128.336 42.2292 129.605 42.2224C130.015 42.2238 130.416 42.2259 130.806 42.2283V42.3789C129.856 42.3778 128.944 42.3786 128.052 42.3822C126.916 42.3866 125.831 42.3947 124.746 42.4111C123.658 42.4268 122.576 42.4471 121.47 42.4669C120.361 42.4866 119.23 42.5058 118.046 42.5173C116.864 42.5298 115.624 42.5307 114.339 42.5219C113.048 42.5137 111.703 42.496 110.277 42.4795C108.846 42.4631 107.346 42.4474 105.717 42.4505C99.9567 42.4609 96.314 42.486 92.616 42.5082C88.9196 42.5311 85.17 42.5562 79.1942 42.5846C76.3441 42.6018 73.3975 42.6168 70.4658 42.6293C67.535 42.6405 64.6206 42.6515 61.8337 42.6619C59.1863 42.6537 54.5164 42.6936 51.3848 42.6907L50.1728 42.7072C49.0934 42.7062 47.8273 42.7078 46.744 42.7186L46.8126 42.7217C45.2005 42.7201 43.384 42.7338 42.5831 42.7323L42.6508 42.7353L40.6933 42.7429L41.0304 42.746C38.2194 42.749 35.3242 42.7612 32.7736 42.7764L32.9835 42.7612C30.2569 42.7809 28.394 42.7855 26.5976 42.7915C24.7999 42.7961 23.065 42.7991 20.5992 42.8113L20.6667 42.8143C17.5486 42.7991 15.0863 42.8007 12.5988 42.8007C11.3553 42.7991 10.1056 42.7976 8.76604 42.7931C7.42669 42.787 5.99841 42.7794 4.38765 42.7581C5.18969 42.7688 4.04204 42.7627 4.10632 42.7657C2.62459 42.752 1.09769 42.7323 -0.0628591 42.7156C-0.840477 42.7037 -1.45289 42.6926 -1.77869 42.6826V42.5108Z" fill="#829577"/>
</g>
<mask id="mask8_2011_4051" style="mask-type:alpha" maskUnits="userSpaceOnUse" x="0" y="47" width="376" height="3">
<path d="M0 47.4553H375.059V49.425H0V47.4553Z" fill="white"/>
</mask>
<g mask="url(#mask8_2011_4051)">
<path fill-rule="evenodd" clip-rule="evenodd" d="M186.094 47.6983C186.037 47.6983 185.996 47.6983 185.957 47.6983C185.74 47.6939 185.483 47.6939 185.289 47.6895L186.094 47.6983Z" fill="#829577"/>
<path fill-rule="evenodd" clip-rule="evenodd" d="M380.229 49.3853C379.793 49.372 379.338 49.3632 378.816 49.3544C380.59 49.4118 379.727 49.425 375.326 49.3146L378.253 49.425L369.975 49.1689C366.774 49.107 362.635 49.0231 358.964 48.9481C355.294 48.8774 352.093 48.8244 350.76 48.8288C350.76 48.8288 347.304 48.7846 343.453 48.7317C339.85 48.6831 335.905 48.6389 334.11 48.6036C335.764 48.6433 329.013 48.5992 331.069 48.6522C329.281 48.6212 325.732 48.5771 322.101 48.5506C318.471 48.5241 314.754 48.5153 312.631 48.5329L313.435 48.5373C309.504 48.5373 305.86 48.5373 302.384 48.5329C298.908 48.5329 295.533 48.5241 292.258 48.502C285.687 48.4578 279.352 48.3783 272.286 48.3209C272.942 48.2856 265.481 48.2194 267.343 48.1929C260.052 48.0824 253.401 48.0427 247.929 48.0339C245.191 48.025 242.75 48.0295 240.662 48.0206C238.576 48.0162 236.842 47.9985 235.523 47.9676C233.87 47.9809 232.555 47.9897 231.458 48.003C230.364 48.0206 229.488 48.0339 228.713 48.0515C227.169 48.078 226.003 48.1089 224.279 48.1399L225.873 48.1222C219.617 48.2061 215.579 48.2282 211.945 48.2459C208.311 48.2635 205.081 48.2724 200.438 48.2812C195.806 48.2679 195.078 48.1973 186.789 48.2017C189.468 48.2326 186.081 48.2238 182.982 48.2149C184.962 48.2238 185.573 48.237 181.504 48.2503C180.932 48.237 180.047 48.2326 179.22 48.2238C179.185 48.2282 179.023 48.2282 179.106 48.2326C173.937 48.2149 174.837 48.2061 177.237 48.2061C177.117 48.2017 177.319 48.1973 178.062 48.1884C172.696 48.2149 163.109 48.184 162.469 48.237C154.716 48.2503 148.133 48.3165 141.88 48.4799C135.598 48.6345 129.64 48.7846 123.231 48.9436C121.813 49.0099 124.823 48.9481 128.546 48.8553C125.504 48.9348 122.518 49.0187 119.43 49.0938C119.475 49.107 120.826 49.085 122.467 49.0408C124.111 48.9966 126.095 48.9436 127.494 48.9039C124.791 48.9922 122.097 49.0761 119.228 49.1424C116.381 49.2042 113.473 49.2351 110.513 49.2484C104.591 49.2793 98.4615 49.2351 92.0473 49.2307L89.3951 49.1865H88.6303C88.651 49.1777 87.9438 49.1645 86.9954 49.1556C86.0464 49.1424 84.8556 49.1291 83.9079 49.1247C83.003 49.138 83.0305 49.1556 82.4887 49.1645C81.9475 49.1777 80.8277 49.1865 77.6404 49.1512C75.1154 49.1424 71.5551 49.085 67.8279 49.0364C64.1028 48.9834 60.2015 48.9701 56.8949 48.9613C60.4426 48.9569 59.2967 48.9392 57.7723 48.9304C54.595 48.926 52.7452 48.9525 50.2691 48.9127L50.0247 48.9436C49.9242 48.9348 49.6128 48.926 49.1567 48.9171C48.4273 48.8995 47.3256 48.8818 46.1455 48.8641C43.788 48.8244 41.1231 48.7979 40.5411 48.7846C39.6382 48.7935 40.8625 48.8111 42.409 48.8288C43.9554 48.8509 45.8227 48.8774 46.2118 48.8951C39.8887 48.82 38.3014 48.8244 36.7208 48.8111C35.1375 48.8067 33.5563 48.7891 27.2211 48.7979C20.454 48.7846 28.4468 48.7493 25.2065 48.7228C22.2168 48.7317 19.2625 48.7449 16.1998 48.767C13.1337 48.7935 9.9758 48.8421 6.53397 48.8951L8.69659 48.8288C3.20131 48.8906 -1.21367 48.9127 -5.17053 48.9569V48.5329C-0.858029 48.4932 3.352 48.4667 7.60959 48.4181C14.2254 48.3298 21.1706 48.2724 28.8573 48.2768C32.707 48.2768 36.757 48.2944 41.0755 48.3342C43.2348 48.3563 45.4617 48.3828 47.7629 48.4137C48.3376 48.4225 48.9169 48.4313 49.5009 48.4402C50.0662 48.449 50.6388 48.4534 51.2182 48.4623C52.3768 48.4711 53.5636 48.4799 54.7785 48.4843C59.0422 48.4888 63.0318 48.4755 66.7061 48.5108C70.3689 48.5373 73.6969 48.5815 76.8126 48.6124C78.3711 48.6257 79.8753 48.6389 81.34 48.6477C82.8195 48.6522 84.2628 48.6566 85.6847 48.6566C88.5412 48.6698 91.3052 48.6787 94.08 48.6875C99.6094 48.7052 105.16 48.7272 111.489 48.6654C114.659 48.6389 117.992 48.5859 121.629 48.4843C125.34 48.3828 129.362 48.2768 133.796 48.1575C135.91 48.1001 138.041 48.0427 140.185 47.9809C141.258 47.9544 142.335 47.9235 143.413 47.897C144.511 47.866 145.614 47.844 146.719 47.8219C151.141 47.7336 155.604 47.6894 160.029 47.6761C168.873 47.6496 177.602 47.6761 185.957 47.6982C189.917 47.7336 195.393 47.7424 201.042 47.738C206.691 47.7336 212.507 47.7026 217.172 47.6894C218.373 47.6673 219.575 47.6452 220.772 47.6187C222.378 47.6143 224.121 47.5966 225.862 47.5746C227.607 47.5525 229.402 47.5304 231.032 47.4995L230.823 47.4951C235.702 47.4686 241.19 47.4465 243.605 47.4642L243.403 47.4553C245.373 47.4553 247.338 47.4686 249.305 47.4774L248.293 47.4597C256.76 47.5216 265.434 47.6364 273.063 47.7115L272.42 47.7424C280.577 47.8175 286.129 47.8793 291.487 47.919C292.82 47.9279 294.146 47.9323 295.499 47.9411C296.852 47.9455 298.225 47.9455 299.665 47.95C302.552 47.95 305.706 47.9411 309.396 47.9323L309.195 47.9235C318.545 47.9897 325.926 48.0118 333.393 48.0604C340.848 48.1045 348.389 48.1796 357.966 48.4004C355.575 48.343 359.005 48.4004 358.81 48.3872C363.231 48.4711 367.798 48.5815 371.248 48.6787C374.697 48.7714 377.054 48.8509 377.101 48.8906C378.454 48.9216 379.465 48.9392 380.229 48.9569V49.3853Z" fill="#829577"/>
</g>
<mask id="mask9_2011_4051" style="mask-type:alpha" maskUnits="userSpaceOnUse" x="0" y="59" width="376" height="3">
<path d="M0 59.3H375.059V61.2697H0V59.3Z" fill="white"/>
</mask>
<g mask="url(#mask9_2011_4051)">
<path fill-rule="evenodd" clip-rule="evenodd" d="M186.094 61.0266C186.037 61.0266 185.996 61.0266 185.957 61.0266C185.74 61.031 185.483 61.031 185.289 61.0354L186.094 61.0266Z" fill="#829577"/>
<path fill-rule="evenodd" clip-rule="evenodd" d="M380.229 59.3398C379.793 59.353 379.338 59.3619 378.816 59.3707C380.59 59.3133 379.727 59.3 375.326 59.4105L378.253 59.3L369.975 59.5562C366.774 59.618 362.635 59.7019 358.964 59.777C355.294 59.8477 352.093 59.9007 350.76 59.8963C350.76 59.8963 347.304 59.9404 343.453 59.9934C339.85 60.042 335.905 60.0862 334.11 60.1215C335.764 60.0817 329.013 60.1259 331.069 60.0729C329.281 60.1038 325.732 60.148 322.101 60.1745C318.471 60.201 314.754 60.2098 312.631 60.1922L313.435 60.1877C309.504 60.1877 305.86 60.1877 302.384 60.1922C298.908 60.1922 295.533 60.201 292.258 60.2231C285.687 60.2672 279.352 60.3467 272.286 60.4086C272.942 60.4395 265.481 60.5057 267.343 60.5322C260.052 60.6426 253.401 60.6824 247.929 60.6912C245.191 60.7 242.75 60.6956 240.662 60.7045C238.576 60.7089 236.842 60.7265 235.523 60.7575C233.87 60.7442 232.555 60.7354 231.458 60.7221C230.364 60.7045 229.488 60.6912 228.713 60.6735C227.169 60.647 226.003 60.6161 224.279 60.5852L225.873 60.6029C219.617 60.519 215.579 60.4969 211.945 60.4792C208.311 60.4616 205.081 60.4527 200.438 60.4439C195.806 60.4571 195.078 60.5278 186.789 60.5234C189.468 60.4925 186.081 60.5013 182.982 60.5101C184.962 60.5013 185.573 60.4881 181.504 60.4748C180.932 60.4881 180.047 60.4925 179.22 60.5013C179.185 60.4969 179.023 60.4969 179.106 60.4925C173.937 60.5101 174.837 60.519 177.237 60.519C177.117 60.5234 177.319 60.5278 178.062 60.5366C172.696 60.5101 163.109 60.5455 162.469 60.4881C154.716 60.4748 148.133 60.4086 141.88 60.2452C135.598 60.0906 129.64 59.9404 123.231 59.7814C121.813 59.7152 124.823 59.777 128.546 59.8698C125.504 59.7903 122.518 59.7064 119.43 59.6313C119.475 59.618 120.826 59.6401 122.467 59.6843C124.111 59.7284 126.095 59.7814 127.494 59.8212C124.791 59.7329 122.097 59.6489 119.228 59.5827C116.381 59.5209 113.473 59.49 110.513 59.4767C104.591 59.4458 98.4615 59.49 92.0473 59.4944L89.3951 59.5385H88.6303C88.651 59.5474 87.9438 59.5606 86.9954 59.5694C86.0464 59.5827 84.8556 59.5959 83.9079 59.6004C83.003 59.5871 83.0305 59.5694 82.4887 59.5606C81.9475 59.5474 80.8277 59.5385 77.6404 59.5739C75.1154 59.5827 71.5551 59.6401 67.8279 59.6887C64.1028 59.7417 60.2015 59.7549 56.8949 59.7638C60.4426 59.7682 59.2967 59.7858 57.7723 59.7947C54.595 59.7991 52.7452 59.7726 50.2691 59.8123L50.0247 59.7814C49.9242 59.7903 49.6128 59.7991 49.1567 59.8079C48.4273 59.8256 47.3256 59.8433 46.1455 59.8609C43.788 59.9007 41.1231 59.9272 40.5411 59.9404C39.6382 59.9316 40.8625 59.9139 42.409 59.8963C43.9554 59.8742 45.8227 59.8477 46.2118 59.83C39.8887 59.9051 38.3014 59.9007 36.7208 59.9139C35.1375 59.9183 33.5563 59.936 27.2211 59.9272C20.454 59.9404 28.4468 59.9758 25.2065 60.0023C22.2168 59.9934 19.2625 59.9802 16.1998 59.9581C13.1337 59.9316 9.9758 59.883 6.53397 59.83L8.69659 59.8963C3.20131 59.8344 -1.21367 59.8123 -5.17053 59.7682V60.1922C-0.858029 60.2319 3.352 60.2584 7.60959 60.307C14.2254 60.3953 21.1706 60.4527 28.8573 60.4483C32.707 60.4483 36.757 60.4306 41.0755 60.3909C43.2348 60.3688 45.4617 60.3423 47.7629 60.3114C48.3376 60.3026 48.9169 60.2937 49.5009 60.2849C50.0662 60.2761 50.6388 60.2717 51.2182 60.2628C52.3768 60.254 53.5636 60.2452 54.7785 60.2407C59.0422 60.2363 63.0318 60.2496 66.7061 60.2187C70.3689 60.1877 73.6969 60.1436 76.8126 60.1127C78.3711 60.0994 79.8753 60.0862 81.34 60.0773C82.8195 60.0729 84.2628 60.0685 85.6847 60.0685C88.5412 60.0552 91.3052 60.0464 94.08 60.0376C99.6094 60.0199 105.16 59.9978 111.489 60.0597C114.659 60.0862 117.992 60.1392 121.629 60.2407C125.34 60.3423 129.362 60.4483 133.796 60.5675C135.91 60.625 138.041 60.6824 140.185 60.7442C141.258 60.7707 142.335 60.8016 143.413 60.8281C144.511 60.859 145.614 60.8811 146.719 60.9032C151.141 60.9915 155.604 61.0357 160.029 61.0489C168.873 61.0754 177.602 61.0489 185.957 61.0268C189.917 60.9915 195.393 60.9827 201.042 60.9871C206.691 60.9915 212.507 61.0224 217.172 61.0357C218.373 61.0578 219.575 61.0798 220.772 61.1063C222.378 61.1108 224.121 61.1284 225.862 61.1505C227.607 61.1726 229.402 61.1947 231.032 61.2256L230.823 61.23C235.702 61.2565 241.19 61.2786 243.605 61.2609L243.403 61.2697C245.373 61.2697 247.338 61.2565 249.305 61.2477L248.293 61.2653C256.76 61.2035 265.434 61.0887 273.063 61.0136L272.42 60.9827C280.577 60.9076 286.129 60.8458 291.487 60.806C292.82 60.7972 294.146 60.7928 295.499 60.7839C296.852 60.7795 298.225 60.7795 299.665 60.7751C302.552 60.7751 305.706 60.7839 309.396 60.7928L309.195 60.8016C318.545 60.7354 325.926 60.7133 333.393 60.6647C340.848 60.6205 348.389 60.5455 357.966 60.3246C355.575 60.3821 359.005 60.3246 358.81 60.3379C363.231 60.254 367.798 60.1436 371.248 60.0464C374.697 59.9537 377.054 59.8742 377.101 59.8344C378.454 59.8079 379.465 59.7858 380.229 59.7682V59.3398Z" fill="#829577"/>
</g>
<mask id="mask10_2011_4051" style="mask-type:alpha" maskUnits="userSpaceOnUse" x="0" y="65" width="376" height="3">
<path d="M0 65.3462H375.059V67.0686H0V65.3462Z" fill="white"/>
</mask>
<g mask="url(#mask10_2011_4051)">
<path fill-rule="evenodd" clip-rule="evenodd" d="M179.606 65.792C179.661 65.792 179.701 65.792 179.739 65.792C179.95 65.792 180.2 65.792 180.388 65.7876L179.606 65.792Z" fill="#829577"/>
<path fill-rule="evenodd" clip-rule="evenodd" d="M233.145 66.2671C233.243 66.2671 233.346 66.2619 233.455 66.2567L233.145 66.2828V66.2985L235.45 66.1626C236.646 66.1417 238.186 66.0895 239.549 66.0476C240.912 66.0111 242.098 65.9954 242.592 66.0163C242.592 66.0163 243.876 66.0006 245.309 65.9849C246.645 65.964 248.109 65.9431 248.776 65.9118C248.171 65.9484 250.666 65.9431 249.904 65.9902C251.233 65.9327 255.165 65.8856 256.738 65.9327L256.44 65.9379C259.35 65.9588 261.837 65.9693 264.25 65.9849C266.667 66.0058 269.009 66.0215 271.623 66.0842C271.386 66.0372 274.148 66.0999 273.468 66.032C278.881 66.0424 283.328 66.2828 285.289 66.126C287.751 66.1522 288.205 66.2097 289.476 66.2358H288.889C293.502 66.288 294.841 66.3037 298.267 66.3508C299.977 66.356 300.25 66.2776 303.313 66.3351C302.32 66.356 303.573 66.3717 304.719 66.3821C303.986 66.3821 303.759 66.3873 305.263 66.4344C305.475 66.4239 305.803 66.4239 306.11 66.4239C306.122 66.4239 306.182 66.4292 306.151 66.4292C308.065 66.4448 307.732 66.4292 306.844 66.4135C306.889 66.4082 306.814 66.3978 306.54 66.3873C308.524 66.4605 312.075 66.4605 312.312 66.5232C318.064 66.5807 322.178 66.6225 326.964 66.6696C327.5 66.7061 326.38 66.7166 324.99 66.7009L328.386 66.7479C328.355 66.795 326.434 66.7427 325.388 66.7323C329.427 66.8734 333.727 66.8107 338.465 66.9413L339.451 66.9204L339.734 66.9309C339.719 66.91 340.784 66.8995 341.489 66.9047C342.158 66.9465 341.438 66.9883 343.787 67.0145C345.644 67.072 349.066 67.0458 351.498 67.0354C350.187 67.0249 350.611 67.004 351.176 66.9936C352.348 66.9936 353.025 67.0406 353.942 67.0145L354.029 67.0511C354.126 67.0354 354.764 67.0197 355.477 66.9936C356.358 66.9622 357.346 66.9256 357.563 66.9047C358.235 66.9256 355.745 66.9988 355.448 67.0302C357.811 66.9622 358.393 66.9361 358.981 66.9204C359.568 66.9047 360.155 66.8681 362.492 66.8368C364.985 66.7898 362.038 66.7845 363.23 66.7375C365.434 66.727 367.59 66.8107 370.113 66.9936L369.321 66.8995C371.395 67.0093 373.055 67.1033 374.549 67.1608C376.043 67.2131 377.369 67.2392 378.776 67.2601C379.23 67.2549 379.675 67.2497 380.106 67.2392V66.7218C379.054 66.727 378.043 66.7218 377.054 66.7114C375.795 66.6957 374.592 66.6696 373.39 66.6121C372.184 66.5546 370.984 66.4866 369.758 66.4187C368.529 66.3508 367.276 66.288 365.963 66.2462C364.653 66.2044 363.279 66.1992 361.854 66.2306C360.423 66.2567 358.932 66.3194 357.351 66.3769C355.765 66.4344 354.103 66.4866 352.297 66.4762C345.912 66.4396 341.875 66.356 337.776 66.2776C333.678 66.1992 329.522 66.1104 322.898 66.0163C319.739 65.9536 316.473 65.9013 313.223 65.8595C309.975 65.8229 306.744 65.7863 303.655 65.7498C300.721 65.7759 295.545 65.64 292.073 65.6505L290.73 65.593C289.534 65.5982 288.13 65.593 286.929 65.5512L287.005 65.5459C285.218 65.5512 283.205 65.5041 282.317 65.5041L282.392 65.4937L280.223 65.4728L280.596 65.4623C277.48 65.4519 274.271 65.4101 271.444 65.3578L271.677 65.4048C268.654 65.3369 266.59 65.3212 264.598 65.3055C262.606 65.2899 260.683 65.2742 257.95 65.2376L258.024 65.2219C254.568 65.2742 251.839 65.269 249.082 65.2742C247.703 65.2742 246.318 65.2794 244.833 65.3003C243.349 65.3212 241.766 65.3474 239.98 65.4153C240.869 65.3839 239.597 65.4048 239.668 65.3892C238.026 65.4414 236.333 65.5041 235.047 65.5668C234.185 65.6034 233.506 65.6452 233.145 65.6766V66.2671Z" fill="#829577"/>
</g>
<mask id="mask11_2011_4051" style="mask-type:alpha" maskUnits="userSpaceOnUse" x="209" y="71" width="167" height="2">
<path d="M209.731 71.6968H375.058V72.567H209.731V71.6968Z" fill="white"/>
</mask>
<g mask="url(#mask11_2011_4051)">
<path fill-rule="evenodd" clip-rule="evenodd" d="M293.028 72.46C293.053 72.46 293.071 72.46 293.088 72.46C293.183 72.46 293.297 72.4619 293.383 72.4619L293.028 72.46Z" fill="#829577"/>
<path fill-rule="evenodd" clip-rule="evenodd" d="M207.452 71.7165C207.645 71.7204 207.844 71.7243 208.074 71.7282C207.291 71.7029 207.673 71.697 209.613 71.7457L208.323 71.697L211.971 71.8099C213.384 71.8391 215.209 71.8761 216.825 71.9073C218.443 71.9404 219.855 71.9618 220.442 71.9598C220.442 71.9598 221.965 71.9812 223.662 72.0027C225.25 72.0241 226.991 72.0435 227.781 72.0611C227.051 72.0416 230.028 72.0611 229.123 72.0377C229.911 72.0533 231.473 72.0708 233.074 72.0825C234.674 72.0942 236.313 72.0981 237.25 72.0922L236.896 72.0883C238.628 72.0903 240.235 72.0903 241.768 72.0903C243.298 72.0903 244.786 72.0942 246.229 72.1039C249.125 72.1234 251.919 72.1584 255.035 72.1857C254.745 72.1993 258.034 72.2285 257.214 72.2402C260.426 72.2888 263.358 72.3064 265.77 72.3102C266.977 72.3141 268.053 72.3122 268.974 72.318C269.893 72.318 270.657 72.3258 271.239 72.3394C271.967 72.3356 272.547 72.3297 273.031 72.3258C273.513 72.318 273.899 72.3102 274.241 72.3044C274.921 72.2908 275.435 72.2772 276.195 72.2655L275.493 72.2713C278.25 72.2343 280.031 72.2265 281.632 72.2168C283.234 72.209 284.658 72.2051 286.704 72.2032C288.746 72.209 289.067 72.2402 292.721 72.2382C291.54 72.2226 293.033 72.2285 294.399 72.2304C293.526 72.2265 293.257 72.2226 295.05 72.2168C295.303 72.2207 295.693 72.2246 296.058 72.2265C296.073 72.2246 296.144 72.2246 296.107 72.2226C298.386 72.2304 297.989 72.2343 296.931 72.2343C296.985 72.2363 296.895 72.2382 296.568 72.2421C298.933 72.2304 303.16 72.246 303.441 72.2207C306.858 72.2168 309.761 72.1876 312.517 72.1136C315.286 72.0455 317.913 71.9793 320.738 71.9092C321.363 71.882 320.036 71.9073 318.395 71.9482C319.736 71.9131 321.052 71.8761 322.413 71.845C322.393 71.8372 321.798 71.8489 321.075 71.8683C320.349 71.8878 319.475 71.9112 318.859 71.9267C320.05 71.8878 321.237 71.8508 322.502 71.8216C323.757 71.7944 325.038 71.7807 326.343 71.7749C328.953 71.7613 331.657 71.7807 334.482 71.7846L335.651 71.8041L335.991 71.8021C335.979 71.806 336.292 71.8119 336.711 71.8177C337.128 71.8236 337.653 71.8275 338.072 71.8313C338.471 71.8255 338.459 71.8177 338.698 71.8119C338.934 71.806 339.43 71.8041 340.836 71.8177C341.949 71.8216 343.516 71.8469 345.161 71.8683C346.802 71.8917 348.52 71.8975 349.979 71.9014C348.414 71.9034 348.919 71.9112 349.592 71.917C350.991 71.917 351.809 71.9053 352.899 71.9228L353.008 71.9112C353.052 71.9131 353.188 71.917 353.389 71.9209C353.711 71.9287 354.198 71.9384 354.717 71.9462C355.756 71.9618 356.931 71.9735 357.188 71.9793C357.587 71.9754 357.047 71.9696 356.365 71.9598C355.683 71.952 354.859 71.9384 354.688 71.9326C357.475 71.9637 358.174 71.9637 358.871 71.9696C359.571 71.9715 360.268 71.9793 363.06 71.9754C366.042 71.9793 362.52 71.9949 363.946 72.0066C365.266 72.0027 366.568 71.9988 367.917 71.9871C369.269 71.9774 370.662 71.954 372.177 71.9306L371.223 71.9598C373.647 71.9345 375.593 71.9228 377.338 71.9053V72.0903C375.436 72.1097 373.582 72.1214 371.705 72.1409C368.788 72.1798 365.726 72.2071 362.337 72.2051C360.642 72.2032 358.856 72.1954 356.952 72.1779C356.001 72.1681 355.018 72.1584 354.003 72.1428C353.752 72.1389 353.495 72.135 353.238 72.1311C352.99 72.1292 352.736 72.1253 352.482 72.1234C351.972 72.1175 351.446 72.1136 350.912 72.1117C349.031 72.1097 347.275 72.1175 345.654 72.1019C344.039 72.0883 342.572 72.0689 341.199 72.0552C340.511 72.0494 339.85 72.0435 339.203 72.0416C338.551 72.0396 337.916 72.0377 337.287 72.0358C336.029 72.0319 334.81 72.026 333.588 72.0221C331.149 72.0143 328.705 72.0066 325.915 72.0319C324.516 72.0455 323.047 72.0669 321.444 72.1136C319.808 72.1565 318.036 72.2032 316.081 72.2557C315.149 72.281 314.209 72.3083 313.264 72.3336C312.791 72.3453 312.317 72.3589 311.841 72.3725C311.357 72.3842 310.871 72.3959 310.384 72.4056C308.435 72.4446 306.468 72.4621 304.517 72.4679C300.618 72.4796 296.771 72.4679 293.088 72.4601C291.342 72.4446 288.928 72.4387 286.438 72.4426C283.948 72.4446 281.384 72.4563 279.328 72.464C278.799 72.4738 278.269 72.4816 277.741 72.4932C277.033 72.4971 276.265 72.503 275.497 72.5127C274.728 72.5224 273.937 72.5322 273.218 72.5458L273.311 72.5497C271.16 72.5594 268.74 72.5711 267.676 72.5614L267.765 72.5672C266.897 72.5653 266.031 72.5594 265.164 72.5555L265.61 72.5633C261.877 72.5361 258.055 72.4855 254.691 72.4524L254.976 72.4387C251.378 72.4056 248.932 72.3784 246.571 72.3609C245.981 72.3589 245.396 72.355 244.801 72.3511C244.205 72.3511 243.599 72.3492 242.966 72.3492C241.693 72.3492 240.303 72.3511 238.674 72.355L238.762 72.3589C234.643 72.3317 231.388 72.32 228.099 72.3005C224.811 72.2791 221.486 72.248 217.266 72.1487C218.318 72.174 216.809 72.1506 216.892 72.1565C214.944 72.1175 212.932 72.0689 211.412 72.028C209.89 71.9851 208.85 71.952 208.832 71.9345C208.235 71.9209 207.79 71.9112 207.452 71.9053V71.7165Z" fill="#829577"/>
</g>
<mask id="mask12_2011_4051" style="mask-type:alpha" maskUnits="userSpaceOnUse" x="0" y="77" width="376" height="2">
<path d="M0 77.1953H375.059V78.8603H0V77.1953Z" fill="white"/>
</mask>
<g mask="url(#mask12_2011_4051)">
<path fill-rule="evenodd" clip-rule="evenodd" d="M195.452 77.637C195.397 77.637 195.357 77.6414 195.319 77.6414C195.109 77.637 194.859 77.637 194.67 77.637H195.452Z" fill="#829577"/>
<path fill-rule="evenodd" clip-rule="evenodd" d="M380.229 78.0786C379.974 78.0742 379.7 78.0742 379.418 78.0698L380.229 78.0918V78.1051L374.181 77.9903C371.047 77.9726 367.008 77.924 363.432 77.8931C359.862 77.8622 356.754 77.8489 355.455 77.8666C355.455 77.8666 352.086 77.8534 348.329 77.8401C344.826 77.8224 340.988 77.8048 339.234 77.7783C340.828 77.8092 334.277 77.8048 336.28 77.8445C332.791 77.7959 322.483 77.7518 318.358 77.7959L319.135 77.8004C311.506 77.8136 304.989 77.8269 298.66 77.8401C292.318 77.8578 286.176 77.871 279.325 77.924C279.941 77.8843 272.701 77.9373 274.482 77.8754C260.289 77.8887 248.627 78.0918 243.483 77.9593C237.026 77.977 235.837 78.03 232.502 78.0521H234.042C221.946 78.0918 218.435 78.1095 209.451 78.1492C204.966 78.1537 204.251 78.083 196.218 78.136C198.82 78.1537 195.535 78.1625 192.529 78.1757C194.451 78.1713 195.046 78.1802 191.103 78.2199C190.546 78.2111 189.687 78.2111 188.883 78.2067C188.85 78.2111 188.693 78.2155 188.774 78.2155C183.755 78.2287 184.627 78.2155 186.957 78.2022C186.839 78.1978 187.034 78.189 187.753 78.1802C182.552 78.2376 173.238 78.242 172.616 78.295C157.531 78.3436 146.745 78.3745 134.192 78.4142C132.786 78.4496 135.724 78.454 139.37 78.4451L130.463 78.4849C130.545 78.5202 135.582 78.4805 138.326 78.4716C127.733 78.5909 116.458 78.5335 104.028 78.6483L101.445 78.6306L100.704 78.635C100.741 78.6218 97.9478 78.613 96.1033 78.613C94.3479 78.6527 96.2352 78.688 90.0749 78.7101C85.2078 78.7587 76.2319 78.7366 69.8512 78.7278C73.291 78.7145 72.1799 78.7013 70.6998 78.6925C67.6216 78.6925 65.8468 78.7322 63.4478 78.7101L63.22 78.741C62.9635 78.7278 61.2865 78.7101 59.4226 78.6925C57.1119 78.666 54.5167 78.635 53.9507 78.6174C52.1873 78.635 58.7193 78.6925 59.4916 78.719C53.2977 78.666 51.7694 78.6439 50.2283 78.6306C48.6926 78.6174 47.1501 78.5865 41.0239 78.56C34.4879 78.5202 42.2141 78.5158 39.0864 78.4761C33.3065 78.4628 27.6531 78.5379 21.0333 78.6925L23.1116 78.613C17.6732 78.7057 13.3239 78.7852 9.40451 78.8294C5.48381 78.8735 2.00782 78.8956 -1.67847 78.9177C-2.87531 78.9133 -4.03732 78.9089 -5.17053 78.9V78.4628C-2.41385 78.4672 0.243035 78.4628 2.83362 78.454C6.13547 78.4407 9.29132 78.4142 12.4472 78.3701C15.6057 78.3215 18.7522 78.2641 21.971 78.2067C25.1884 78.1492 28.4776 78.0918 31.9174 78.0609C35.3545 78.0256 38.9571 78.0212 42.6983 78.0477C46.4462 78.0698 50.3575 78.1227 54.5046 78.1713C58.6604 78.2199 63.0211 78.2641 67.7549 78.2552C84.4999 78.2243 95.0933 78.1492 105.839 78.0874C116.586 78.0212 127.484 77.9461 144.855 77.8622C153.14 77.8136 161.705 77.7694 170.228 77.7341C178.745 77.7032 187.218 77.6723 195.319 77.6414C203.014 77.6634 216.589 77.5486 225.692 77.5575L229.215 77.5089C232.353 77.5089 236.033 77.5045 239.181 77.4735L238.982 77.4647C243.668 77.4691 248.949 77.4338 251.277 77.4338L251.08 77.425L256.77 77.4073L255.79 77.3985C263.961 77.3852 272.379 77.3499 279.794 77.3057L279.184 77.3499C287.107 77.2925 292.525 77.2792 297.743 77.266C302.967 77.2483 308.01 77.2395 315.183 77.2041L314.982 77.1953C324.05 77.2395 331.203 77.2351 338.437 77.2395C342.053 77.2395 345.683 77.2439 349.575 77.2571C353.472 77.2748 357.625 77.2969 362.306 77.3587C359.976 77.3278 363.311 77.3455 363.123 77.3366C367.43 77.3764 371.87 77.4338 375.239 77.4824C377.503 77.5177 379.284 77.5486 380.229 77.5795V78.0786Z" fill="#829577"/>
<path fill-rule="evenodd" clip-rule="evenodd" d="M380.229 78.0786C379.974 78.0742 379.7 78.0742 379.418 78.0698L380.229 78.0918V78.1051L374.181 77.9903C371.047 77.9726 367.008 77.924 363.432 77.8931C359.862 77.8622 356.754 77.8489 355.455 77.8666C355.455 77.8666 352.086 77.8534 348.329 77.8401C344.826 77.8224 340.988 77.8048 339.234 77.7783C340.828 77.8092 334.277 77.8048 336.28 77.8445C332.791 77.7959 322.483 77.7518 318.358 77.7959L319.135 77.8004C311.506 77.8136 304.989 77.8269 298.66 77.8401C292.318 77.8578 286.176 77.871 279.325 77.924C279.941 77.8843 272.701 77.9373 274.482 77.8754C260.289 77.8887 248.627 78.0918 243.483 77.9593C237.026 77.977 235.837 78.03 232.502 78.0521H234.042C221.946 78.0918 218.435 78.1095 209.451 78.1492C204.966 78.1537 204.251 78.083 196.218 78.136C198.82 78.1537 195.535 78.1625 192.529 78.1757C194.451 78.1713 195.046 78.1802 191.103 78.2199C190.546 78.2111 189.687 78.2111 188.883 78.2067C188.85 78.2111 188.693 78.2155 188.774 78.2155C183.755 78.2287 184.627 78.2155 186.957 78.2022C186.839 78.1978 187.034 78.189 187.753 78.1802C182.552 78.2376 173.238 78.242 172.616 78.295C157.531 78.3436 146.745 78.3745 134.192 78.4142C132.786 78.4496 135.724 78.454 139.37 78.4451L130.463 78.4849C130.545 78.5202 135.582 78.4805 138.326 78.4716C127.733 78.5909 116.458 78.5335 104.028 78.6483L101.445 78.6306L100.704 78.635C100.741 78.6218 97.9478 78.613 96.1033 78.613C94.3479 78.6527 96.2352 78.688 90.0749 78.7101C85.2078 78.7587 76.2319 78.7366 69.8512 78.7278C73.291 78.7145 72.1799 78.7013 70.6998 78.6925C67.6216 78.6925 65.8468 78.7322 63.4478 78.7101L63.22 78.741C62.9635 78.7278 61.2865 78.7101 59.4226 78.6925C57.1119 78.666 54.5167 78.635 53.9507 78.6174C52.1873 78.635 58.7193 78.6925 59.4916 78.719C53.2977 78.666 51.7694 78.6439 50.2283 78.6306C48.6926 78.6174 47.1501 78.5865 41.0239 78.56C34.4879 78.5202 42.2141 78.5158 39.0864 78.4761C33.3065 78.4628 27.6531 78.5379 21.0333 78.6925L23.1116 78.613C17.6732 78.7057 13.3239 78.7852 9.40451 78.8294C5.48381 78.8735 2.00782 78.8956 -1.67847 78.9177C-2.87531 78.9133 -4.03732 78.9089 -5.17053 78.9V78.4628C-2.41385 78.4672 0.243035 78.4628 2.83362 78.454C6.13547 78.4407 9.29132 78.4142 12.4472 78.3701C15.6057 78.3215 18.7522 78.2641 21.971 78.2067C25.1884 78.1492 28.4776 78.0918 31.9174 78.0609C35.3545 78.0256 38.9571 78.0212 42.6983 78.0477C46.4462 78.0698 50.3575 78.1227 54.5046 78.1713C58.6604 78.2199 63.0211 78.2641 67.7549 78.2552C84.4999 78.2243 95.0933 78.1492 105.839 78.0874C116.586 78.0212 127.484 77.9461 144.855 77.8622C153.14 77.8136 161.705 77.7694 170.228 77.7341C178.745 77.7032 187.218 77.6723 195.319 77.6414C203.014 77.6634 216.589 77.5486 225.692 77.5575L229.215 77.5089C232.353 77.5089 236.033 77.5045 239.181 77.4735L238.982 77.4647C243.668 77.4691 248.949 77.4338 251.277 77.4338L251.08 77.425L256.77 77.4073L255.79 77.3985C263.961 77.3852 272.379 77.3499 279.794 77.3057L279.184 77.3499C287.107 77.2925 292.525 77.2792 297.743 77.266C302.967 77.2483 308.01 77.2395 315.183 77.2041L314.982 77.1953C324.05 77.2395 331.203 77.2351 338.437 77.2395C342.053 77.2395 345.683 77.2439 349.575 77.2571C353.472 77.2748 357.625 77.2969 362.306 77.3587C359.976 77.3278 363.311 77.3455 363.123 77.3366C367.43 77.3764 371.87 77.4338 375.239 77.4824C377.503 77.5177 379.284 77.5486 380.229 77.5795V78.0786Z" fill="#829577"/>
</g>
</g>
</svg>
