<svg width="24" height="24" viewBox="0 0 24 24" fill="none" xmlns="http://www.w3.org/2000/svg">
<path d="M18 9.75H16.5C16.4994 9.15345 16.2622 8.5815 15.8403 8.15967C15.4185 7.73784 14.8466 7.5006 14.25 7.5V6C15.2442 6.00119 16.1973 6.39666 16.9003 7.09966C17.6033 7.80267 17.9988 8.7558 18 9.75V9.75Z" fill="#4F8147"/>
<path d="M20.9998 9.75H19.4998C19.4982 8.3581 18.9446 7.02367 17.9603 6.03944C16.9761 5.05522 15.6417 4.50159 14.2498 4.5V3C16.0394 3.00199 17.7551 3.71378 19.0206 4.97922C20.286 6.24466 20.9978 7.9604 20.9998 9.75V9.75ZM19.4998 21.75H19.3723C4.63478 20.9025 2.54228 8.4675 2.24978 4.6725C2.20407 4.07756 2.39654 3.48883 2.78488 3.03579C3.17321 2.58276 3.7256 2.30253 4.32053 2.25675C4.38003 2.25225 4.43978 2.25 4.49978 2.25H8.45228C8.7527 2.24971 9.04628 2.33963 9.29501 2.50812C9.54373 2.67661 9.73613 2.9159 9.84728 3.195L10.9873 6C11.097 6.27266 11.1243 6.57156 11.0656 6.85957C11.0069 7.14758 10.865 7.412 10.6573 7.62L9.05978 9.2325C9.3083 10.651 9.98707 11.9587 11.004 12.9784C12.021 13.998 13.3269 14.6802 14.7448 14.9325L16.3723 13.32C16.5834 13.1146 16.8503 12.9759 17.1397 12.9213C17.4292 12.8666 17.7283 12.8983 17.9998 13.0125L20.8273 14.145C21.1022 14.2597 21.3367 14.4536 21.501 14.702C21.6653 14.9504 21.7519 15.2422 21.7498 15.54V19.5C21.7498 20.0967 21.5127 20.669 21.0908 21.091C20.6688 21.5129 20.0965 21.75 19.4998 21.75ZM4.49978 3.75C4.40129 3.7497 4.30371 3.76881 4.2126 3.80623C4.12149 3.84365 4.03865 3.89864 3.96879 3.96808C3.89894 4.03751 3.84345 4.12003 3.80548 4.21091C3.76752 4.30179 3.74783 4.39926 3.74753 4.49775C3.74753 4.51875 3.74828 4.5395 3.74978 4.56C4.09478 9 6.30728 19.5 19.4548 20.25C19.6533 20.2619 19.8484 20.1945 19.9972 20.0625C20.146 19.9306 20.2363 19.745 20.2483 19.5465L20.2498 19.5V15.54L17.4223 14.4075L15.2698 16.545L14.9098 16.5C8.38478 15.6825 7.49978 9.1575 7.49978 9.09L7.45478 8.73L9.58478 6.5775L8.45978 3.75H4.49978Z" fill="#4F8147"/>
</svg>
