<svg width="24" height="24" viewBox="0 0 24 24" fill="none" xmlns="http://www.w3.org/2000/svg">
<path d="M11.5613 17.7L7.41135 20.2C7.22802 20.3167 7.03635 20.3667 6.83635 20.35C6.63635 20.3333 6.46135 20.2667 6.31135 20.15C6.16135 20.0333 6.04468 19.8877 5.96135 19.713C5.87802 19.5377 5.86135 19.3417 5.91135 19.125L7.01135 14.4L3.33635 11.225C3.16968 11.075 3.06568 10.904 3.02435 10.712C2.98235 10.5207 2.99468 10.3333 3.06135 10.15C3.12802 9.96667 3.22802 9.81667 3.36135 9.7C3.49468 9.58333 3.67802 9.50833 3.91135 9.475L8.76135 9.05L10.6363 4.6C10.7197 4.4 10.849 4.25 11.0244 4.15C11.199 4.05 11.378 4 11.5613 4C11.7447 4 11.924 4.05 12.0993 4.15C12.274 4.25 12.403 4.4 12.4864 4.6L14.3614 9.05L19.2113 9.475C19.4447 9.50833 19.628 9.58333 19.7614 9.7C19.8947 9.81667 19.9947 9.96667 20.0613 10.15C20.128 10.3333 20.1407 10.5207 20.0993 10.712C20.0573 10.904 19.953 11.075 19.7864 11.225L16.1113 14.4L17.2113 19.125C17.2613 19.3417 17.2447 19.5377 17.1614 19.713C17.078 19.8877 16.9613 20.0333 16.8113 20.15C16.6613 20.2667 16.4864 20.3333 16.2864 20.35C16.0864 20.3667 15.8947 20.3167 15.7113 20.2L11.5613 17.7Z" fill="#BDC2BD"/>
</svg>
